<svg width="341" height="368" viewBox="0 0 341 368" fill="none" xmlns="http://www.w3.org/2000/svg">
<path opacity="0.4" d="M135.891 367.095C109.819 367.095 86.6252 362.862 66.3097 354.397C45.9941 345.933 29.9109 334.42 18.0602 319.861C6.2094 305.301 0.284021 288.541 0.284021 269.58C0.284021 251.973 4.17784 236.228 11.9655 222.346C19.7531 208.125 32.1118 194.92 49.0414 182.731C65.9711 170.203 87.4717 158.014 113.543 146.163C132.505 137.359 147.403 129.572 158.238 122.8C169.073 116.028 176.691 109.595 181.093 103.5C185.494 97.0668 187.695 90.6335 187.695 84.2002C187.695 75.3968 184.648 68.2864 178.553 62.8689C172.797 57.4514 164.163 54.7426 152.651 54.7426C140.462 54.7426 130.981 57.79 124.209 63.8847C117.437 69.9793 114.051 77.767 114.051 87.2476C114.051 92.3265 115.067 97.4054 117.099 102.484C119.13 107.225 123.024 112.811 128.78 119.245C134.536 125.339 142.662 133.296 153.159 143.115L340.57 316.814L297.399 367.095L90.6883 175.112C78.8376 164.277 69.357 154.12 62.2465 144.639C55.1361 135.158 49.8879 125.847 46.502 116.705C43.4546 107.563 41.931 98.0826 41.931 88.2634C41.931 70.9951 46.502 55.7584 55.644 42.5533C64.786 29.3482 77.6525 19.1904 94.2436 12.0799C110.835 4.63089 130.304 0.906365 152.651 0.906365C173.305 0.906365 191.081 4.2923 205.979 11.0642C221.216 17.4974 233.067 26.8087 241.532 38.9981C250.335 51.1874 254.737 65.7469 254.737 82.6766C254.737 97.5747 251.012 111.288 243.563 123.816C236.114 136.005 224.433 147.517 208.519 158.352C192.943 169.187 172.459 180.191 147.064 191.365C129.796 199.153 116.083 206.771 105.925 214.22C96.1058 221.33 88.9954 228.61 84.5937 236.059C80.192 243.508 77.9911 251.804 77.9911 260.946C77.9911 269.411 80.5306 277.029 85.6095 283.801C91.0269 290.573 98.476 295.821 107.957 299.545C117.437 303.27 128.611 305.132 141.477 305.132C162.131 305.132 181.093 300.392 198.361 290.911C215.629 281.092 230.189 266.702 242.039 247.741C254.229 228.441 262.863 205.078 267.942 177.652L331.428 197.46C324.318 231.996 311.62 261.962 293.336 287.356C275.052 312.751 252.536 332.389 225.787 346.271C199.038 360.154 169.073 367.095 135.891 367.095Z" fill="white"/>
</svg>
