<svg width="494" height="388" viewBox="0 0 494 388" fill="none" xmlns="http://www.w3.org/2000/svg">
<g clip-path="url(#clip0_127_466)">
<path d="M73.1866 364.645L30.9942 387.975L20.9072 369.711C18.8186 365.934 17.6411 362.335 17.3522 358.935C17.0634 355.536 17.6633 352.448 19.1297 349.693C20.5961 346.938 22.929 344.694 26.1062 342.938C29.239 341.205 32.3718 340.45 35.4823 340.672C38.5929 340.894 41.5257 342.027 44.2585 344.094C46.9914 346.138 49.4131 349.071 51.5016 352.848L58.5893 365.69L51.7905 363.779L67.832 354.914L73.2311 364.69L73.1866 364.645ZM52.8347 363.135L50.5907 370.045L43.7919 357.736C42.1256 354.714 40.237 352.825 38.1263 352.048C36.0155 351.27 33.8159 351.515 31.5275 352.781C29.1946 354.07 27.7948 355.825 27.3282 358.002C26.8616 360.202 27.4615 362.801 29.1279 365.823L35.9267 378.132L28.8835 376.354L52.8125 363.135H52.8347Z" fill="white"/>
<path d="M47.058 306.434C48.1911 310.211 48.4133 313.81 47.7023 317.21C46.9913 320.609 45.5249 323.564 43.2809 326.075C41.0368 328.585 38.1485 330.385 34.638 331.429C31.0831 332.496 27.6615 332.585 24.4176 331.718C21.1738 330.852 18.3076 329.185 15.8858 326.719C13.4418 324.253 11.6644 321.142 10.5312 317.365C9.42031 313.632 9.19813 310.055 9.86468 306.634C10.5534 303.212 11.9976 300.257 14.2195 297.791C16.4413 295.302 19.3741 293.525 22.9734 292.436C26.4839 291.392 29.8833 291.281 33.1272 292.125C36.371 292.97 39.2372 294.636 41.7034 297.102C44.1696 299.568 45.9693 302.679 47.0802 306.412L47.058 306.434ZM38.6151 308.967C38.104 307.256 37.2375 305.834 36.0377 304.701C34.838 303.568 33.3938 302.834 31.683 302.479C29.9722 302.123 28.1058 302.257 26.084 302.857C24.0177 303.479 22.3735 304.39 21.1738 305.634C19.9518 306.856 19.1519 308.278 18.7742 309.878C18.3965 311.477 18.4631 313.144 18.9742 314.855C19.4852 316.565 20.3517 317.987 21.5515 319.12C22.7512 320.254 24.1954 321.009 25.884 321.387C27.5726 321.764 29.4612 321.653 31.5274 321.031C33.5493 320.431 35.1712 319.498 36.4155 318.232C37.6597 316.965 38.4595 315.543 38.8372 313.944C39.215 312.344 39.1483 310.677 38.6373 308.967H38.6151Z" fill="white"/>
<path d="M52.4575 263.864C52.7241 267.352 52.5686 270.729 51.9909 274.017C51.391 277.306 50.3467 280.105 48.8137 282.394L40.7929 278.75C41.9483 277.084 42.8148 275.04 43.3702 272.573C43.9257 270.107 44.1256 267.708 43.9479 265.375C43.6591 261.575 42.5926 258.887 40.7485 257.309C38.9266 255.732 36.327 255.065 32.9943 255.332L27.4398 255.776L18.1081 255.821L8.77644 256.687L0.822317 257.309L0.0224609 247.156L30.7947 244.734C37.6601 244.201 42.8592 245.578 46.3919 248.889C49.9246 252.199 51.9465 257.198 52.4797 263.886L52.4575 263.864ZM36.9269 266.752C37.1936 270.174 36.7048 273.351 35.4383 276.239C34.1719 279.128 32.2611 281.505 29.706 283.394C27.1509 285.282 24.107 286.349 20.5299 286.637C16.9083 286.926 13.7089 286.326 10.8872 284.882C8.08768 283.416 5.84364 281.372 4.15505 278.706C2.46647 276.039 1.48886 272.995 1.22225 269.574C0.977845 266.463 1.39999 263.664 2.46647 261.175C3.53294 258.687 5.33262 256.687 7.86549 255.154C10.3984 253.621 13.7089 252.688 17.8415 252.355C21.9074 252.044 25.329 252.444 28.0619 253.555C30.7947 254.665 32.9054 256.376 34.3718 258.642C35.8382 260.931 36.7047 263.619 36.9492 266.73L36.9269 266.752ZM27.973 265.308C27.8175 263.442 27.3064 261.797 26.4399 260.375C25.5734 258.976 24.4181 257.909 22.9739 257.198C21.5297 256.487 19.93 256.198 18.1303 256.332C16.3084 256.465 14.7309 257.021 13.4645 257.931C12.1758 258.865 11.2204 260.087 10.5761 261.62C9.93179 263.153 9.68739 264.841 9.84292 266.73C9.99844 268.618 10.5095 270.24 11.376 271.662C12.2425 273.062 13.3978 274.151 14.7976 274.884C16.2195 275.617 17.8415 275.928 19.6634 275.773C21.4408 275.639 22.9961 275.084 24.307 274.129C25.6179 273.173 26.5955 271.929 27.2398 270.418C27.8841 268.885 28.1285 267.196 27.973 265.308Z" fill="white"/>
<path d="M40.3263 214.006L33.1499 213.073L31.4835 213.561L18.6414 211.895C16.3751 211.606 14.5088 212.073 13.0424 213.295C11.576 214.517 10.665 216.561 10.3095 219.427C10.0651 221.382 10.1096 223.36 10.4873 225.315C10.865 227.292 11.4871 229.003 12.3536 230.447L4.4217 233.313C3.26635 231.136 2.48871 228.581 2.08878 225.648C1.68885 222.715 1.66664 219.805 2.04435 216.894C2.77755 211.295 4.64388 207.118 7.68777 204.363C10.7317 201.608 15.042 200.586 20.641 201.319L41.615 204.03L40.3263 214.006ZM39.4154 225.27C39.0377 228.137 38.2378 230.536 36.9936 232.447C35.7494 234.38 34.2163 235.78 32.3944 236.646C30.5725 237.513 28.6173 237.824 26.5066 237.557C24.3292 237.268 22.4851 236.491 20.9743 235.202C19.4634 233.913 18.397 232.047 17.7748 229.625C17.1527 227.181 17.0639 224.093 17.5527 220.36L18.8191 210.584L25.0402 211.384L23.9293 219.982C23.596 222.493 23.796 224.248 24.4848 225.293C25.1735 226.337 26.1511 226.937 27.3731 227.092C28.7284 227.27 29.8838 226.87 30.8169 225.915C31.7501 224.937 32.35 223.537 32.5722 221.671C32.7944 219.894 32.5722 218.249 31.9279 216.739C31.2613 215.228 30.1504 214.028 28.5951 213.184L33.7275 212.184C35.9938 213.273 37.6157 214.917 38.5711 217.116C39.5265 219.316 39.8153 222.049 39.3932 225.27H39.4154Z" fill="white"/>
<path d="M52.257 170.547L45.1027 168.036L34.7713 164.193L24.2176 161.215L3.86572 154.083L7.42064 143.952L55.6564 160.86L52.257 170.547ZM48.9465 181.656C47.7912 184.945 45.9915 187.655 43.5697 189.766C41.1479 191.899 38.3262 193.254 35.1045 193.832C31.8829 194.409 28.4391 194.076 24.7953 192.81C21.1071 191.521 18.1965 189.633 16.0413 187.144C13.8861 184.656 12.553 181.834 11.9976 178.679C11.4421 175.524 11.7532 172.302 12.9085 168.992C13.9306 166.037 15.4859 163.704 17.5744 161.949C19.6407 160.193 22.218 159.171 25.2841 158.883C28.3502 158.594 31.9496 159.171 36.0599 160.616C40.1259 162.038 43.3031 163.815 45.5471 165.904C47.7912 168.014 49.1909 170.392 49.7241 173.036C50.2574 175.68 49.9908 178.546 48.9021 181.612L48.9465 181.656ZM41.2368 176.99C41.8144 175.346 41.9478 173.702 41.6367 172.102C41.3256 170.48 40.5924 169.014 39.4149 167.703C38.2373 166.392 36.6598 165.392 34.6602 164.682C32.6161 163.971 30.7498 163.771 29.039 164.059C27.3282 164.348 25.8395 165.037 24.5953 166.126C23.3511 167.192 22.4402 168.547 21.8625 170.192C21.2626 171.88 21.1293 173.524 21.4403 175.146C21.7514 176.768 22.4846 178.212 23.6177 179.523C24.7731 180.834 26.3506 181.834 28.3946 182.545C30.3943 183.234 32.2606 183.456 33.9936 183.145C35.7267 182.856 37.2153 182.167 38.4595 181.101C39.7037 180.034 40.6369 178.657 41.2146 176.968L41.2368 176.99Z" fill="white"/>
<path d="M70.8763 134.553L64.6552 130.843L62.9444 130.621L51.8131 124C49.8357 122.822 47.9471 122.511 46.1252 123.044C44.3033 123.6 42.6592 125.111 41.1706 127.599C40.1707 129.288 39.4375 131.132 38.9932 133.065C38.5488 135.02 38.4377 136.842 38.6599 138.53L30.2392 137.997C30.0392 135.531 30.3503 132.887 31.1279 130.043C31.9056 127.199 33.0609 124.511 34.5495 121.978C37.4379 117.134 40.8151 114.046 44.7033 112.713C48.5915 111.402 52.9462 112.18 57.812 115.068L75.9865 125.888L70.8541 134.531L70.8763 134.553ZM65.5662 144.552C64.0776 147.04 62.389 148.906 60.4782 150.195C58.5674 151.461 56.6122 152.15 54.5904 152.217C52.5685 152.306 50.6577 151.795 48.8359 150.706C46.9473 149.573 45.5698 148.129 44.7033 146.351C43.8368 144.574 43.5924 142.441 43.9923 139.952C44.3922 137.464 45.5476 134.598 47.4583 131.354L52.5019 122.889L57.8787 126.088L53.435 133.554C52.1464 135.731 51.6131 137.42 51.8353 138.664C52.0575 139.886 52.7018 140.819 53.7683 141.463C54.9459 142.174 56.1679 142.263 57.4121 141.752C58.6563 141.241 59.7672 140.175 60.7226 138.553C61.6336 137.02 62.1001 135.42 62.1001 133.753C62.1001 132.087 61.5447 130.576 60.456 129.177L65.5662 130.287C67.2103 132.176 68.0546 134.331 68.0546 136.731C68.0546 139.153 67.2325 141.752 65.5662 144.552Z" fill="white"/>
<path d="M52.4126 88.5617C51.1684 90.0948 49.702 90.9613 48.0134 91.2057C46.347 91.4279 44.8584 91.0057 43.5253 89.9393C42.1922 88.8728 41.5034 87.473 41.3923 85.7844C41.2813 84.0959 41.8589 82.4961 43.1254 80.9631C44.3918 79.43 45.8138 78.5413 47.4357 78.2525C49.0576 77.9859 50.524 78.3858 51.8349 79.4522C53.2124 80.5854 53.9679 81.9851 54.1234 83.6737C54.2789 85.3623 53.679 86.9842 52.4126 88.5395V88.5617ZM90.3835 130.799C89.3393 132.087 88.2061 133.198 86.9619 134.154C85.7399 135.109 84.5179 135.775 83.3181 136.153L79.1189 128.977C80.5853 128.577 81.874 127.688 83.0071 126.288C83.8514 125.266 84.1847 124.155 84.0069 122.956C83.8292 121.756 83.0293 120.6 81.6518 119.467L52.9903 95.9826L59.789 87.673L88.4061 111.113C91.7166 113.824 93.5607 116.912 93.9829 120.4C94.3828 123.889 93.183 127.355 90.3613 130.799H90.3835Z" fill="white"/>
<path d="M105.848 44.9031C108.158 43.0812 110.558 41.9258 113.069 41.437C115.579 40.9482 118.09 41.2371 120.623 42.3258C123.156 43.3922 125.577 45.4141 127.91 48.3691L141.086 65.0106L132.665 71.676L120.512 56.3455C118.667 54.0125 116.801 52.6572 114.957 52.324C113.113 51.9685 111.291 52.5017 109.536 53.9015C108.314 54.8791 107.425 56.0122 106.914 57.3453C106.381 58.6784 106.292 60.1003 106.625 61.6556C106.958 63.2109 107.825 64.8328 109.203 66.5658L120.756 81.141L112.335 87.8065L100.204 72.4759C98.36 70.143 96.4937 68.7877 94.6718 68.4322C92.8277 68.0767 91.028 68.5877 89.2728 69.9874C88.0508 70.965 87.1621 72.0982 86.651 73.4313C86.1178 74.7644 86.0289 76.1863 86.3622 77.7416C86.6955 79.2969 87.562 80.9188 88.9395 82.6518L100.471 97.227L92.0501 103.892L69.0542 74.831L77.0972 68.4544L83.385 76.3863L80.03 75.2532C79.4745 72.4759 79.7189 69.8319 80.7632 67.3435C81.8075 64.855 83.5183 62.6554 85.8956 60.7891C88.5618 58.6784 91.4279 57.5008 94.4941 57.2786C97.5602 57.0564 100.515 58.0563 103.359 60.3225L99.7598 61.8556C98.9377 58.8117 99.071 55.79 100.16 52.7683C101.248 49.7466 103.181 47.1249 105.959 44.9253L105.848 44.9031Z" fill="white"/>
<path d="M158.149 60.4114L127.555 31.7721L137.708 27.3284L161.882 50.5687L158.149 60.4114ZM157.349 74.3644C155.594 75.1421 153.728 75.6309 151.75 75.8308C149.795 76.0308 148.04 75.8975 146.529 75.4087L147.062 66.8324C148.107 67.1657 149.217 67.3212 150.373 67.2546C151.528 67.1879 152.595 66.9658 153.55 66.5436C154.928 65.9437 155.905 65.1216 156.438 64.1218C156.972 63.122 157.238 61.7 157.26 59.9004L157.194 54.9679L157.483 53.5682L156.838 18.9522L166.303 14.7974L166.748 57.5452C166.859 60.7669 166.548 63.4553 165.814 65.6327C165.081 67.8101 164.015 69.5875 162.593 70.965C161.171 72.3426 159.416 73.4757 157.372 74.3866L157.349 74.3644Z" fill="white"/>
<path d="M218.894 41.9702C214.984 42.4813 211.407 42.1035 208.163 40.8593C204.919 39.6151 202.253 37.6821 200.12 35.0604C197.987 32.4386 196.698 29.3059 196.231 25.6621C195.765 21.9738 196.231 18.5967 197.609 15.5306C198.987 12.4644 201.097 9.90934 203.919 7.9097C206.741 5.91006 210.096 4.64362 214.028 4.13261C217.894 3.6438 221.471 3.9993 224.715 5.2213C227.981 6.4433 230.647 8.35407 232.736 10.9536C234.825 13.5531 236.113 16.7303 236.602 20.463C237.069 24.1068 236.602 27.4617 235.269 30.5279C233.914 33.594 231.803 36.1491 228.959 38.1709C226.115 40.1928 222.76 41.4814 218.894 41.9702ZM217.761 33.2163C219.538 32.9941 221.071 32.372 222.382 31.3721C223.693 30.3723 224.649 29.0615 225.271 27.4173C225.893 25.7732 226.071 23.929 225.804 21.8183C225.537 19.6854 224.893 17.9079 223.871 16.5082C222.849 15.1084 221.582 14.0864 220.072 13.4643C218.561 12.8199 216.917 12.62 215.139 12.8421C213.362 13.0643 211.829 13.6864 210.518 14.6863C209.207 15.6861 208.229 16.997 207.585 18.5967C206.941 20.1964 206.741 22.0849 207.03 24.2179C207.296 26.3064 207.963 28.0616 208.985 29.4836C210.029 30.9056 211.295 31.9276 212.828 32.5719C214.339 33.2163 215.983 33.4162 217.761 33.194V33.2163Z" fill="white"/>
<path d="M279.639 43.1476C275.751 42.4811 272.418 41.1036 269.685 38.9484C266.952 36.8155 264.952 34.1715 263.686 31.0609C262.42 27.9282 262.086 24.5732 262.708 20.9516C263.331 17.2856 264.752 14.1751 266.974 11.6422C269.196 9.10932 271.951 7.28743 275.217 6.17652C278.506 5.08783 282.083 4.86564 285.971 5.50997C289.815 6.1543 293.125 7.55405 295.88 9.66478C298.635 11.7755 300.657 14.3973 301.901 17.4856C303.146 20.5739 303.457 23.9955 302.835 27.706C302.212 31.3276 300.813 34.4159 298.613 36.9488C296.413 39.4816 293.658 41.3257 290.348 42.4367C287.037 43.5476 283.46 43.792 279.616 43.1476H279.639ZM281.105 34.4603C282.86 34.7492 284.527 34.6158 286.06 34.0382C287.593 33.4605 288.904 32.4829 289.97 31.1054C291.037 29.7278 291.748 27.9948 292.103 25.9063C292.459 23.7734 292.37 21.907 291.792 20.2629C291.237 18.6409 290.303 17.2856 289.037 16.2414C287.771 15.1971 286.26 14.5084 284.482 14.2195C282.727 13.9307 281.061 14.064 279.528 14.6417C277.995 15.2193 276.661 16.1969 275.573 17.53C274.484 18.8853 273.751 20.6184 273.395 22.7513C273.04 24.8398 273.151 26.7062 273.751 28.3725C274.329 30.0389 275.262 31.3942 276.528 32.4385C277.795 33.4827 279.305 34.1715 281.083 34.4603H281.105Z" fill="white"/>
<path d="M304.434 47.5469L323.164 -0.00012207L333.162 3.9325L314.432 51.4795L304.434 47.5469ZM315.477 43.7476L320.52 31.6831L342.605 22.7736L354.536 27.4616L332.896 37.0821L326.03 39.2595L315.454 43.7476H315.477ZM330.118 57.6562L324.164 38.5707L333.496 33.2828L342.227 62.4109L330.118 57.634V57.6562Z" fill="white"/>
<path d="M343.983 64.6106L362.935 32.7719L371.755 38.0154L366.401 47.0137L366.712 43.6588C369 41.9702 371.533 41.1703 374.311 41.2592C377.088 41.3481 379.976 42.2813 382.976 44.0587L377.91 52.5683C377.532 52.3017 377.199 52.0573 376.888 51.8351C376.577 51.6351 376.266 51.4129 375.91 51.213C373.377 49.7021 370.911 49.2133 368.489 49.7244C366.068 50.2354 363.957 52.0128 362.157 55.0567L353.203 70.0985L343.96 64.6106H343.983Z" fill="white"/>
<path d="M381.043 91.1393C377.821 88.3842 375.555 85.3625 374.199 82.0298C372.844 78.6971 372.444 75.3865 372.977 72.0538C373.511 68.7433 374.977 65.6772 377.377 62.8999C379.798 60.0782 382.598 58.123 385.753 57.0787C388.93 56.0122 392.174 55.8345 395.507 56.5455C398.839 57.2565 401.928 58.8117 404.794 61.278C407.549 63.6331 409.526 66.3437 410.748 69.4098C411.97 72.476 412.281 75.6532 411.704 78.9415C411.126 82.2298 409.549 85.3847 406.949 88.4286C406.682 88.7397 406.349 89.0952 405.971 89.4507C405.594 89.8062 405.238 90.1617 404.905 90.4949L382.042 70.9429L386.108 66.1882L404.683 82.0742L400.328 80.8078C401.594 79.3414 402.372 77.8083 402.705 76.2308C403.039 74.6533 402.95 73.0981 402.416 71.5872C401.883 70.0764 400.928 68.7211 399.528 67.5435C398.128 66.3437 396.64 65.6105 395.062 65.2995C393.485 64.9884 391.907 65.1439 390.374 65.7438C388.841 66.3437 387.441 67.388 386.153 68.8766L385.086 70.143C383.775 71.6761 382.953 73.3202 382.642 75.0755C382.331 76.8307 382.531 78.5415 383.242 80.2079C383.953 81.8743 385.153 83.4295 386.841 84.8737C388.33 86.1624 389.841 87.0511 391.374 87.5621C392.885 88.0731 394.507 88.2953 396.24 88.1842L396.551 96.6049C394.018 96.9604 391.418 96.6938 388.797 95.8273C386.175 94.9386 383.575 93.4055 381.043 91.2281V91.1393Z" fill="white"/>
<path d="M405.571 116.468C403.572 114.001 401.972 111.402 400.728 108.647C399.484 105.892 398.773 103.514 398.595 101.47L406.838 99.4041C407.082 101.382 407.682 103.492 408.615 105.714C409.549 107.936 410.726 109.913 412.148 111.669C413.703 113.602 415.036 114.779 416.147 115.201C417.258 115.623 418.236 115.512 419.058 114.846C419.725 114.29 419.991 113.579 419.836 112.668C419.658 111.78 419.258 110.735 418.591 109.558C417.925 108.38 417.192 107.092 416.37 105.714C415.547 104.337 414.792 102.892 414.081 101.404C413.37 99.9151 412.904 98.4043 412.681 96.8712C412.459 95.3382 412.592 93.8496 413.126 92.3832C413.659 90.9168 414.748 89.517 416.392 88.2061C418.214 86.7397 420.258 85.9621 422.502 85.8954C424.746 85.8288 427.079 86.4731 429.501 87.8284C431.922 89.1837 434.255 91.25 436.499 94.0273C438.077 95.9825 439.477 98.1599 440.699 100.537C441.921 102.915 442.654 105.114 442.943 107.136L434.744 109.158C434.433 107.114 433.878 105.248 433.033 103.581C432.189 101.915 431.234 100.426 430.167 99.1153C428.678 97.2489 427.323 96.0936 426.123 95.6492C424.924 95.1827 423.946 95.2937 423.146 95.9158C422.435 96.4935 422.146 97.2489 422.302 98.1599C422.457 99.0708 422.835 100.137 423.457 101.337C424.079 102.537 424.813 103.826 425.635 105.203C426.457 106.581 427.234 108.003 427.923 109.513C428.612 111.024 429.078 112.535 429.301 114.024C429.523 115.512 429.389 117.001 428.901 118.467C428.412 119.934 427.323 121.334 425.679 122.644C423.902 124.089 421.88 124.822 419.636 124.866C417.392 124.911 415.059 124.222 412.659 122.844C410.237 121.467 407.86 119.312 405.527 116.423L405.571 116.468Z" fill="white"/>
<path d="M419.347 134.354L450.985 115.068L456.584 124.244L424.946 143.53L419.347 134.354ZM458.184 116.957C457.162 115.268 456.807 113.602 457.14 111.935C457.473 110.269 458.362 109.003 459.828 108.136C461.295 107.27 462.828 107.047 464.45 107.492C466.072 107.958 467.405 109.025 468.427 110.713C469.449 112.402 469.826 114.046 469.56 115.668C469.293 117.29 468.427 118.534 466.96 119.423C465.427 120.356 463.85 120.601 462.228 120.178C460.606 119.756 459.251 118.668 458.206 116.935L458.184 116.957Z" fill="white"/>
<path d="M436.166 167.725C434.522 163.837 433.833 160.104 434.1 156.527C434.366 152.95 435.499 149.795 437.455 147.062C439.41 144.329 442.076 142.263 445.475 140.819C448.897 139.375 452.274 138.864 455.585 139.33C458.895 139.797 461.895 141.086 464.561 143.196C467.227 145.307 469.293 148.107 470.76 151.573C472.182 154.905 472.737 158.216 472.471 161.504C472.204 164.792 471.071 167.77 469.093 170.458C467.116 173.146 464.294 175.257 460.606 176.835C460.228 176.99 459.784 177.168 459.273 177.324C458.762 177.479 458.295 177.635 457.851 177.768L446.098 150.062L451.874 147.618L461.406 170.125L458.073 167.059C459.851 166.303 461.25 165.303 462.25 164.015C463.25 162.748 463.85 161.304 464.05 159.727C464.25 158.149 464.005 156.505 463.272 154.816C462.561 153.128 461.561 151.795 460.273 150.817C458.984 149.84 457.518 149.284 455.896 149.129C454.252 148.973 452.541 149.284 450.719 150.062L449.208 150.706C447.342 151.506 445.875 152.595 444.809 154.017C443.742 155.439 443.165 157.06 443.054 158.882C442.943 160.704 443.32 162.615 444.187 164.637C444.964 166.459 445.92 167.925 447.031 169.081C448.142 170.236 449.519 171.125 451.097 171.813L447.631 179.501C445.187 178.679 442.987 177.301 441.032 175.346C439.077 173.391 437.455 170.858 436.144 167.77L436.166 167.725Z" fill="white"/>
<path d="M445.209 194.587C444.72 192.721 444.92 191.032 445.809 189.521C446.698 188.011 447.964 187.033 449.608 186.611C451.297 186.166 452.852 186.389 454.318 187.3C455.785 188.211 456.74 189.588 457.229 191.454C457.74 193.365 457.562 195.054 456.74 196.542C455.918 198.009 454.652 198.986 452.985 199.408C451.341 199.853 449.764 199.631 448.253 198.764C446.742 197.898 445.742 196.52 445.231 194.609L445.209 194.587ZM460.851 186.078L490.756 176.013L494 188.41L463.006 194.343L460.828 186.078H460.851Z" fill="white"/>
</g>
<defs>
<clipPath id="clip0_127_466">
<rect width="494" height="387.952" fill="white"/>
</clipPath>
</defs>
</svg>
