<svg width="155" height="69" viewBox="0 0 155 69" fill="none" xmlns="http://www.w3.org/2000/svg">
<path d="M8.74718 43V4.91691L12.9125 9.08225H0.416504V1.34662H18.387V43H8.74718Z" fill="white"/>
<path d="M43.4743 43.7141C40.0627 43.7141 37.0081 42.881 34.3105 41.2149C31.613 39.509 29.4906 37.0495 27.9435 33.8363C26.3964 30.623 25.6228 26.7353 25.6228 22.1733C25.6228 17.6113 26.3964 13.7236 27.9435 10.5104C29.4906 7.29711 31.613 4.85741 34.3105 3.19127C37.0081 1.48547 40.0627 0.632568 43.4743 0.632568C46.9256 0.632568 49.9801 1.48547 52.638 3.19127C55.3356 4.85741 57.4579 7.29711 59.005 10.5104C60.5522 13.7236 61.3257 17.6113 61.3257 22.1733C61.3257 26.7353 60.5522 30.623 59.005 33.8363C57.4579 37.0495 55.3356 39.509 52.638 41.2149C49.9801 42.881 46.9256 43.7141 43.4743 43.7141ZM43.4743 35.5619C45.1007 35.5619 46.509 35.1057 47.6991 34.1933C48.9289 33.2809 49.881 31.8329 50.5554 29.8494C51.2694 27.8659 51.6264 25.3072 51.6264 22.1733C51.6264 19.0394 51.2694 16.4807 50.5554 14.4972C49.881 12.5137 48.9289 11.0657 47.6991 10.1533C46.509 9.24093 45.1007 8.78473 43.4743 8.78473C41.8875 8.78473 40.4792 9.24093 39.2494 10.1533C38.0593 11.0657 37.1073 12.5137 36.3932 14.4972C35.7188 16.4807 35.3816 19.0394 35.3816 22.1733C35.3816 25.3072 35.7188 27.8659 36.3932 29.8494C37.1073 31.8329 38.0593 33.2809 39.2494 34.1933C40.4792 35.1057 41.8875 35.5619 43.4743 35.5619Z" fill="white"/>
<path d="M83.8608 43.7141C80.4492 43.7141 77.3947 42.881 74.6971 41.2149C71.9996 39.509 69.8772 37.0495 68.3301 33.8363C66.783 30.623 66.0094 26.7353 66.0094 22.1733C66.0094 17.6113 66.783 13.7236 68.3301 10.5104C69.8772 7.29711 71.9996 4.85741 74.6971 3.19127C77.3947 1.48547 80.4492 0.632568 83.8608 0.632568C87.3121 0.632568 90.3667 1.48547 93.0246 3.19127C95.7221 4.85741 97.8445 7.29711 99.3916 10.5104C100.939 13.7236 101.712 17.6113 101.712 22.1733C101.712 26.7353 100.939 30.623 99.3916 33.8363C97.8445 37.0495 95.7221 39.509 93.0246 41.2149C90.3667 42.881 87.3121 43.7141 83.8608 43.7141ZM83.8608 35.5619C85.4873 35.5619 86.8956 35.1057 88.0857 34.1933C89.3155 33.2809 90.2675 31.8329 90.9419 29.8494C91.656 27.8659 92.013 25.3072 92.013 22.1733C92.013 19.0394 91.656 16.4807 90.9419 14.4972C90.2675 12.5137 89.3155 11.0657 88.0857 10.1533C86.8956 9.24093 85.4873 8.78473 83.8608 8.78473C82.2741 8.78473 80.8658 9.24093 79.636 10.1533C78.4459 11.0657 77.4938 12.5137 76.7798 14.4972C76.1054 16.4807 75.7682 19.0394 75.7682 22.1733C75.7682 25.3072 76.1054 27.8659 76.7798 29.8494C77.4938 31.8329 78.4459 33.2809 79.636 34.1933C80.8658 35.1057 82.2741 35.5619 83.8608 35.5619Z" fill="white"/>
<path d="M112.406 43L140.849 1.34662H147.93L119.487 43H112.406ZM116.036 23.8394C114.013 23.8394 112.227 23.3832 110.68 22.4708C109.133 21.5188 107.903 20.1898 106.991 18.484C106.118 16.7385 105.682 14.6955 105.682 12.355C105.682 10.0145 106.118 7.99133 106.991 6.28552C107.903 4.57972 109.133 3.25078 110.68 2.2987C112.227 1.34663 114.013 0.870588 116.036 0.870588C118.059 0.870588 119.844 1.34663 121.391 2.2987C122.938 3.25078 124.148 4.57972 125.021 6.28552C125.894 7.99133 126.33 10.0145 126.33 12.355C126.33 14.6955 125.894 16.7385 125.021 18.484C124.148 20.1898 122.938 21.5188 121.391 22.4708C119.844 23.3832 118.059 23.8394 116.036 23.8394ZM116.036 18.96C117.345 18.96 118.396 18.4245 119.189 17.3534C119.983 16.2427 120.38 14.5765 120.38 12.355C120.38 10.1335 119.983 8.4872 119.189 7.41611C118.396 6.30536 117.345 5.74998 116.036 5.74998C114.766 5.74998 113.715 6.30536 112.882 7.41611C112.089 8.4872 111.692 10.1335 111.692 12.355C111.692 14.5369 112.089 16.1832 112.882 17.2939C113.715 18.4047 114.766 18.96 116.036 18.96ZM144.301 43.476C142.317 43.476 140.532 43.0198 138.945 42.1074C137.398 41.1553 136.188 39.8264 135.315 38.1206C134.443 36.3751 134.006 34.3321 134.006 31.9916C134.006 29.6511 134.443 27.6279 135.315 25.9221C136.188 24.2163 137.398 22.8874 138.945 21.9353C140.532 20.9832 142.317 20.5072 144.301 20.5072C146.363 20.5072 148.168 20.9832 149.715 21.9353C151.263 22.8874 152.473 24.2163 153.345 25.9221C154.218 27.6279 154.654 29.6511 154.654 31.9916C154.654 34.3321 154.218 36.3751 153.345 38.1206C152.473 39.8264 151.263 41.1553 149.715 42.1074C148.168 43.0198 146.363 43.476 144.301 43.476ZM144.301 38.5966C145.61 38.5966 146.661 38.0611 147.454 36.99C148.248 35.8792 148.644 34.2131 148.644 31.9916C148.644 29.8098 148.248 28.1635 147.454 27.0527C146.661 25.9419 145.61 25.3866 144.301 25.3866C143.031 25.3866 141.98 25.9419 141.147 27.0527C140.353 28.1238 139.957 29.7701 139.957 31.9916C139.957 34.2131 140.353 35.8792 141.147 36.99C141.98 38.0611 143.031 38.5966 144.301 38.5966Z" fill="white"/>
<path d="M12.4412 68.2948C10.8296 68.2948 9.34566 68.0295 7.9895 67.4988C6.63335 66.9681 5.45408 66.2311 4.4517 65.2877C3.44933 64.3246 2.67297 63.2043 2.12265 61.9268C1.57233 60.6296 1.29716 59.2145 1.29716 57.6814C1.29716 56.1484 1.57233 54.7431 2.12265 53.4655C2.67297 52.1683 3.44933 51.048 4.4517 50.1046C5.45408 49.1416 6.63335 48.3947 7.9895 47.864C9.34566 47.3333 10.8197 47.068 12.4118 47.068C14.0234 47.068 15.4975 47.3333 16.834 47.864C18.1902 48.3947 19.3694 49.1416 20.3718 50.1046C21.3742 51.048 22.1505 52.1683 22.7009 53.4655C23.2512 54.7431 23.5263 56.1484 23.5263 57.6814C23.5263 59.2145 23.2512 60.6296 22.7009 61.9268C22.1505 63.224 21.3742 64.3443 20.3718 65.2877C19.3694 66.2311 18.1902 66.9681 16.834 67.4988C15.4975 68.0295 14.0332 68.2948 12.4412 68.2948ZM12.4118 64.9339C13.4534 64.9339 14.4165 64.757 15.301 64.4032C16.1854 64.0494 16.9519 63.5483 17.6005 62.8997C18.2491 62.2314 18.7503 61.4649 19.1041 60.6001C19.4775 59.7156 19.6642 58.7428 19.6642 57.6814C19.6642 56.6201 19.4775 55.657 19.1041 54.7922C18.7503 53.9078 18.2491 53.1412 17.6005 52.4926C16.9519 51.8244 16.1854 51.3134 15.301 50.9596C14.4165 50.6058 13.4534 50.4289 12.4118 50.4289C11.3701 50.4289 10.407 50.6058 9.52255 50.9596C8.65775 51.3134 7.89123 51.8244 7.22298 52.4926C6.57438 53.1412 6.06337 53.9078 5.68993 54.7922C5.33615 55.657 5.15926 56.6201 5.15926 57.6814C5.15926 58.7231 5.33615 59.6862 5.68993 60.5706C6.06337 61.4551 6.57438 62.2314 7.22298 62.8997C7.87158 63.5483 8.6381 64.0494 9.52255 64.4032C10.407 64.757 11.3701 64.9339 12.4118 64.9339Z" fill="white"/>
<path d="M36.109 68.2948C34.5367 68.2948 33.0724 68.0393 31.7163 67.5283C30.3798 66.9976 29.2103 66.2606 28.2079 65.3172C27.2252 64.3541 26.4587 63.224 25.9084 61.9268C25.358 60.6296 25.0829 59.2145 25.0829 57.6814C25.0829 56.1484 25.358 54.7332 25.9084 53.4361C26.4587 52.1389 27.235 51.0186 28.2374 50.0751C29.2398 49.1121 30.4092 48.375 31.7457 47.864C33.0822 47.3333 34.5465 47.068 36.1385 47.068C37.8288 47.068 39.3717 47.3628 40.7671 47.9525C42.1626 48.5224 43.3419 49.3774 44.3049 50.5174L41.8285 52.8464C41.0816 52.0406 40.2463 51.4411 39.3225 51.048C38.3988 50.6353 37.3964 50.4289 36.3154 50.4289C35.2344 50.4289 34.2419 50.6058 33.3377 50.9596C32.4533 51.3134 31.6769 51.8146 31.0087 52.4632C30.3601 53.1118 29.8491 53.8783 29.4756 54.7627C29.1219 55.6472 28.945 56.6201 28.945 57.6814C28.945 58.7428 29.1219 59.7156 29.4756 60.6001C29.8491 61.4845 30.3601 62.2511 31.0087 62.8997C31.6769 63.5483 32.4533 64.0494 33.3377 64.4032C34.2419 64.757 35.2344 64.9339 36.3154 64.9339C37.3964 64.9339 38.3988 64.7374 39.3225 64.3443C40.2463 63.9315 41.0816 63.3124 41.8285 62.4869L44.3049 64.8455C43.3419 65.9658 42.1626 66.8207 40.7671 67.4104C39.3717 68 37.819 68.2948 36.109 68.2948Z" fill="white"/>
<path d="M61.4504 47.3628H65.283V68H61.4504V47.3628ZM50.778 68H46.9454V47.3628H50.778V68ZM61.7452 59.1555H50.4537V55.883H61.7452V59.1555Z" fill="white"/>
<path d="M69.781 68V47.3628H78.2717C80.0996 47.3628 81.6621 47.6576 82.9593 48.2473C84.2762 48.8369 85.2884 49.6821 85.9959 50.7827C86.7035 51.8834 87.0573 53.1904 87.0573 54.7038C87.0573 56.2172 86.7035 57.5242 85.9959 58.6248C85.2884 59.7058 84.2762 60.5411 82.9593 61.1308C81.6621 61.7007 80.0996 61.9857 78.2717 61.9857H71.9037L73.6136 60.2463V68H69.781ZM83.2836 68L78.0654 60.5117H82.1633L87.411 68H83.2836ZM73.6136 60.6591L71.9037 58.8312H78.0948C79.7851 58.8312 81.0528 58.4676 81.898 57.7404C82.7628 57.0132 83.1952 56.001 83.1952 54.7038C83.1952 53.3869 82.7628 52.3747 81.898 51.6672C81.0528 50.9596 79.7851 50.6058 78.0948 50.6058H71.9037L73.6136 48.719V60.6591Z" fill="white"/>
<path d="M99.9834 68.2948C98.3717 68.2948 96.8878 68.0295 95.5316 67.4988C94.1755 66.9681 92.9962 66.2311 91.9938 65.2877C90.9914 64.3246 90.2151 63.2043 89.6648 61.9268C89.1145 60.6296 88.8393 59.2145 88.8393 57.6814C88.8393 56.1484 89.1145 54.7431 89.6648 53.4655C90.2151 52.1683 90.9914 51.048 91.9938 50.1046C92.9962 49.1416 94.1755 48.3947 95.5316 47.864C96.8878 47.3333 98.3619 47.068 99.9539 47.068C101.566 47.068 103.04 47.3333 104.376 47.864C105.732 48.3947 106.912 49.1416 107.914 50.1046C108.916 51.048 109.693 52.1683 110.243 53.4655C110.793 54.7431 111.068 56.1484 111.068 57.6814C111.068 59.2145 110.793 60.6296 110.243 61.9268C109.693 63.224 108.916 64.3443 107.914 65.2877C106.912 66.2311 105.732 66.9681 104.376 67.4988C103.04 68.0295 101.575 68.2948 99.9834 68.2948ZM99.9539 64.9339C100.996 64.9339 101.959 64.757 102.843 64.4032C103.728 64.0494 104.494 63.5483 105.143 62.8997C105.791 62.2314 106.292 61.4649 106.646 60.6001C107.02 59.7156 107.206 58.7428 107.206 57.6814C107.206 56.6201 107.02 55.657 106.646 54.7922C106.292 53.9078 105.791 53.1412 105.143 52.4926C104.494 51.8244 103.728 51.3134 102.843 50.9596C101.959 50.6058 100.996 50.4289 99.9539 50.4289C98.9122 50.4289 97.9491 50.6058 97.0647 50.9596C96.1999 51.3134 95.4334 51.8244 94.7651 52.4926C94.1165 53.1412 93.6055 53.9078 93.2321 54.7922C92.8783 55.657 92.7014 56.6201 92.7014 57.6814C92.7014 58.7231 92.8783 59.6862 93.2321 60.5706C93.6055 61.4551 94.1165 62.2314 94.7651 62.8997C95.4137 63.5483 96.1802 64.0494 97.0647 64.4032C97.9491 64.757 98.9122 64.9339 99.9539 64.9339Z" fill="white"/>
<path d="M114.099 68V47.3628H117.254L130.196 63.2534H128.634V47.3628H132.437V68H129.282L116.34 52.1094H117.902V68H114.099Z" fill="white"/>
<path d="M142.006 68V59.8336L142.861 62.1921L133.898 47.3628H137.996L145.19 59.3029H142.89L150.143 47.3628H153.916L144.954 62.1921L145.838 59.8336V68H142.006Z" fill="white"/>
</svg>
