<svg width="754" height="67" viewBox="0 0 754 67" fill="none" xmlns="http://www.w3.org/2000/svg">
<path d="M13.2299 65V7.40004L19.5299 13.7H0.629883V2.00004H27.8099V65H13.2299Z" fill="white"/>
<path d="M65.754 66.08C60.594 66.08 55.974 64.82 51.894 62.3C47.814 59.72 44.604 56 42.264 51.14C39.924 46.28 38.754 40.4 38.754 33.5C38.754 26.6 39.924 20.72 42.264 15.86C44.604 11 47.814 7.31004 51.894 4.79004C55.974 2.21004 60.594 0.920044 65.754 0.920044C70.974 0.920044 75.594 2.21004 79.614 4.79004C83.694 7.31004 86.904 11 89.244 15.86C91.584 20.72 92.754 26.6 92.754 33.5C92.754 40.4 91.584 46.28 89.244 51.14C86.904 56 83.694 59.72 79.614 62.3C75.594 64.82 70.974 66.08 65.754 66.08ZM65.754 53.75C68.214 53.75 70.344 53.06 72.144 51.68C74.004 50.3 75.444 48.11 76.464 45.11C77.544 42.11 78.084 38.24 78.084 33.5C78.084 28.76 77.544 24.89 76.464 21.89C75.444 18.89 74.004 16.7 72.144 15.32C70.344 13.94 68.214 13.25 65.754 13.25C63.354 13.25 61.224 13.94 59.364 15.32C57.564 16.7 56.124 18.89 55.044 21.89C54.024 24.89 53.514 28.76 53.514 33.5C53.514 38.24 54.024 42.11 55.044 45.11C56.124 48.11 57.564 50.3 59.364 51.68C61.224 53.06 63.354 53.75 65.754 53.75Z" fill="white"/>
<path d="M126.838 66.08C121.678 66.08 117.058 64.82 112.978 62.3C108.898 59.72 105.688 56 103.348 51.14C101.008 46.28 99.838 40.4 99.838 33.5C99.838 26.6 101.008 20.72 103.348 15.86C105.688 11 108.898 7.31004 112.978 4.79004C117.058 2.21004 121.678 0.920044 126.838 0.920044C132.058 0.920044 136.678 2.21004 140.698 4.79004C144.778 7.31004 147.988 11 150.328 15.86C152.668 20.72 153.838 26.6 153.838 33.5C153.838 40.4 152.668 46.28 150.328 51.14C147.988 56 144.778 59.72 140.698 62.3C136.678 64.82 132.058 66.08 126.838 66.08ZM126.838 53.75C129.298 53.75 131.428 53.06 133.228 51.68C135.088 50.3 136.528 48.11 137.548 45.11C138.628 42.11 139.168 38.24 139.168 33.5C139.168 28.76 138.628 24.89 137.548 21.89C136.528 18.89 135.088 16.7 133.228 15.32C131.428 13.94 129.298 13.25 126.838 13.25C124.438 13.25 122.308 13.94 120.448 15.32C118.648 16.7 117.208 18.89 116.128 21.89C115.108 24.89 114.598 28.76 114.598 33.5C114.598 38.24 115.108 42.11 116.128 45.11C117.208 48.11 118.648 50.3 120.448 51.68C122.308 53.06 124.438 53.75 126.838 53.75Z" fill="white"/>
<path d="M170.012 65L213.032 2.00004H223.742L180.722 65H170.012ZM175.502 36.02C172.442 36.02 169.742 35.33 167.402 33.95C165.062 32.51 163.202 30.5 161.822 27.92C160.502 25.28 159.842 22.19 159.842 18.65C159.842 15.11 160.502 12.05 161.822 9.47004C163.202 6.89004 165.062 4.88004 167.402 3.44004C169.742 2.00005 172.442 1.28004 175.502 1.28004C178.562 1.28004 181.262 2.00005 183.602 3.44004C185.942 4.88004 187.772 6.89004 189.092 9.47004C190.412 12.05 191.072 15.11 191.072 18.65C191.072 22.19 190.412 25.28 189.092 27.92C187.772 30.5 185.942 32.51 183.602 33.95C181.262 35.33 178.562 36.02 175.502 36.02ZM175.502 28.64C177.482 28.64 179.072 27.83 180.272 26.21C181.472 24.53 182.072 22.01 182.072 18.65C182.072 15.29 181.472 12.8 180.272 11.18C179.072 9.50004 177.482 8.66004 175.502 8.66004C173.582 8.66004 171.992 9.50004 170.732 11.18C169.532 12.8 168.932 15.29 168.932 18.65C168.932 21.95 169.532 24.44 170.732 26.12C171.992 27.8 173.582 28.64 175.502 28.64ZM218.252 65.72C215.252 65.72 212.552 65.03 210.152 63.65C207.812 62.21 205.982 60.2001 204.662 57.62C203.342 54.98 202.682 51.89 202.682 48.35C202.682 44.81 203.342 41.75 204.662 39.17C205.982 36.59 207.812 34.58 210.152 33.14C212.552 31.7 215.252 30.98 218.252 30.98C221.372 30.98 224.102 31.7 226.442 33.14C228.782 34.58 230.612 36.59 231.932 39.17C233.252 41.75 233.912 44.81 233.912 48.35C233.912 51.89 233.252 54.98 231.932 57.62C230.612 60.2001 228.782 62.21 226.442 63.65C224.102 65.03 221.372 65.72 218.252 65.72ZM218.252 58.34C220.232 58.34 221.822 57.53 223.022 55.91C224.222 54.23 224.822 51.71 224.822 48.35C224.822 45.05 224.222 42.56 223.022 40.88C221.822 39.2 220.232 38.36 218.252 38.36C216.332 38.36 214.742 39.2 213.482 40.88C212.282 42.5 211.682 44.99 211.682 48.35C211.682 51.71 212.282 54.23 213.482 55.91C214.742 57.53 216.332 58.34 218.252 58.34Z" fill="white"/>
<path d="M299.896 66.08C294.916 66.08 290.296 65.2701 286.036 63.65C281.836 62.03 278.176 59.75 275.056 56.81C271.996 53.87 269.596 50.42 267.856 46.46C266.176 42.5 265.336 38.18 265.336 33.5C265.336 28.82 266.176 24.5 267.856 20.54C269.596 16.58 272.026 13.13 275.146 10.19C278.266 7.25004 281.926 4.97004 286.126 3.35004C290.326 1.73004 294.886 0.920044 299.806 0.920044C304.786 0.920044 309.346 1.73004 313.486 3.35004C317.686 4.97004 321.316 7.25004 324.376 10.19C327.496 13.13 329.926 16.58 331.666 20.54C333.406 24.44 334.276 28.76 334.276 33.5C334.276 38.18 333.406 42.53 331.666 46.55C329.926 50.51 327.496 53.96 324.376 56.9C321.316 59.78 317.686 62.03 313.486 63.65C309.346 65.2701 304.816 66.08 299.896 66.08ZM299.806 53.66C302.626 53.66 305.206 53.18 307.546 52.22C309.946 51.26 312.046 49.88 313.846 48.08C315.646 46.28 317.026 44.15 317.986 41.69C319.006 39.23 319.516 36.5 319.516 33.5C319.516 30.5 319.006 27.77 317.986 25.31C317.026 22.85 315.646 20.72 313.846 18.92C312.106 17.12 310.036 15.74 307.636 14.78C305.236 13.82 302.626 13.34 299.806 13.34C296.986 13.34 294.376 13.82 291.976 14.78C289.636 15.74 287.566 17.12 285.766 18.92C283.966 20.72 282.556 22.85 281.536 25.31C280.576 27.77 280.096 30.5 280.096 33.5C280.096 36.44 280.576 39.17 281.536 41.69C282.556 44.15 283.936 46.28 285.676 48.08C287.476 49.88 289.576 51.26 291.976 52.22C294.376 53.18 296.986 53.66 299.806 53.66Z" fill="white"/>
<path d="M375.384 66.08C370.524 66.08 365.994 65.3 361.794 63.74C357.654 62.12 354.054 59.84 350.994 56.9C347.934 53.96 345.534 50.51 343.794 46.55C342.114 42.59 341.274 38.24 341.274 33.5C341.274 28.76 342.114 24.41 343.794 20.45C345.534 16.49 347.934 13.04 350.994 10.1C354.114 7.16004 357.744 4.91004 361.884 3.35004C366.024 1.73004 370.554 0.920044 375.474 0.920044C380.934 0.920044 385.854 1.88004 390.234 3.80005C394.674 5.66004 398.394 8.42004 401.394 12.08L392.034 20.72C389.874 18.26 387.474 16.43 384.834 15.23C382.194 13.97 379.314 13.34 376.194 13.34C373.254 13.34 370.554 13.82 368.094 14.78C365.634 15.74 363.504 17.12 361.704 18.92C359.904 20.72 358.494 22.85 357.474 25.31C356.514 27.77 356.034 30.5 356.034 33.5C356.034 36.5 356.514 39.23 357.474 41.69C358.494 44.15 359.904 46.28 361.704 48.08C363.504 49.88 365.634 51.26 368.094 52.22C370.554 53.18 373.254 53.66 376.194 53.66C379.314 53.66 382.194 53.06 384.834 51.86C387.474 50.6 389.874 48.71 392.034 46.19L401.394 54.83C398.394 58.49 394.674 61.28 390.234 63.2C385.854 65.12 380.904 66.08 375.384 66.08Z" fill="white"/>
<path d="M454.439 2.00004H469.019V65H454.439V2.00004ZM425.819 65H411.239V2.00004H425.819V65ZM455.519 39.17H424.739V26.84H455.519V39.17Z" fill="white"/>
<path d="M483.925 65V2.00004H511.195C516.835 2.00004 521.695 2.93004 525.775 4.79004C529.855 6.59004 533.005 9.20004 535.225 12.62C537.445 16.04 538.555 20.12 538.555 24.86C538.555 29.54 537.445 33.59 535.225 37.01C533.005 40.37 529.855 42.95 525.775 44.75C521.695 46.55 516.835 47.45 511.195 47.45H492.025L498.505 41.06V65H483.925ZM523.975 65L508.225 42.14H523.795L539.725 65H523.975ZM498.505 42.68L492.025 35.84H510.385C514.885 35.84 518.245 34.88 520.465 32.96C522.685 30.98 523.795 28.28 523.795 24.86C523.795 21.38 522.685 18.68 520.465 16.76C518.245 14.84 514.885 13.88 510.385 13.88H492.025L498.505 6.95004V42.68Z" fill="white"/>
<path d="M580.707 66.08C575.727 66.08 571.107 65.2701 566.847 63.65C562.647 62.03 558.987 59.75 555.867 56.81C552.807 53.87 550.407 50.42 548.667 46.46C546.987 42.5 546.147 38.18 546.147 33.5C546.147 28.82 546.987 24.5 548.667 20.54C550.407 16.58 552.837 13.13 555.957 10.19C559.077 7.25004 562.737 4.97004 566.937 3.35004C571.137 1.73004 575.697 0.920044 580.617 0.920044C585.597 0.920044 590.157 1.73004 594.297 3.35004C598.497 4.97004 602.127 7.25004 605.187 10.19C608.307 13.13 610.737 16.58 612.477 20.54C614.217 24.44 615.087 28.76 615.087 33.5C615.087 38.18 614.217 42.53 612.477 46.55C610.737 50.51 608.307 53.96 605.187 56.9C602.127 59.78 598.497 62.03 594.297 63.65C590.157 65.2701 585.627 66.08 580.707 66.08ZM580.617 53.66C583.437 53.66 586.017 53.18 588.357 52.22C590.757 51.26 592.857 49.88 594.657 48.08C596.457 46.28 597.837 44.15 598.797 41.69C599.817 39.23 600.327 36.5 600.327 33.5C600.327 30.5 599.817 27.77 598.797 25.31C597.837 22.85 596.457 20.72 594.657 18.92C592.917 17.12 590.847 15.74 588.447 14.78C586.047 13.82 583.437 13.34 580.617 13.34C577.797 13.34 575.187 13.82 572.787 14.78C570.447 15.74 568.377 17.12 566.577 18.92C564.777 20.72 563.367 22.85 562.347 25.31C561.387 27.77 560.907 30.5 560.907 33.5C560.907 36.44 561.387 39.17 562.347 41.69C563.367 44.15 564.747 46.28 566.487 48.08C568.287 49.88 570.387 51.26 572.787 52.22C575.187 53.18 577.797 53.66 580.617 53.66Z" fill="white"/>
<path d="M626.044 65V2.00004H638.104L675.274 47.36H669.424V2.00004H683.824V65H671.854L634.594 19.64H640.444V65H626.044Z" fill="white"/>
<path d="M714.39 65V39.26L717.72 48.08L690 2.00004H705.48L726.72 37.37H717.81L739.14 2.00004H753.45L725.73 48.08L728.97 39.26V65H714.39Z" fill="white"/>
</svg>
