<svg width="182" height="80" viewBox="0 0 182 80" fill="none" xmlns="http://www.w3.org/2000/svg">
<path d="M0.23999 50.11H4.76999C5.23999 50.11 5.62999 50.22 5.93999 50.44C6.24999 50.66 6.45999 50.96 6.56999 51.33L11.5 68.68C11.62 69.11 11.73 69.57 11.83 70.07C11.93 70.57 12.03 71.1 12.12 71.66C12.23 71.1 12.34 70.57 12.47 70.07C12.6 69.57 12.73 69.1 12.88 68.68L18.58 51.33C18.69 51.02 18.9 50.74 19.21 50.49C19.52 50.24 19.91 50.11 20.36 50.11H21.94C22.41 50.11 22.8 50.22 23.1 50.44C23.41 50.66 23.62 50.96 23.74 51.33L29.4 68.68C29.69 69.54 29.95 70.49 30.16 71.53C30.25 71.01 30.35 70.51 30.45 70.03C30.55 69.55 30.65 69.1 30.76 68.69L35.69 51.34C35.78 51.01 35.99 50.72 36.31 50.48C36.63 50.24 37.02 50.12 37.47 50.12H41.7L32.69 79.13H27.82L21.48 59.31C21.4 59.06 21.32 58.78 21.23 58.49C21.14 58.2 21.06 57.88 20.98 57.55C20.9 57.88 20.82 58.2 20.73 58.49C20.64 58.78 20.56 59.06 20.48 59.31L14.08 79.13H9.20999L0.23999 50.11Z" fill="white"/>
<path d="M62.75 55.39C62.6 55.68 62.43 55.89 62.24 56.01C62.05 56.13 61.82 56.19 61.55 56.19C61.28 56.19 60.98 56.09 60.65 55.88C60.32 55.67 59.92 55.44 59.47 55.19C59.02 54.94 58.48 54.71 57.87 54.5C57.26 54.29 56.54 54.19 55.71 54.19C54.96 54.19 54.31 54.28 53.75 54.46C53.19 54.64 52.73 54.89 52.35 55.21C51.97 55.53 51.68 55.91 51.5 56.36C51.31 56.81 51.22 57.3 51.22 57.83C51.22 58.51 51.41 59.08 51.79 59.54C52.17 60 52.68 60.38 53.3 60.7C53.93 61.02 54.64 61.31 55.45 61.56C56.25 61.81 57.07 62.08 57.91 62.37C58.75 62.66 59.56 62.99 60.37 63.37C61.17 63.75 61.89 64.23 62.52 64.81C63.15 65.39 63.65 66.1 64.03 66.95C64.41 67.79 64.6 68.82 64.6 70.02C64.6 71.33 64.38 72.56 63.93 73.7C63.48 74.84 62.83 75.84 61.96 76.69C61.1 77.54 60.04 78.21 58.8 78.7C57.56 79.19 56.13 79.43 54.53 79.43C53.61 79.43 52.7 79.34 51.8 79.16C50.9 78.98 50.05 78.72 49.22 78.39C48.4 78.06 47.63 77.65 46.91 77.19C46.19 76.72 45.56 76.2 44.99 75.63L46.55 73.04C46.7 72.85 46.87 72.7 47.08 72.57C47.29 72.44 47.52 72.38 47.77 72.38C48.1 72.38 48.47 72.52 48.85 72.79C49.24 73.06 49.7 73.37 50.22 73.7C50.74 74.03 51.37 74.34 52.09 74.61C52.81 74.88 53.67 75.02 54.67 75.02C56.21 75.02 57.4 74.66 58.24 73.93C59.08 73.2 59.5 72.15 59.5 70.79C59.5 70.03 59.31 69.41 58.93 68.92C58.55 68.44 58.04 68.03 57.42 67.71C56.79 67.38 56.08 67.11 55.27 66.88C54.47 66.65 53.65 66.4 52.82 66.14C51.99 65.88 51.18 65.55 50.37 65.18C49.57 64.81 48.85 64.32 48.22 63.72C47.59 63.12 47.09 62.37 46.71 61.46C46.33 60.56 46.14 59.44 46.14 58.12C46.14 57.06 46.35 56.03 46.77 55.03C47.19 54.03 47.81 53.14 48.62 52.36C49.43 51.58 50.42 50.96 51.6 50.49C52.78 50.02 54.12 49.79 55.63 49.79C57.34 49.79 58.92 50.06 60.36 50.59C61.8 51.13 63.03 51.87 64.05 52.84L62.73 55.39H62.75Z" fill="white"/>
<path d="M91.45 50.11V54.54H82.72V79.11H77.32V54.54H68.55V50.11H91.44H91.45Z" fill="white"/>
<path d="M110.07 67.84V79.11H104.67V67.84L94.1001 50.11H98.8501C99.3201 50.11 99.6901 50.22 99.9601 50.45C100.23 50.68 100.46 50.97 100.65 51.31L105.97 61C106.28 61.57 106.54 62.12 106.77 62.64C107 63.15 107.2 63.66 107.39 64.15C107.56 63.64 107.76 63.13 107.98 62.62C108.2 62.11 108.46 61.57 108.77 61.01L114.05 51.32C114.2 51.03 114.42 50.75 114.71 50.5C115 50.25 115.38 50.12 115.83 50.12H120.6L110.05 67.85L110.07 67.84Z" fill="white"/>
<path d="M151.47 64.61C151.47 66.74 151.12 68.69 150.41 70.47C149.7 72.25 148.71 73.78 147.42 75.06C146.14 76.34 144.59 77.34 142.79 78.05C140.98 78.76 138.99 79.11 136.79 79.11H125.72V50.1H136.79C138.98 50.1 140.98 50.46 142.79 51.17C144.6 51.89 146.14 52.88 147.42 54.16C148.7 55.44 149.7 56.97 150.41 58.74C151.12 60.52 151.47 62.47 151.47 64.6V64.61ZM145.95 64.61C145.95 63.02 145.74 61.59 145.31 60.33C144.88 59.07 144.27 58 143.48 57.12C142.69 56.24 141.73 55.57 140.6 55.1C139.47 54.63 138.2 54.4 136.78 54.4H131.14V74.82H136.78C138.2 74.82 139.47 74.59 140.6 74.12C141.73 73.65 142.69 72.98 143.48 72.1C144.27 71.22 144.88 70.15 145.31 68.89C145.74 67.63 145.95 66.2 145.95 64.61Z" fill="white"/>
<path d="M169.66 74.76C170.7 74.76 171.64 74.59 172.46 74.24C173.28 73.89 173.98 73.4 174.55 72.78C175.12 72.15 175.55 71.39 175.85 70.49C176.15 69.59 176.3 68.59 176.3 67.48V50.11H181.7V67.48C181.7 69.2 181.42 70.8 180.87 72.26C180.32 73.72 179.52 74.99 178.47 76.05C177.43 77.11 176.16 77.94 174.68 78.54C173.2 79.13 171.52 79.43 169.66 79.43C167.8 79.43 166.13 79.13 164.64 78.54C163.16 77.95 161.89 77.12 160.86 76.05C159.82 74.99 159.03 73.72 158.47 72.26C157.91 70.8 157.64 69.2 157.64 67.48V50.11H163.04V67.46C163.04 68.57 163.19 69.57 163.49 70.47C163.79 71.37 164.22 72.13 164.78 72.77C165.34 73.41 166.03 73.9 166.86 74.24C167.69 74.58 168.62 74.76 169.66 74.76Z" fill="white"/>
<path d="M3.19 40.8899L4.7 30.4899H0V25.1499H5.63L6.56 18.6399H1.63V13.2399H7.38L8.83 3.12988H14L12.55 13.2399H17.84L19.35 3.12988H24.52L23.01 13.2399H27.66V18.6399H22.2L21.27 25.1499H26.09V30.4899H20.4L18.95 40.8899H13.72L15.17 30.4899H9.88L8.43 40.8899H3.19ZM16.09 25.1499L17.02 18.6399H11.73L10.8 25.1499H16.09Z" fill="white"/>
<path d="M34.45 36.13L53.0999 9.29V9.06H40.2999C38.0299 9.06 36.1899 7.22 36.1899 4.95V0.66C36.1899 0.3 36.4799 0 36.8499 0H42.27C42.53 0 42.8699 0 42.9599 0.29C43.1499 1.12 43.0599 1.73 44.3899 1.74H64.5999V6.85L46.36 33.34V33.57H64.8899V40.89H34.45V36.13Z" fill="white"/>
<path d="M97.07 24.33H82.66V33.62H98.75V40.88H73.77V1.73999H97.94V8.99999H82.66V17.13H97.07V24.33Z" fill="white"/>
<path d="M108.1 2.25995C110.95 1.79995 115.19 1.44995 119.89 1.44995C125.7 1.44995 129.77 2.31995 132.55 4.52995C134.87 6.38995 136.15 9.11995 136.15 12.72C136.15 17.72 132.61 21.14 129.24 22.36V22.53C131.97 23.63 133.48 26.25 134.47 29.85C135.69 34.27 136.91 39.38 137.66 40.8899H128.6C127.96 39.7299 127.03 36.59 125.87 31.77C124.82 26.8899 123.14 25.5499 119.54 25.5H116.87V40.8899H108.1V2.25995ZM116.87 19.11H120.36C124.78 19.11 127.39 16.9 127.39 13.48C127.39 9.87995 124.95 8.07995 120.88 8.01995C118.73 8.01995 117.51 8.18995 116.87 8.30995V19.12V19.11Z" fill="white"/>
<path d="M181.7 20.9101C181.7 33.7501 173.92 41.5301 162.47 41.5301C151.02 41.5301 144.06 32.7601 144.06 21.6101C144.06 9.8801 151.55 1.1001 163.11 1.1001C174.67 1.1001 181.7 10.1001 181.7 20.9101ZM153.41 21.4301C153.41 29.1001 157.01 34.5001 162.94 34.5001C168.87 34.5001 172.35 28.8101 172.35 21.2001C172.35 14.1701 168.98 8.1301 162.88 8.1301C156.78 8.1301 153.41 13.8201 153.41 21.4301Z" fill="white"/>
</svg>
