<svg width="819" height="75" viewBox="0 0 819 75" fill="none" xmlns="http://www.w3.org/2000/svg">
<path d="M37 73.2315L45.7 3.23149H56.9L48.3 73.2315H37ZM0 57.2315V46.3315H64.6V57.2315H0ZM11.1 73.2315L19.8 3.23149H31L22.3 73.2315H11.1ZM3.4 30.1315V19.2315H67.9L68 30.1315H3.4Z" fill="white"/>
<path d="M160.262 31.4315H193.962V44.0315H160.262V31.4315ZM161.463 60.2315H199.562V73.2315H145.363V3.23149H198.263V16.2315H161.463V60.2315Z" fill="white"/>
<path d="M212.452 73.2315V3.23149H242.752C249.019 3.23149 254.419 4.26482 258.952 6.33149C263.486 8.33149 266.986 11.2315 269.452 15.0315C271.919 18.8315 273.152 23.3648 273.152 28.6315C273.152 33.8315 271.919 38.3315 269.452 42.1315C266.986 45.8648 263.486 48.7315 258.952 50.7315C254.419 52.7315 249.019 53.7315 242.752 53.7315H221.452L228.652 46.6315V73.2315H212.452ZM256.952 73.2315L239.452 47.8315H256.752L274.452 73.2315H256.952ZM228.652 48.4315L221.452 40.8315H241.852C246.852 40.8315 250.586 39.7648 253.052 37.6315C255.519 35.4315 256.752 32.4315 256.752 28.6315C256.752 24.7648 255.519 21.7648 253.052 19.6315C250.586 17.4982 246.852 16.4315 241.852 16.4315H221.452L228.652 8.73149V48.4315Z" fill="white"/>
<path d="M319.987 74.4315C314.454 74.4315 309.321 73.5315 304.587 71.7315C299.921 69.9315 295.854 67.3982 292.388 64.1315C288.988 60.8648 286.321 57.0315 284.388 52.6315C282.521 48.2315 281.587 43.4315 281.587 38.2315C281.587 33.0315 282.521 28.2315 284.388 23.8315C286.321 19.4315 289.021 15.5982 292.487 12.3315C295.954 9.06483 300.021 6.53149 304.688 4.73149C309.354 2.93149 314.421 2.03149 319.888 2.03149C325.421 2.03149 330.487 2.93149 335.087 4.73149C339.754 6.53149 343.788 9.06483 347.188 12.3315C350.654 15.5982 353.354 19.4315 355.288 23.8315C357.221 28.1648 358.188 32.9648 358.188 38.2315C358.188 43.4315 357.221 48.2648 355.288 52.7315C353.354 57.1315 350.654 60.9648 347.188 64.2315C343.788 67.4315 339.754 69.9315 335.087 71.7315C330.487 73.5315 325.454 74.4315 319.987 74.4315ZM319.888 60.6315C323.021 60.6315 325.887 60.0982 328.487 59.0315C331.154 57.9648 333.487 56.4315 335.487 54.4315C337.487 52.4315 339.021 50.0648 340.087 47.3315C341.221 44.5982 341.788 41.5648 341.788 38.2315C341.788 34.8982 341.221 31.8648 340.087 29.1315C339.021 26.3982 337.487 24.0315 335.487 22.0315C333.554 20.0315 331.254 18.4982 328.587 17.4315C325.921 16.3648 323.021 15.8315 319.888 15.8315C316.754 15.8315 313.854 16.3648 311.188 17.4315C308.587 18.4982 306.288 20.0315 304.288 22.0315C302.288 24.0315 300.721 26.3982 299.587 29.1315C298.521 31.8648 297.987 34.8982 297.987 38.2315C297.987 41.4982 298.521 44.5315 299.587 47.3315C300.721 50.0648 302.254 52.4315 304.188 54.4315C306.188 56.4315 308.521 57.9648 311.188 59.0315C313.854 60.0982 316.754 60.6315 319.888 60.6315Z" fill="white"/>
<path d="M384.819 73.2315L361.919 3.23149H378.719L398.619 65.2315H390.219L411.019 3.23149H426.019L446.019 65.2315H437.919L458.319 3.23149H473.819L450.919 73.2315H433.519L415.819 18.8315H420.419L402.219 73.2315H384.819Z" fill="white"/>
<path d="M505.862 74.4315C500.262 74.4315 494.896 73.6982 489.763 72.2315C484.629 70.6982 480.496 68.7315 477.362 66.3315L482.862 54.1315C485.862 56.2648 489.396 58.0315 493.462 59.4315C497.596 60.7648 501.762 61.4315 505.962 61.4315C509.163 61.4315 511.729 61.1315 513.662 60.5315C515.662 59.8648 517.129 58.9648 518.062 57.8315C518.996 56.6982 519.463 55.3982 519.463 53.9315C519.463 52.0648 518.729 50.5982 517.263 49.5315C515.796 48.3982 513.863 47.4982 511.463 46.8315C509.063 46.0982 506.396 45.4315 503.462 44.8315C500.596 44.1648 497.696 43.3648 494.763 42.4315C491.896 41.4982 489.262 40.2982 486.862 38.8315C484.462 37.3648 482.496 35.4315 480.962 33.0315C479.496 30.6315 478.763 27.5648 478.763 23.8315C478.763 19.8315 479.829 16.1982 481.962 12.9315C484.163 9.59816 487.429 6.96482 491.763 5.03149C496.163 3.03149 501.663 2.03149 508.263 2.03149C512.663 2.03149 516.996 2.56483 521.263 3.63149C525.529 4.63149 529.296 6.16482 532.562 8.23149L527.562 20.5315C524.296 18.6648 521.029 17.2982 517.763 16.4315C514.496 15.4982 511.296 15.0315 508.163 15.0315C505.029 15.0315 502.462 15.3982 500.462 16.1315C498.462 16.8648 497.029 17.8315 496.163 19.0315C495.296 20.1648 494.862 21.4982 494.862 23.0315C494.862 24.8315 495.596 26.2982 497.062 27.4315C498.529 28.4982 500.462 29.3648 502.862 30.0315C505.262 30.6982 507.896 31.3648 510.763 32.0315C513.696 32.6982 516.596 33.4648 519.463 34.3315C522.396 35.1982 525.062 36.3648 527.463 37.8315C529.863 39.2982 531.796 41.2315 533.263 43.6315C534.796 46.0315 535.562 49.0648 535.562 52.7315C535.562 56.6648 534.463 60.2648 532.263 63.5315C530.062 66.7982 526.763 69.4315 522.362 71.4315C518.029 73.4315 512.529 74.4315 505.862 74.4315Z" fill="white"/>
<path d="M560.155 73.2315V16.4315H537.755V3.23149H598.755V16.4315H576.355V73.2315H560.155Z" fill="white"/>
<path d="M623.602 73.2315V44.6315L627.302 54.4315L596.502 3.23149H613.702L637.302 42.5315H627.402L651.102 3.23149H667.002L636.202 54.4315L639.802 44.6315V73.2315H623.602Z" fill="white"/>
<path d="M673.097 73.2315V3.23149H704.897C712.497 3.23149 719.197 4.69816 724.997 7.63149C730.797 10.4982 735.33 14.5315 738.597 19.7315C741.864 24.9315 743.497 31.0982 743.497 38.2315C743.497 45.2982 741.864 51.4648 738.597 56.7315C735.33 61.9315 730.797 65.9982 724.997 68.9315C719.197 71.7982 712.497 73.2315 704.897 73.2315H673.097ZM689.297 59.9315H704.097C708.764 59.9315 712.797 59.0648 716.197 57.3315C719.664 55.5315 722.33 52.9982 724.197 49.7315C726.13 46.4648 727.097 42.6315 727.097 38.2315C727.097 33.7648 726.13 29.9315 724.197 26.7315C722.33 23.4648 719.664 20.9648 716.197 19.2315C712.797 17.4315 708.764 16.5315 704.097 16.5315H689.297V59.9315Z" fill="white"/>
<path d="M786.814 74.4315C776.881 74.4315 769.114 71.6648 763.514 66.1315C757.914 60.5982 755.114 52.6982 755.114 42.4315V3.23149H771.314V41.8315C771.314 48.4982 772.681 53.2982 775.414 56.2315C778.147 59.1648 781.981 60.6315 786.914 60.6315C791.847 60.6315 795.681 59.1648 798.414 56.2315C801.147 53.2982 802.514 48.4982 802.514 41.8315V3.23149H818.514V42.4315C818.514 52.6982 815.714 60.5982 810.114 66.1315C804.514 71.6648 796.747 74.4315 786.814 74.4315Z" fill="white"/>
<path d="M74 62.7314L107.5 16.7314V16.3023L80 16.7314C75.7648 16.7314 74.8319 14.2985 74.8319 10.0633V1.23137C74.8319 0.559714 75.373 0 76.0633 0L87 0.000107408C87.4851 0.000107408 88.1194 0.000107408 88.2873 0.541164C88.6418 2.0897 88.4739 3.22779 90.9553 3.24645H133.5V13.7314L96.2206 59.4342V59.8633H135V73.5203H74V62.7314Z" fill="white"/>
</svg>
