<svg width="229" height="236" viewBox="0 0 229 236" fill="none" xmlns="http://www.w3.org/2000/svg">
<path d="M36.0328 197.754C61.4957 212.083 88.52 223.651 116.465 232.256C122.15 234.017 127.956 235.618 133.881 235.618C139.366 235.618 144.731 234.177 150.015 232.777C165.029 228.734 180.443 224.411 192.534 214.685C211.551 199.355 218.557 173.939 224.482 150.204C226.404 142.439 228.366 134.594 228.246 126.589C228.166 119.505 226.444 112.541 224.643 105.656C221.8 94.7693 218.717 83.7623 212.992 74.0361C209.189 67.552 204.304 61.7884 199.42 56.0648C186.568 40.9752 173.597 25.8056 158.343 13.1176C152.498 8.23449 146.132 3.67167 138.805 1.55033C131.158 -0.651063 123.031 -0.0506441 115.144 0.589761C92.0432 2.43093 67.3009 4.95246 49.7251 20.042C44.5204 24.5248 40.1965 29.9282 35.9127 35.2516C31.829 40.3748 27.7053 45.4982 23.6216 50.6214C20.0984 55.0242 16.5352 59.467 13.9329 64.4701C7.7273 76.2776 7.12676 90.0863 4.44434 103.135C3.24326 108.898 1.64182 114.582 0.761026 120.385C-2.96233 145.081 7.36697 170.257 23.2212 189.549" fill="#D1B9DA" fill-opacity="0.49"/>
</svg>
