<svg width="164" height="86" viewBox="0 0 164 86" fill="none" xmlns="http://www.w3.org/2000/svg">
<path d="M10.7159 82.799C14.9613 69.8098 20.0416 57.152 26.1044 44.9216C31.3907 51.8136 36.2413 59.0528 40.5343 66.6649C41.5835 68.6048 50.6394 65.6621 51.1562 63.8983C54.0392 53.4887 57.0182 42.9319 59.9012 32.5224C66.1775 40.4762 71.8002 48.9506 76.7434 57.824C77.7927 59.7639 86.7266 56.8471 87.3653 55.0574L98.7691 21.2076C104.521 26.0923 109.618 31.4978 114.236 37.6413C115.677 39.6252 123.828 36.6204 124.858 34.8747C128.997 27.379 132.571 19.6217 135.58 11.6028C141.468 17.7307 147.235 23.8844 153.123 30.0123C155.251 32.2319 164.233 27.1421 163.789 26.8546C155.6 18.2895 147.384 9.60271 139.194 1.03765C137.709 -0.555192 129.281 1.74512 128.573 3.80424C125.981 11.9889 122.946 19.8859 119.346 27.5215C114.145 21.6293 108.168 16.2839 101.59 11.7023C99.9384 10.5264 91.9978 12.7227 91.2889 14.7819C88.0328 24.6345 84.7509 34.3658 81.3729 44.2443C76.0457 35.9615 70.0389 28.0772 63.3785 20.7139C61.8935 19.1211 53.3435 21.4473 52.7566 23.4805C50.1099 33.2037 47.3155 42.8309 44.6688 52.554C40.5644 46.4287 36.1204 40.5029 31.3624 34.8982C29.6778 32.9661 21.7447 35.7973 20.7404 37.6648C12.5138 52.8997 5.83478 68.8235 0.407952 85.2446C-0.064598 86.6173 10.1365 85.4669 10.9856 82.8691L10.7159 82.799Z" fill="#3A6C6E"/>
</svg>
