<svg width="96" height="60" viewBox="0 0 96 60" fill="none" xmlns="http://www.w3.org/2000/svg">
<path d="M96.0001 22.3035C96.0001 41.9233 81.9662 53.598 73.2168 58.9722C72.1065 59.6537 70.9087 58.2376 71.7574 57.2458C74.4844 54.0579 77.668 49.5003 79.8154 43.7549C77.8707 44.3101 75.8175 44.6059 73.6966 44.6059C61.3791 44.6059 51.3931 34.621 51.3931 22.3024C51.3931 9.98384 61.3791 0 73.6966 0C86.0141 0 96.0001 9.98495 96.0001 22.3035Z" fill="black" fill-opacity="0.95"/>
<path d="M44.6059 22.3035C44.6059 41.9233 30.572 53.598 21.8226 58.9722C20.7123 59.6537 19.5145 58.2376 20.3633 57.2458C23.0903 54.0579 26.2738 49.5003 28.4213 43.7549C26.4766 44.3101 24.4233 44.6059 22.3024 44.6059C9.98495 44.6059 0 34.621 0 22.3035C0 9.98605 9.98495 0 22.3035 0C34.6221 0 44.607 9.98495 44.607 22.3035H44.6059Z" fill="black" fill-opacity="0.95"/>
</svg>
