<svg width="147" height="174" viewBox="0 0 147 174" fill="none" xmlns="http://www.w3.org/2000/svg">
<path d="M97.0032 153.632C100.807 153.071 104.37 155.913 104.93 159.916C105.491 163.918 102.889 167.64 99.0851 168.161C95.2817 168.681 91.7185 165.879 91.158 161.877C90.5974 157.874 93.1998 154.152 97.0032 153.632Z" fill="#DDA423"/>
<path d="M125.909 158.875C129.713 158.314 133.276 161.156 133.837 165.159C134.397 169.161 131.795 172.884 127.991 173.404C124.188 173.924 120.625 171.123 120.064 167.12C119.504 163.118 122.106 159.395 125.909 158.875Z" fill="#DDA423"/>
<path d="M112.097 133.499C115.9 132.938 119.464 135.78 120.024 139.783C120.585 143.785 117.982 147.508 114.179 148.028C110.375 148.548 106.812 145.746 106.252 141.744C105.691 137.741 108.294 134.019 112.097 133.499Z" fill="#DDA423"/>
<path d="M76.9856 128.376C80.7891 127.815 84.3523 130.657 84.9128 134.66C85.4733 138.662 82.8709 142.385 79.0675 142.905C75.2641 143.425 71.7009 140.623 71.1404 136.621C70.5799 132.618 73.1822 128.896 76.9856 128.376Z" fill="#DDA423"/>
<path d="M99.0787 123.589C102.887 123.043 105.506 119.337 104.929 115.311C104.351 111.284 100.796 108.463 96.9875 109.009C93.1791 109.555 90.5599 113.261 91.1374 117.288C91.7149 121.314 95.2703 124.135 99.0787 123.589Z" fill="#DDA423"/>
<path d="M67.9049 102.294C71.7133 101.748 74.3325 98.0415 73.7551 94.0153C73.1776 89.9891 69.6221 87.1677 65.8137 87.7136C62.0053 88.2596 59.3861 91.9661 59.9636 95.9924C60.5411 100.019 64.0965 102.84 67.9049 102.294Z" fill="#DDA423"/>
<path d="M47.5016 74.7254C51.31 74.1795 53.9292 70.473 53.3517 66.4468C52.7743 62.4206 49.2188 59.5993 45.4104 60.1453C41.602 60.6912 38.9828 64.3977 39.5603 68.4239C40.1377 72.4501 43.6932 75.2714 47.5016 74.7254Z" fill="#DDA423"/>
<path d="M32.7454 32.3547C36.5488 31.7944 40.112 34.6362 40.6725 38.6387C41.233 42.6412 38.6307 46.3636 34.8273 46.8839C31.0238 47.4042 27.4606 44.6024 26.9001 40.5999C26.3396 36.5974 28.942 32.875 32.7454 32.3547Z" fill="#DDA423"/>
<path d="M18.735 15.5687C22.5434 15.0228 25.1626 11.3163 24.5851 7.29011C24.0076 3.2639 20.4522 0.442598 16.6438 0.988539C12.8354 1.53448 10.2162 5.24092 10.7936 9.26713C11.3711 13.2933 14.9266 16.1146 18.735 15.5687Z" fill="#DDA423"/>
<path d="M50.149 115.009C53.9575 114.463 56.5766 110.757 55.9992 106.73C55.4217 102.704 51.8663 99.8828 48.0578 100.429C44.2494 100.975 41.6302 104.681 42.2077 108.707C42.7852 112.734 46.3406 115.555 50.149 115.009Z" fill="#DDA423"/>
<path d="M26.18 68.4577C29.9834 67.8974 33.5466 70.7392 34.1071 74.7417C34.6676 78.7443 32.0653 82.4666 28.2618 82.9869C24.4584 83.5073 20.8952 80.7055 20.3347 76.7029C19.7742 72.7004 22.3765 68.9781 26.18 68.4577Z" fill="#DDA423"/>
<path d="M5.92118 36.1972C9.7246 35.6369 13.2878 38.4787 13.8483 42.4812C14.4088 46.4838 11.8065 50.2061 8.00307 50.7264C4.19965 51.2468 0.636426 48.445 0.0759219 44.4424C-0.484583 40.4399 2.11776 36.7176 5.92118 36.1972Z" fill="#DDA423"/>
<path d="M94.3616 80.5454C98.165 79.985 101.728 82.8267 102.289 86.8293C102.849 90.8318 100.247 94.5543 96.4435 95.0746C92.64 95.5949 89.0769 92.7931 88.5164 88.7906C87.9558 84.7881 90.5582 81.0657 94.3616 80.5454Z" fill="#DDA423"/>
<path d="M124.349 109.844C128.152 109.284 131.716 112.125 132.276 116.128C132.837 120.13 130.234 123.853 126.431 124.373C122.627 124.894 119.064 122.092 118.504 118.089C117.943 114.087 120.545 110.364 124.349 109.844Z" fill="#DDA423"/>
<path d="M139.898 146.705C143.707 146.159 146.326 142.453 145.748 138.426C145.171 134.4 141.615 131.579 137.807 132.125C133.998 132.671 131.379 136.377 131.957 140.403C132.534 144.43 136.09 147.251 139.898 146.705Z" fill="#DDA423"/>
<path d="M75.0638 55.2092C78.8672 54.6488 82.4304 57.4907 82.9909 61.4932C83.5514 65.4957 80.949 69.2181 77.1456 69.7384C73.3422 70.2587 69.779 67.4569 69.2185 63.4544C68.658 59.4519 71.2603 55.7295 75.0638 55.2092Z" fill="#DDA423"/>
<path d="M50.5618 20.4272C54.3652 19.8669 57.9284 22.7087 58.489 26.7112C59.0495 30.7137 56.4471 34.4361 52.6437 34.9564C48.8403 35.4768 45.2771 32.675 44.7165 28.6724C44.156 24.6699 46.7584 20.9475 50.5618 20.4272Z" fill="#DDA423"/>
</svg>
