<svg width="221" height="218" viewBox="0 0 221 218" fill="none" xmlns="http://www.w3.org/2000/svg">
<path d="M26.6069 30.6199C20.081 37.0239 30.05 61.7195 52.0698 89.6972C40.8197 93.7798 26.0464 100.864 12.1539 113.712C4.62708 120.637 -0.977971 125.96 0.143038 130.723C1.58434 136.807 13.7153 141.89 51.8696 141.93C48.8269 149.255 45.3037 160.222 44.6231 173.91C44.1026 184.477 43.5821 195.484 48.3064 198.046C53.1107 200.647 64.3609 195.204 91.5854 163.264C93.8674 172.51 98.1513 185.958 106.799 200.487C112.925 210.814 116.928 217.538 121.893 217.578C126.136 217.578 135.024 212.855 145.954 167.827C160.167 176.792 188.032 193.243 194.238 186.679C201.885 178.553 172.658 139.729 164.171 128.722C195.599 126.561 219.581 120.437 220.261 112.432C220.982 104.186 196.8 93.4996 162.049 85.9749C181.466 54.3549 188.192 27.1377 180.505 21.2139C172.899 15.3702 148.957 28.5385 124.215 53.7545C120.371 21.9344 110.202 -0.119588 101.835 0.00048792C93.5471 0.160589 84.2988 22.1345 81.2561 52.994C55.9533 33.942 32.9326 24.3759 26.6069 30.5798V30.6199Z" fill="#3A6C6E"/>
<path d="M94.1481 101.985C92.3064 104.427 93.4274 107.348 93.5075 107.589C94.3082 109.63 96.27 111.151 98.512 111.391C98.7122 111.391 102.155 111.711 104.037 108.909C105.839 106.228 104.397 103.266 104.317 103.066C102.996 100.424 100.274 99.9037 99.9132 99.8636C99.673 99.8636 96.1499 99.2633 94.1481 101.985Z" fill="#FFF6F0"/>
<path d="M102.675 81.1319C100.914 83.4934 101.954 86.2951 102.075 86.5353C102.875 88.5366 104.717 89.9775 106.919 90.1776C107.119 90.1776 110.442 90.4978 112.244 87.7761C113.965 85.1744 112.604 82.3326 112.524 82.1725C111.243 79.6509 108.6 79.1306 108.28 79.0906C108.08 79.0906 104.637 78.5302 102.715 81.1319H102.675Z" fill="#FFF6F0"/>
<path d="M108.36 126.641C106.518 129.082 107.639 132.004 107.719 132.244C108.52 134.286 110.482 135.807 112.724 136.047C112.924 136.047 116.367 136.367 118.249 133.565C120.05 130.883 118.609 127.922 118.529 127.721C117.208 125.08 114.485 124.559 114.125 124.519C113.885 124.519 110.362 123.919 108.36 126.641Z" fill="#FFF6F0"/>
<path d="M113.245 100.784C111.163 103.546 112.404 106.828 112.524 107.148C113.445 109.47 115.647 111.191 118.209 111.431C118.409 111.431 122.333 111.791 124.455 108.629C126.497 105.587 124.895 102.225 124.775 102.025C123.294 99.0632 120.171 98.4629 119.771 98.3828C119.53 98.3428 115.487 97.7024 113.205 100.784H113.245Z" fill="#FFF6F0"/>
<path d="M138.067 106.268C136.346 108.589 137.387 111.351 137.467 111.591C138.227 113.552 140.069 114.953 142.231 115.193C142.391 115.193 145.714 115.474 147.476 112.832C149.197 110.27 147.836 107.469 147.756 107.308C146.515 104.827 143.913 104.307 143.552 104.267C143.352 104.267 139.989 103.706 138.067 106.268Z" fill="#FFF6F0"/>
<path d="M68.1642 96.7818C66.3626 99.2234 67.4436 102.105 67.5637 102.345C68.3644 104.387 70.2861 105.868 72.5281 106.108C72.7283 106.108 76.1314 106.428 78.013 103.666C79.8147 100.984 78.3734 98.0626 78.2933 97.8625C76.9721 95.2608 74.2897 94.7405 73.9294 94.7005C73.6892 94.7005 70.206 94.1001 68.2042 96.7818H68.1642Z" fill="#FFF6F0"/>
</svg>
