<svg width="264" height="264" viewBox="0 0 264 264" fill="none" xmlns="http://www.w3.org/2000/svg">
<path d="M131.919 263.767C204.775 263.767 263.837 204.721 263.837 131.883C263.837 59.0461 204.775 0 131.919 0C59.062 0 0 59.0461 0 131.883C0 204.721 59.062 263.767 131.919 263.767Z" fill="#D0579B"/>
<path d="M51.4463 167.826C48.7239 167.106 46.5619 166.185 44.9205 165.104C43.279 164.024 42.4382 162.903 42.4382 161.822C42.4382 160.862 42.9587 159.581 44.0397 157.94C45.1207 156.299 46.0415 155.458 46.8422 155.458C47.0023 155.458 47.723 155.858 49.0442 156.619C50.3654 157.379 51.8467 158.06 53.5282 158.66C55.2097 159.261 57.0914 159.541 59.2133 159.541C65.5791 159.541 68.7419 156.979 68.7419 151.856C68.7419 149.574 67.9412 147.813 66.3398 146.533C64.7383 145.252 62.0159 144.011 58.2124 142.77C53.0878 141.249 49.4045 139.208 47.1225 136.686C44.8404 134.165 43.7194 130.723 43.7194 126.32C43.7194 121.437 45.4409 117.474 48.884 114.432C52.3271 111.39 56.8112 109.869 62.3762 109.869C66.1796 109.869 69.6627 110.35 72.7856 111.35C75.9084 112.351 77.5098 113.552 77.5098 115.033C77.5098 116.113 77.0694 117.514 76.1486 119.195C75.2278 120.876 74.387 121.717 73.5863 121.717C73.306 121.637 72.3051 121.197 70.6236 120.356C68.9421 119.515 66.7001 119.115 63.8175 119.115C61.2552 119.115 59.1733 119.636 57.5719 120.716C55.9704 121.797 55.1697 123.238 55.1697 125.159C55.1697 127.441 55.9704 129.242 57.5318 130.563C59.0932 131.883 61.5354 133.164 64.8184 134.325C68.7019 135.646 71.7046 137.007 73.8665 138.367C76.0285 139.768 77.5899 141.489 78.5908 143.531C79.5917 145.572 80.0721 148.174 80.0721 151.296C80.0721 154.658 79.2314 157.7 77.5098 160.381C75.7883 163.103 73.4261 165.184 70.3834 166.705C67.3406 168.186 63.9376 168.947 60.1342 168.947C57.0514 168.947 54.1688 168.586 51.4864 167.866L51.4463 167.826Z" fill="white"/>
<path d="M96.1665 161.182C91.8026 156.179 89.6006 148.934 89.6006 139.408C89.6006 129.882 91.8426 122.597 96.2866 117.474C100.731 112.351 107.096 109.789 115.344 109.789C123.591 109.789 129.917 112.311 134.241 117.394C138.565 122.477 140.767 129.802 140.767 139.368C140.767 148.934 138.605 156.139 134.321 161.142C129.997 166.145 123.671 168.667 115.344 168.667C107.016 168.667 100.53 166.145 96.1665 161.142V161.182ZM125.833 154.458C128.155 151.176 129.276 146.132 129.276 139.328C129.276 132.524 128.115 127.481 125.833 124.159C123.551 120.836 119.988 119.155 115.144 119.155C110.299 119.155 106.896 120.836 104.614 124.159C102.332 127.481 101.211 132.524 101.211 139.328C101.211 146.132 102.332 151.176 104.534 154.458C106.776 157.74 110.299 159.381 115.104 159.381C119.908 159.381 123.471 157.74 125.793 154.458H125.833Z" fill="white"/>
<path d="M157.342 165.425V119.956H153.618C152.737 119.956 152.097 119.636 151.696 119.035C151.296 118.435 151.096 117.394 151.096 116.033V114.592C151.096 113.192 151.296 112.191 151.696 111.591C152.097 110.99 152.737 110.67 153.618 110.67H157.342V100.904C157.342 95.0602 158.743 90.9375 161.545 88.576C164.348 86.2145 167.831 85.0138 171.995 85.0138C177.84 85.0138 180.763 86.2946 180.763 88.8562C180.763 89.6567 180.522 90.8574 180.002 92.4584C179.482 94.0595 178.881 94.86 178.12 94.86C177.76 94.86 177.199 94.7799 176.479 94.5798C175.758 94.3797 174.877 94.2997 173.836 94.2997C172.075 94.2997 170.754 94.7799 169.833 95.7405C168.912 96.7012 168.472 98.5824 168.472 101.424V110.63H176.799C177.68 110.63 178.32 110.95 178.721 111.551C179.121 112.151 179.321 113.192 179.321 114.552V115.993C179.321 117.394 179.121 118.395 178.721 118.995C178.32 119.596 177.68 119.916 176.799 119.916H168.472V165.385C168.472 167.226 166.79 168.106 163.427 168.106H162.226C158.943 168.106 157.302 167.186 157.302 165.385L157.342 165.425Z" fill="white"/>
<path d="M197.057 165.024C194.175 162.583 192.733 158.5 192.733 152.817V119.956H188.329C187.449 119.956 186.808 119.636 186.408 119.035C186.007 118.395 185.807 117.394 185.807 116.033V114.592C185.807 113.192 186.007 112.191 186.408 111.591C186.808 110.95 187.449 110.67 188.329 110.67H192.733L194.175 99.5029C194.415 97.6618 195.776 96.7812 198.338 96.7812H200.1C202.742 96.7812 204.024 97.7018 204.024 99.5029V110.67H212.151C213.032 110.67 213.672 110.99 214.073 111.591C214.473 112.231 214.673 113.232 214.673 114.592V116.033C214.673 117.434 214.473 118.435 214.073 119.035C213.672 119.676 213.032 119.956 212.151 119.956H204.024V152.296C204.024 154.938 204.464 156.779 205.385 157.82C206.306 158.861 207.627 159.421 209.388 159.421C210.429 159.421 211.27 159.341 211.951 159.141C212.631 158.941 213.152 158.86 213.552 158.86C214.273 158.86 214.913 159.661 215.394 161.222C215.914 162.783 216.154 163.984 216.154 164.784C216.154 167.426 213.232 168.707 207.387 168.707C203.383 168.707 199.9 167.506 197.017 165.024H197.057Z" fill="white"/>
</svg>
