<svg width="148" height="174" viewBox="0 0 148 174" fill="none" xmlns="http://www.w3.org/2000/svg">
<path d="M38.1481 104.682L39.1513 104.176C57.9423 94.8931 77.3774 87.0198 97.3338 80.6105C104.009 78.4811 111.176 81.9903 113.589 88.583L114.171 90.2018C118.706 102.677 122.024 115.564 124.153 128.659L124.955 133.615C125.898 139.373 122.859 145.068 117.563 147.518C100.823 155.283 83.4327 161.607 65.5742 166.391L65.4778 166.408C59.8851 167.917 53.976 165.544 50.9552 160.581L49.6455 158.394C42.4298 146.488 36.3874 133.913 31.6485 120.845C29.3939 114.589 32.1816 107.647 38.1216 104.72L38.1481 104.682Z" fill="url(#paint0_linear_79_143)"/>
<path d="M53.6809 90.2128L54.8046 90.0158C75.3587 85.8844 96.1564 83.3318 117.084 82.2786C124.075 81.947 130.12 87.1751 130.72 94.1848L130.852 95.8824C132.013 109.114 131.893 122.405 130.535 135.615L130.019 140.603C129.413 146.401 125.042 151.105 119.295 152.112C101.091 155.302 82.6701 156.876 64.2036 156.869L64.1073 156.886C58.3144 156.875 53.2076 153.038 51.6074 147.494L50.8852 145.073C46.9906 131.724 44.422 118.011 43.2131 104.126C42.6489 97.5069 47.1273 91.5267 53.6488 90.2184L53.6809 90.2128Z" fill="url(#paint1_linear_79_143)"/>
<path d="M42.0808 94.2641L43.133 93.8481C62.6509 86.2581 82.7165 80.0944 103.148 75.455C109.989 73.8921 116.835 78.0203 118.654 84.8162L119.108 86.4576C122.516 99.2957 124.741 112.374 125.704 125.608L126.051 130.61C126.474 136.426 122.988 141.835 117.48 143.826C100.116 150.112 82.2252 154.902 64.0532 158.087L63.9569 158.103C58.242 159.105 52.5752 156.226 50.0078 151.017L48.8795 148.733C42.72 136.245 37.8206 123.205 34.2358 109.736C32.5158 103.32 35.9112 96.6359 42.1073 94.2264L42.0808 94.2641Z" fill="#D0589B"/>
<path d="M77.4643 117.35C76.2763 117.558 74.6525 117.545 72.9099 117.42C71.3655 117.293 69.7777 117.108 68.3505 116.895C66.1077 116.56 64.288 116.184 63.8746 116.091C63.9841 114.45 63.6558 114.276 64.5071 112.903C65.6719 113.129 67.1425 113.401 68.7037 113.623C70.1309 113.837 71.6111 113.974 72.9251 114.108C74.7376 114.254 76.335 114.305 77.1585 114.094C77.9687 115.507 77.6645 115.66 78.0101 117.254C77.8495 117.282 77.6569 117.316 77.4964 117.344L77.4643 117.35Z" fill="white"/>
<path d="M85.0514 115.325C84.124 113.999 84.1921 113.821 84.1998 112.165C85.0233 111.955 86.4045 111.15 87.9125 110.125C89.0048 109.371 90.203 108.466 91.3049 107.578C92.5239 106.603 93.6466 105.645 94.5671 104.855C95.9937 105.631 95.8196 105.96 96.7149 107.292C96.369 107.584 94.906 108.866 93.0746 110.312C91.882 111.249 90.5723 112.273 89.2401 113.168C87.6679 114.205 86.1582 115.032 85.0514 115.325Z" fill="white"/>
<path d="M70.2531 139.461C68.7249 139.994 68.423 139.782 67.0174 138.936C67.1984 137.515 67.5625 136.194 68.0286 134.888C68.489 133.549 69.0626 132.291 69.7759 131.074C70.4892 129.857 71.1648 128.613 72.1045 127.555C73.0121 126.502 74.0706 125.556 75.2102 124.694C76.3498 123.833 77.544 123.094 78.7928 122.478C80.0738 121.856 81.4318 121.486 82.7899 121.116C84.1479 120.745 85.5172 120.439 86.9259 120.358C88.3025 120.282 89.7337 120.329 91.1232 120.516C92.5448 120.697 93.9038 121.087 95.2042 121.521C96.5424 121.982 97.8541 122.48 99.0655 123.161C100.283 123.874 101.473 124.625 102.531 125.565C103.584 126.473 104.51 127.601 105.371 128.741C104.595 130.167 104.329 130.346 102.729 130.66C101.743 129.376 100.63 128.314 99.3683 127.344C98.1063 126.374 96.7383 125.554 95.2757 124.95C93.8131 124.346 92.2614 123.989 90.668 123.772C89.0746 123.555 87.4773 123.504 85.925 123.71C84.3405 123.921 82.7955 124.358 81.3484 124.975C79.9013 125.593 78.5144 126.365 77.2312 127.351C75.9479 128.337 74.8156 129.429 73.8454 130.691C72.8753 131.953 72.1259 133.342 71.5275 134.837C70.9234 136.3 70.508 137.895 70.2908 139.488L70.2531 139.461Z" fill="white"/>
<path d="M50.7364 71.8995C47.7684 73.28 44.7676 72.0189 43.404 69.1472C42.0179 66.1471 43.1072 63.1103 46.0431 61.7355C48.979 60.3606 51.893 61.5045 53.3754 64.4877C54.7126 67.3971 53.795 70.47 50.7628 71.8618L50.6986 71.873L50.7364 71.8995Z" fill="#D1B9DA"/>
<path d="M41.314 59.4867L24.5992 33.0303L37.7577 26.9188L47.2765 56.688L41.314 59.4867Z" fill="#D1B9DA"/>
<path d="M65.0885 49.5622L64.7059 47.379C64.1823 43.0696 64.1668 38.638 67.5827 33.7705C70.0245 30.3312 71.9823 27.3408 71.7232 24.5403C71.468 21.5736 69.3574 19.7264 65.2011 19.9914C62.3308 20.2297 59.1043 21.4569 56.9704 23.2538L53.3803 14.2863C56.2679 12.2581 61.1212 10.117 67.1885 9.61628C78.2734 8.66651 83.9424 14.3907 84.5629 21.3306C85.1424 27.8474 81.4455 32.4332 78.5407 36.2514C75.7852 39.9773 73.3603 43.5129 73.7617 47.3143L73.8978 48.8458L65.0941 49.5943L65.0885 49.5622Z" fill="#EB651A"/>
<path d="M70.9444 68.0603C66.805 68.4217 63.7325 65.6178 63.388 61.5748C63.0154 57.3713 65.6739 54.2249 69.717 53.8804C73.9205 53.5078 76.9007 56.1624 77.3432 60.3868C77.6877 64.4298 75.2178 67.7085 71.0142 68.0812L70.95 68.0924L70.9444 68.0603Z" fill="#EB651A"/>
<path d="M112.675 66.9355C113.411 65.8469 114.727 65.6162 115.746 66.3312C116.802 67.0726 116.958 68.336 116.222 69.4246C115.48 70.4811 114.245 70.7969 113.151 70.029C112.057 69.2611 111.966 67.9864 112.675 66.9355ZM116.422 63.2014L124.824 47.698L130.333 51.564L118.459 64.6313L116.422 63.2014Z" fill="#2E2D2C"/>
<path d="M108.192 24.735L90.7878 47.4084L101.158 45.5911L94.3956 66.863L114.476 40.0141L104.484 41.5336L108.192 24.735Z" fill="#FBBD36"/>
<path d="M8.76056 71.2472L21.6808 86.0585L21.8669 78.8118L35.3152 86.2503L19.9318 69.091L19.5931 76.0335L8.76056 71.2472Z" fill="#396C6F"/>
<defs>
<linearGradient id="paint0_linear_79_143" x1="90.6969" y1="96.3672" x2="52.3241" y2="185.954" gradientUnits="userSpaceOnUse">
<stop offset="0.5" stop-color="white"/>
<stop offset="1" stop-color="#CE67A4" stop-opacity="0.8"/>
</linearGradient>
<linearGradient id="paint1_linear_79_143" x1="49.2254" y1="90.3096" x2="128.37" y2="145.878" gradientUnits="userSpaceOnUse">
<stop offset="0.5" stop-color="white"/>
<stop offset="1" stop-color="#CE67A4" stop-opacity="0.8"/>
</linearGradient>
</defs>
</svg>
