<svg width="509" height="550" viewBox="0 0 509 550" fill="none" xmlns="http://www.w3.org/2000/svg">
<path d="M140.985 256.912L144.155 257.41C203.172 267.218 261.333 281.366 318.262 299.776C337.281 305.967 348.041 326.045 342.644 345.344L341.293 350.065C331.011 386.534 317.219 421.927 300.327 455.823L293.927 468.644C286.514 483.559 269.979 491.691 253.624 488.543C201.888 478.635 151.048 464.304 101.69 445.626L101.438 445.504C85.9618 439.681 76.2233 424.333 77.4963 407.795L78.1051 400.546C81.228 360.928 88.185 321.716 98.9844 283.534C104.187 265.278 122.217 253.838 140.861 256.955L140.985 256.912Z" fill="url(#paint0_linear_127_441)"/>
<path d="M201.097 249.269L204.029 250.686C258.547 275.37 310.997 304.119 361.251 336.56C378.003 347.443 383.299 369.635 373.005 386.878L370.481 391.032C351.117 423.63 328.687 454.23 303.522 482.579L294.013 493.278C282.946 505.705 264.976 509.32 249.98 502.075C202.477 479.127 157.166 452.07 114.384 421.275L114.132 421.154C100.726 411.474 95.2872 394.07 100.819 378.556L103.181 371.74C116.405 334.316 133.309 298.256 153.65 264.064C163.375 247.785 183.72 241.391 201.013 249.229L201.097 249.269Z" fill="url(#paint1_linear_127_441)"/>
<path d="M167.463 239.323L170.595 240.113C228.475 255.056 285.248 274.216 340.329 297.52C358.787 305.3 367.77 326.276 360.66 345.057L358.974 349.616C345.474 385.047 328.833 419.064 309.006 451.335L301.473 463.506C292.761 477.69 275.666 484.414 259.582 479.848C208.867 465.473 159.425 446.754 112.006 423.846L111.754 423.724C96.8417 416.52 88.5077 400.404 91.2398 384.054L92.4322 376.88C98.9731 337.674 109.354 299.289 123.496 262.102C130.204 244.366 149.213 234.536 167.587 239.28L167.463 239.323Z" fill="#D0589B"/>
<path d="M210.982 351.797C207.882 350.299 204.142 347.562 200.311 344.368C196.943 341.501 193.572 338.426 190.62 335.553C185.981 331.039 182.391 327.134 181.588 326.23C184.576 322.61 184.106 321.659 188.368 319.895C190.69 322.36 193.645 325.441 196.892 328.56C199.844 331.433 203.044 334.219 205.867 336.719C209.824 340.077 213.441 342.858 215.7 343.743C215.222 348.368 214.263 348.215 212.407 352.485C211.988 352.282 211.485 352.04 211.066 351.837L210.982 351.797Z" fill="white"/>
<path d="M231.939 359.751C232.001 355.131 232.454 354.834 235.232 351.009C237.491 351.894 242.033 352.332 247.237 352.469C251.025 352.542 255.31 352.442 259.343 352.221C263.793 351.994 267.991 351.646 271.441 351.349C273.454 355.525 272.503 355.995 272.357 360.575C271.069 360.675 265.541 361.208 258.887 361.507C254.562 361.691 249.82 361.88 245.241 361.734C239.869 361.516 234.992 360.917 231.939 359.751Z" fill="white"/>
<path d="M157.417 391.019C152.988 389.706 152.642 388.712 150.794 384.409C153.583 381.416 156.629 378.961 159.886 376.711C163.183 374.378 166.611 372.417 170.292 370.785C173.973 369.154 177.612 367.398 181.553 366.512C185.41 365.586 189.441 365.157 193.518 365.06C197.595 364.962 201.594 365.241 205.514 365.895C209.519 366.59 213.283 367.995 217.047 369.4C220.812 370.805 224.495 372.378 227.895 374.537C231.212 376.656 234.45 379.151 237.359 381.899C240.351 384.688 242.85 387.859 245.14 391.032C247.474 394.329 249.683 397.67 251.355 401.267C252.986 404.949 254.493 408.674 255.379 412.615C256.306 416.472 256.57 420.63 256.668 424.707C252.492 426.72 251.576 426.691 247.347 424.751C247.2 420.133 246.393 415.817 245.085 411.465C243.777 407.113 241.973 402.935 239.59 399.097C237.208 395.259 234.206 391.846 230.876 388.687C227.545 385.528 223.929 382.748 219.988 380.637C215.964 378.487 211.657 376.922 207.274 375.942C202.891 374.961 198.39 374.44 193.772 374.586C189.155 374.732 184.711 375.375 180.36 376.682C176.008 377.99 171.957 379.959 168.078 382.426C164.241 384.808 160.62 387.812 157.461 391.143L157.417 391.019Z" fill="white"/>
<path d="M224.797 201.923C215.618 200.175 210.766 192.251 212.393 183.324C214.181 174.061 221.767 168.839 230.862 170.547C239.957 172.254 244.803 179.762 243.266 189.146C241.516 198.116 234.268 203.708 224.921 201.88L224.754 201.799L224.797 201.923Z" fill="#D1B9DA"/>
<path d="M223.652 157.454L229.013 68.2848L269.693 76.0541L242.134 160.906L223.652 157.454Z" fill="#D1B9DA"/>
<path d="M295.287 174.081L298.039 168.384C304.009 157.525 311.359 147.229 327.388 141.643C338.779 137.743 348.3 134.076 352.367 127.154C356.72 119.854 354.908 112.055 344.835 105.742C337.786 101.51 328.264 98.9767 320.324 99.5841L326.951 72.8193C337.023 72.9319 351.838 76.0595 366.733 85.0119C394.004 101.286 397.6 124 387.471 141.117C377.952 157.184 361.742 161.65 348.646 165.656C336.051 169.698 324.539 173.849 319.133 183.328L316.895 187.104L295.247 174.165L295.287 174.081Z" fill="#EB651A"/>
<path d="M278.027 226.708C267.832 220.646 265.385 209.028 271.325 199.084C277.468 188.722 288.873 185.862 298.816 191.802C309.179 197.945 311.66 209.064 305.645 219.591C299.704 229.534 288.516 233.016 278.154 226.873L277.986 226.792L278.027 226.708Z" fill="#EB651A"/>
<path d="M376.605 293.655C380.125 292.359 383.56 294.018 384.729 297.373C385.942 300.852 384.196 304.039 380.676 305.335C377.197 306.547 373.808 305.22 372.552 301.617C371.297 298.014 373.21 294.908 376.605 293.655ZM391.512 291.247L436.823 269.324L443.145 287.465L393.851 297.956L391.512 291.247Z" fill="#2E2D2C"/>
<path d="M436.554 188.389L358.432 211.923L385.492 224.996L334.367 263.02L425.651 234.271L399.963 221.137L436.554 188.389Z" fill="#FBBD36"/>
<path d="M128.612 130.449L133.866 186.307L146.376 169.824L165.142 209.476L158.093 144.072L145.737 159.595L128.612 130.449Z" fill="#396C6F"/>
<defs>
<linearGradient id="paint0_linear_127_441" x1="276.62" y1="325.228" x2="38.378" y2="468.876" gradientUnits="userSpaceOnUse">
<stop offset="0.5" stop-color="white"/>
<stop offset="1" stop-color="#CE67A4" stop-opacity="0.8"/>
</linearGradient>
<linearGradient id="paint1_linear_127_441" x1="190.611" y1="242.068" x2="281.398" y2="502.753" gradientUnits="userSpaceOnUse">
<stop offset="0.5" stop-color="white"/>
<stop offset="1" stop-color="#CE67A4" stop-opacity="0.8"/>
</linearGradient>
</defs>
</svg>
