<svg width="81" height="96" viewBox="0 0 81 96" fill="none" xmlns="http://www.w3.org/2000/svg">
<path d="M53.3698 84.5142C55.4624 84.2059 57.4228 85.7694 57.7312 87.9716C58.0396 90.1737 56.6078 92.2217 54.5152 92.508C52.4226 92.7943 50.4622 91.2528 50.1538 89.0506C49.8454 86.8485 51.2772 84.8005 53.3698 84.5142Z" fill="#DDA423"/>
<path d="M69.2516 87.3771C71.3442 87.0688 73.3047 88.6323 73.613 90.8344C73.9214 93.0365 72.4896 95.0845 70.3971 95.3708C68.3045 95.6571 66.344 94.1156 66.0357 91.9134C65.7273 89.7113 67.1591 87.6633 69.2516 87.3771Z" fill="#DDA423"/>
<path d="M61.6743 73.4376C63.7668 73.1293 65.7273 74.6928 66.0357 76.8949C66.344 79.097 64.9123 81.145 62.8197 81.4313C60.7271 81.7176 58.7667 80.1761 58.4583 77.974C58.1499 75.7718 59.5817 73.7238 61.6743 73.4376Z" fill="#DDA423"/>
<path d="M42.3344 70.6188C44.427 70.3105 46.3874 71.874 46.6958 74.0761C47.0042 76.2783 45.5724 78.3263 43.4798 78.6125C41.3872 78.8988 39.4268 77.3573 39.1184 75.1552C38.81 72.9531 40.2418 70.9051 42.3344 70.6188Z" fill="#DDA423"/>
<path d="M54.4821 67.997C56.5774 67.6967 58.0185 65.6574 57.7007 63.4423C57.383 61.2271 55.4269 59.6749 53.3315 59.9752C51.2362 60.2756 49.7952 62.3148 50.1129 64.53C50.4306 66.7452 52.3868 68.2974 54.4821 67.997Z" fill="#DDA423"/>
<path d="M37.3061 56.2589C39.4014 55.9585 40.8425 53.9192 40.5247 51.7041C40.207 49.4889 38.2508 47.9367 36.1555 48.237C34.0602 48.5374 32.6191 50.5767 32.9369 52.7918C33.2546 55.007 35.2107 56.5592 37.3061 56.2589Z" fill="#DDA423"/>
<path d="M26.1046 41.1129C28.2 40.8125 29.641 38.7733 29.3233 36.5581C29.0056 34.3429 27.0494 32.7907 24.9541 33.0911C22.8588 33.3914 21.4177 35.4307 21.7354 37.6458C22.0531 39.861 24.0093 41.4133 26.1046 41.1129Z" fill="#DDA423"/>
<path d="M17.9941 17.7895C20.0867 17.4812 22.0471 19.0448 22.3555 21.2469C22.6639 23.449 21.2321 25.497 19.1395 25.7833C17.0469 26.0696 15.0865 24.5281 14.7781 22.3259C14.4697 20.1238 15.9015 18.0758 17.9941 17.7895Z" fill="#DDA423"/>
<path d="M10.2563 8.56568C12.3516 8.26531 13.7926 6.22606 13.4749 4.0109C13.1572 1.79574 11.201 0.243496 9.1057 0.543865C7.01037 0.844234 5.56933 2.88347 5.88704 5.09863C6.20476 7.31379 8.16092 8.86605 10.2563 8.56568Z" fill="#DDA423"/>
<path d="M27.5612 63.2761C29.6565 62.9758 31.0976 60.9365 30.7799 58.7214C30.4621 56.5062 28.506 54.954 26.4106 55.2543C24.3153 55.5547 22.8743 57.5939 23.192 59.8091C23.5097 62.0243 25.4659 63.5765 27.5612 63.2761Z" fill="#DDA423"/>
<path d="M14.4037 37.6308C16.4963 37.3225 18.4568 38.886 18.7652 41.0881C19.0735 43.2902 17.6417 45.3382 15.5492 45.6245C13.4566 45.9108 11.4961 44.3693 11.1878 42.1671C10.8794 39.965 12.3112 37.917 14.4037 37.6308Z" fill="#DDA423"/>
<path d="M3.25775 19.9035C5.35034 19.5952 7.31076 21.1587 7.61914 23.3609C7.92752 25.563 6.49575 27.611 4.40316 27.8973C2.31057 28.1836 0.350153 26.6421 0.0417711 24.4399C-0.266611 22.2378 1.16516 20.1898 3.25775 19.9035Z" fill="#DDA423"/>
<path d="M51.894 44.3032C53.9866 43.9949 55.947 45.5585 56.2554 47.7606C56.5638 49.9627 55.132 52.0107 53.0394 52.297C50.9468 52.5833 48.9864 51.0418 48.678 48.8396C48.3696 46.6375 49.8014 44.5895 51.894 44.3032Z" fill="#DDA423"/>
<path d="M68.4145 60.4229C70.5071 60.1146 72.4675 61.6781 72.7759 63.8803C73.0843 66.0824 71.6525 68.1304 69.5599 68.4167C67.4673 68.7029 65.5069 67.1614 65.1985 64.9593C64.8901 62.7572 66.3219 60.7092 68.4145 60.4229Z" fill="#DDA423"/>
<path d="M76.9152 80.6929C79.0105 80.3926 80.4516 78.3533 80.1339 76.1382C79.8161 73.923 77.86 72.3708 75.7646 72.6711C73.6693 72.9715 72.2283 75.0107 72.546 77.2259C72.8637 79.4411 74.8199 80.9933 76.9152 80.6929Z" fill="#DDA423"/>
<path d="M41.299 30.3417C43.3916 30.0334 45.352 31.597 45.6604 33.7991C45.9688 36.0012 44.537 38.0492 42.4444 38.3355C40.3518 38.6218 38.3914 37.0803 38.083 34.8781C37.7746 32.676 39.2064 30.628 41.299 30.3417Z" fill="#DDA423"/>
<path d="M27.8183 11.205C29.9109 10.8967 31.8713 12.4603 32.1797 14.6624C32.4881 16.8645 31.0563 18.9125 28.9637 19.1988C26.8711 19.4851 24.9107 17.9436 24.6023 15.7414C24.2939 13.5393 25.7257 11.4913 27.8183 11.205Z" fill="#DDA423"/>
</svg>
