<svg width="312" height="630" viewBox="0 0 312 630" fill="none" xmlns="http://www.w3.org/2000/svg">
<path d="M187.694 9.84275C219.695 10.8817 247.674 36.4617 257.414 66.9644C267.154 97.467 260.964 131.351 246.704 160.04C229.017 195.644 199.114 226.012 191.353 265.041C183.355 305.163 200.68 346.206 223.509 380.147C246.344 414.124 274.983 444.224 294.213 480.33C317.31 523.782 321.677 585.553 282.508 615.397C252.678 638.117 207.771 631.993 177.987 609.189C148.202 586.386 131.174 550.636 120.472 514.685C109.77 478.734 104.246 441.301 91.7589 405.941C70.2145 344.97 28.6725 292.218 10.1239 230.234C-7.6111 170.938 -1.3442 102.133 37.1654 53.6632C75.675 5.19315 149.367 -15.9724 203.25 14.5723" fill="#A2C9C3"/>
</svg>
