<svg width="274" height="640" viewBox="0 0 274 640" fill="none" xmlns="http://www.w3.org/2000/svg">
<path d="M60.957 621.689C29.5377 615.526 6.02884 585.786 1.31223 554.115C-3.40438 522.444 8.14576 489.994 26.8265 463.966C50.0011 431.664 84.3915 406.491 98.3185 369.214C112.654 330.897 102.144 287.605 85.06 250.439C67.9762 213.236 44.5417 178.929 31.3574 140.204C15.5364 93.6072 21.1443 31.9363 64.5966 8.76798C97.6871 -8.86818 141.028 4.38678 166.765 31.6764C192.502 58.966 203.57 96.9859 208.36 134.189C213.151 171.392 212.594 209.226 219.242 246.132C230.718 309.771 263.251 368.508 271.608 432.667C279.592 494.041 262.36 560.947 216.568 602.605C170.776 644.264 94.6418 653.323 46.3615 614.523" fill="#A2C9C3"/>
</svg>
