<svg width="111" height="97" viewBox="0 0 111 97" fill="none" xmlns="http://www.w3.org/2000/svg">
<path d="M65.3809 64.0067C66.5509 64.1773 67.7154 64.3575 68.8911 64.5184C73.573 65.1757 78.0245 66.6581 82.4097 68.3224C85.2041 69.379 87.8804 70.7299 90.5709 72.0114C91.2008 72.3103 91.7687 72.8065 92.2559 73.3079C93.3714 74.4699 93.1922 75.9461 91.7785 76.7355C90.864 77.2433 89.8595 77.6604 88.8476 77.866C78.3305 80.0289 67.7874 80.8691 57.1755 78.5102C50.0574 76.9384 43.2417 74.5959 36.895 70.9705C33.5593 69.0576 30.2809 67.113 27.3235 64.5899C21.992 60.0356 19.2471 54.2298 18.7515 47.353C18.1163 38.4535 19.0199 29.6914 21.7871 21.1766C22.4894 19.0184 23.4682 16.942 24.4454 14.8907C25.2682 13.1517 26.4963 13.1097 27.575 14.7166C29.9672 18.2859 31.2921 22.3138 31.9753 26.489C32.5746 30.1368 32.7732 33.8511 33.1499 37.5257C33.183 37.8944 33.1911 38.2616 33.3687 38.649C33.9323 37.0451 34.4611 35.4341 35.0538 33.847C36.7682 29.3081 38.1358 24.6076 40.6539 20.4031C42.4685 17.3721 44.4288 14.4253 46.364 11.4769C46.7673 10.8681 47.3371 10.3296 47.9219 9.87731C48.9908 9.05722 50.0932 9.43472 50.4418 10.7366C50.6141 11.3799 50.6777 12.0769 50.6871 12.7557C50.7714 18.9547 49.6289 24.9245 47.3734 30.692C46.4659 33.0037 45.5835 35.3169 44.593 37.8396C44.9547 37.5046 45.2185 37.2943 45.449 37.052C49.1079 33.3378 52.9233 29.7787 57.4187 27.1042C60.3664 25.3619 63.4644 23.8747 66.5266 22.315C67.1483 22.0006 67.8763 21.8382 68.5722 21.7091C70.0502 21.436 70.879 22.3547 70.2677 23.7498C69.6789 25.106 68.9675 26.4951 68.0071 27.598C64.1881 31.9707 60.2637 36.2567 56.3588 40.5539C55.0199 42.021 53.5952 43.4125 52.3034 44.9326C54.4549 43.6499 56.5762 42.285 58.7774 41.0957C64.6602 37.9016 70.8856 35.5267 77.3157 33.6715C78.3837 33.3688 79.5233 33.211 80.6263 33.1616C82.4288 33.0887 83.3101 34.3874 82.4406 35.983C81.7185 37.3011 80.7976 38.5821 79.7386 39.654C75.057 44.4221 69.9439 48.6821 64.1588 52.0881C63.7893 52.302 63.4377 52.5522 63.1507 52.9821C63.5795 52.8672 64.0083 52.7522 64.4469 52.6428C72.6591 50.6382 80.9428 50.6171 89.2601 51.7936C89.8577 51.8796 90.4701 52.052 91.0015 52.3199C92.192 52.9036 92.4741 54.1413 91.5575 55.1011C90.9357 55.752 90.1684 56.3189 89.3655 56.723C84.3032 59.3031 78.9043 60.9639 73.3726 62.1596C70.7112 62.7336 68.0528 63.2575 65.3929 63.8065C65.3843 63.8662 65.3757 63.926 65.3768 63.9914L65.3809 64.0067ZM36.0972 61.4333C38.2462 62.5316 39.662 62.7923 40.8495 62.5067C42.4142 62.1283 43.2089 60.7743 42.7487 59.2397C41.9107 56.3864 38.7007 54.0541 35.7217 54.1468C33.4922 54.2192 32.3935 55.786 33.1459 57.8907C33.7872 59.6723 35.0804 60.8851 36.0875 61.4277L36.0972 61.4333Z" fill="#EC651B"/>
<path d="M23.1532 27.3663C23.4359 27.5658 23.6688 27.8486 23.8684 28.1146C24.4174 28.8796 23.8352 29.445 23.1532 29.8275C22.4046 30.2433 21.5895 30.1102 21.0406 29.2787C20.475 28.4306 21.0905 27.1501 22.1052 27.0337C22.5044 26.9838 22.8704 27.1335 23.1698 27.3497L23.1532 27.3663Z" fill="white"/>
<path d="M35.5459 37.76C35.6124 38.5749 35.1966 39.0239 34.315 39.1237C33.3668 39.2235 32.6016 38.708 32.5683 37.9929C32.5351 37.2113 33.2004 36.4463 33.9324 36.4297C34.7474 36.413 35.496 37.0283 35.5459 37.7767V37.76Z" fill="white"/>
<path d="M10.8937 50.2492C10.9436 50.8811 10.6442 51.247 10.0288 51.3135C9.36337 51.3966 8.81444 50.9809 8.78117 50.4155C8.7479 49.8002 9.2303 49.2015 9.74597 49.1849C10.3282 49.1849 10.8438 49.6671 10.8937 50.2492Z" fill="white"/>
<path d="M27.3452 36.6458C26.4303 36.6625 25.8481 36.2301 25.8148 35.4817C25.7815 34.8332 26.3804 34.2178 27.0457 34.2178C27.7444 34.2178 28.493 34.8498 28.5595 35.4984C28.6427 36.2634 28.2601 36.6126 27.3452 36.6292V36.6458Z" fill="white"/>
<path d="M14.5864 32.1391C14.6363 30.2765 16.8321 30.2766 17.1814 32.0227C17.2479 33.9019 14.653 34.0016 14.5864 32.1391Z" fill="white"/>
<path d="M49.6187 43.7635C50.517 43.7635 51.2322 44.462 51.1158 45.36C51.0659 45.7092 50.6168 46.1915 50.2674 46.2414C49.4024 46.4077 48.1715 45.5595 48.2048 44.9276C48.238 44.0296 48.8701 43.7968 49.6187 43.7469V43.7635Z" fill="white"/>
<path d="M41.0518 42.5162C41.6008 43.0484 41.4012 43.9631 40.7192 44.2957C40.6693 44.3123 40.6194 44.3455 40.5694 44.3455C39.9706 44.5118 39.1888 43.9131 39.1223 43.3643C39.0557 42.8155 39.5714 42.2501 40.1869 42.2003C40.5029 42.167 40.819 42.2834 41.0518 42.5162Z" fill="white"/>
<path d="M35.8619 50.5319C35.0967 50.349 35.0967 48.952 35.6123 48.3699C35.8785 48.054 36.8932 47.5052 37.359 48.6859C37.5419 49.1183 37.359 49.6837 37.1094 50.0828C36.9265 50.3822 36.2777 50.6649 35.8619 50.5485V50.5319Z" fill="white"/>
<path d="M24.5837 52.0286C24.4339 52.6938 23.7519 52.9599 23.203 53.0264C22.8537 53.0597 22.2382 52.5774 21.9554 52.1616C21.7392 51.8457 21.6893 51.0641 21.8556 50.8146C22.0885 50.4654 22.6374 50.1494 23.02 50.2659C23.7187 50.482 24.7999 51.0308 24.5837 52.0286Z" fill="white"/>
<path d="M28.7423 42.0839C29.6905 41.9176 30.5555 42.6327 30.0897 43.6305C29.9234 43.9631 29.4077 44.4952 29.0584 44.4786C28.4429 44.462 27.6611 44.146 27.7276 43.3644C27.7609 42.9985 28.2266 42.2502 28.7589 42.0839H28.7423Z" fill="white"/>
<path d="M35.5459 31.5903C35.9783 30.4761 37.542 30.526 38.1575 31.5405C38.2573 31.6901 38.3238 31.8564 38.3737 32.0061C38.6066 32.9041 37.8248 33.3365 37.0596 33.3199C36.178 33.3199 35.4128 32.7212 35.496 31.8232C35.496 31.74 35.5292 31.6735 35.5459 31.5903Z" fill="white"/>
<path d="M3.54126 37.5937C3.54126 37.2445 3.84068 36.9452 4.10683 36.7622C4.55596 36.4795 4.98845 36.6126 5.37105 36.9618C5.62056 37.1947 5.737 37.9097 5.57066 38.2091C5.2546 38.8078 4.6225 38.6248 4.1401 38.3421C3.82405 38.1592 3.54126 37.9929 3.54126 37.5771V37.5937Z" fill="white"/>
<path d="M16.4661 44.4619C16.9984 43.331 18.3292 42.882 19.2607 44.096C19.4936 44.3954 19.2274 45.3766 18.8781 45.7424C18.2127 46.4575 15.8839 45.8422 16.4827 44.4453L16.4661 44.4619Z" fill="white"/>
<path d="M41.9667 47.7713C42.4158 47.1726 43.2642 47.8877 43.4139 48.2203C43.5968 48.636 43.8297 49.717 43.1145 50.0329C42.5156 50.3655 41.3013 49.7502 41.9667 47.7546V47.7713Z" fill="white"/>
<path d="M41.2515 56.7847C41.1683 57.0841 40.6859 57.2837 40.3033 57.3336C39.4051 57.45 38.6565 56.9012 38.6399 56.236C38.6066 55.5874 39.0058 55.3213 39.6712 55.2714C40.5029 55.2215 41.501 55.471 41.2515 56.8014V56.7847Z" fill="white"/>
<path d="M36.2279 42.9984C36.178 43.5472 35.2132 44.0295 34.814 44.1792C34.2151 44.3954 33.4999 44.2623 33.4333 43.5805C33.4001 43.2313 33.8658 42.6659 34.2484 42.4829C34.8306 42.2168 36.0948 41.7678 36.2113 42.9984H36.2279Z" fill="white"/>
<path d="M10.644 39.0239C12.058 38.3754 13.422 40.7368 13.1226 41.5683C12.9562 42.0173 12.2576 42.5661 11.8084 42.5495C10.6274 42.483 9.46299 39.9552 10.644 39.0239Z" fill="white"/>
<path d="M42.3659 65.3659C42.3327 65.0665 42.4325 64.7838 42.7651 64.5843C43.6468 64.0355 44.8278 64.5344 44.5284 65.6985C44.3454 66.4136 43.5303 66.8792 42.9481 66.3305C42.6487 66.0644 42.4158 65.6985 42.3659 65.3659Z" fill="white"/>
<path d="M22.3548 57.4667C22.3548 58.7305 21.6229 59.4955 20.1258 58.4312C20.0093 58.3481 19.294 57.7327 19.2441 57.317C19.1277 56.4522 19.7432 56.0199 20.5749 56.0864C21.2236 56.1363 22.1552 56.4023 22.3548 57.4667Z" fill="white"/>
<path d="M17.8966 52.145C17.8966 53.0929 16.9485 53.1428 16.4495 53.2093C15.5512 53.3257 15.2185 52.6439 15.2185 51.8291C15.2185 50.9477 15.8839 50.7148 16.516 50.8811C17.015 51.0142 17.6638 50.8811 17.8966 52.1284V52.145Z" fill="white"/>
<path d="M34.1985 53.9577C35.3463 54.7061 34.9637 55.8203 34.2151 56.4356C33.7826 56.6684 33.2337 56.7682 32.8178 56.6185C32.1192 56.3691 31.8364 55.2382 32.3188 54.6229C32.6348 54.2072 32.9509 53.409 34.1985 53.9577Z" fill="white"/>
<path d="M2.17708 46.4077C1.29545 46.7569 0.397186 45.7424 0.197572 45.3433C-0.0186756 44.8943 -0.151752 44.013 0.314013 43.6138C0.86295 43.1648 1.67804 43.6471 1.96083 43.9464C2.50976 44.5118 3.04207 45.3766 2.16044 46.4077H2.17708Z" fill="white"/>
<path d="M22.5209 42.8156C21.6892 42.3333 21.3066 41.3189 21.2733 40.6537C21.2567 39.8887 21.7724 39.6891 22.3878 39.6891C22.8203 39.6891 23.519 40.1382 23.6188 40.2379C24.8331 41.5351 23.835 43.3145 22.5209 42.8156Z" fill="white"/>
<path d="M47.3064 53.4255C46.1254 53.9909 44.8445 53.0596 45.1107 52.1616C45.2271 51.7791 45.9091 51.3135 46.3083 51.3468C47.6557 51.4632 48.0051 52.7437 47.3064 53.4089V53.4255Z" fill="white"/>
<path d="M30.0399 49.2015C30.0732 49.9332 29.3745 50.4986 28.26 50.2824C27.9107 50.2824 27.3285 49.6505 27.2619 49.2514C27.1455 48.5363 27.6944 47.6216 28.4762 47.5717C29.5242 47.5052 30.0565 47.8877 30.0399 49.2015Z" fill="white"/>
<path d="M31.8362 27.4162C31.936 28.5969 31.1875 29.0626 29.8567 28.8963C29.3078 28.8298 29.0416 28.5304 28.8753 27.9982C28.7755 27.6656 28.8753 27.3663 29.0416 27.0836C29.3078 26.6512 30.0563 26.4683 30.5387 26.4184C31.1376 26.3685 31.7198 26.5016 31.8528 27.3996L31.8362 27.4162Z" fill="white"/>
<path d="M16.9818 62.9878C15.8839 62.6718 15.8673 61.7738 15.9005 61.4911C16.017 60.6928 16.4661 60.2105 17.0816 60.3436C17.4975 60.5099 17.747 61.0753 17.8135 61.4079C17.9466 62.0232 18.063 63.0044 16.9818 62.9878Z" fill="white"/>
<path d="M9.87876 58.9134C8.68108 58.9466 8.04897 57.9821 8.78089 57.0342C9.39636 56.2359 10.6606 56.0198 11.0432 57.3834C11.0931 58.5642 10.4776 58.8967 9.8954 58.9134H9.87876Z" fill="white"/>
<path d="M27.3782 61.2749C27.2285 62.0565 26.2804 62.0565 26.0142 62.1396C25.432 62.3225 24.5837 62.2228 24.3341 61.3081C24.2676 60.4267 25.4986 60.3602 25.7813 60.3768C26.3469 60.4101 27.2452 60.3768 27.3782 61.2749Z" fill="white"/>
<path d="M22.6875 64.3348C22.072 64.8337 21.3401 64.2183 21.0906 64.1186C20.525 63.8857 19.9428 63.2538 20.3087 62.389C20.8078 61.6573 21.8058 62.4223 22.0221 62.6219C22.4379 63.021 23.1532 63.5698 22.6875 64.3348Z" fill="white"/>
<path d="M28.1269 57.5497C28.0769 56.0863 29.4077 56.1861 30.1895 56.9677C30.3725 57.1507 30.3725 57.8325 30.1895 58.0154C29.4243 58.8137 28.4263 58.5808 28.1269 57.5497Z" fill="white"/>
<path d="M37.6252 66.6962C37.7749 67.4446 36.7935 68.2262 35.9285 67.561C35.6623 67.3615 35.5126 66.5133 35.679 66.2971C36.2945 65.5654 37.3092 65.5821 37.6086 66.6797L37.6252 66.6962Z" fill="white"/>
<path d="M38.8227 62.4389C38.3237 63.6363 36.4107 63.8691 35.9616 62.1895C35.9117 62.0232 35.9782 61.5077 36.1612 61.3746C37.1593 60.7094 38.9558 60.6928 38.8227 62.4223V62.4389Z" fill="white"/>
<path d="M46.7408 59.0631C46.4913 59.8114 45.6097 60.1108 45.094 59.9112C44.7114 59.7616 44.1458 59.3791 44.0294 58.7804C44.0128 58.2649 44.2456 57.8658 45.0108 57.6496C45.1938 57.5997 47.1899 57.6495 46.7408 59.0631Z" fill="white"/>
<path d="M50.833 54.5397C50.3506 53.5086 51.3819 52.727 52.0639 53.2758C52.2802 53.4421 52.6295 54.1239 52.6129 54.3568C52.563 55.7537 51.2322 55.4377 50.833 54.5397Z" fill="white"/>
<path d="M50.7332 63.3037C49.5522 63.4534 49.2694 62.888 49.2361 62.2394C49.2195 61.7072 49.6187 61.1917 50.2175 61.1086C50.7997 61.0254 51.2655 61.541 51.3986 61.99C51.5649 62.572 51.4485 63.0044 50.7166 63.3037H50.7332Z" fill="white"/>
<path d="M30.3559 66.2639C29.624 66.0976 29.4743 65.5321 29.6074 64.9834C29.6573 64.7672 29.7405 63.9856 30.3393 64.2517C31.1211 64.5344 31.1045 65.0166 31.1377 65.2661C31.3041 66.3637 30.7385 66.2639 30.3393 66.2473L30.3559 66.2639Z" fill="white"/>
<path d="M33.0175 70.4214C32.7846 70.4214 32.402 70.2384 32.2856 69.7562C32.1691 69.2905 32.2523 68.9247 32.7513 68.8249C33.3003 68.908 33.45 69.1741 33.5831 69.3903C33.7827 69.6896 33.633 70.4047 33.0175 70.4214Z" fill="white"/>
<path d="M32.5269 62.9689C28.167 61.429 23.2981 60.9983 18.9121 62.473C14.5261 63.9346 10.7145 67.4581 9.53972 71.9342C8.67819 75.2098 9.25254 78.7463 10.5187 81.8914C13.521 89.369 22.0711 95.3198 29.6029 92.4488C31.8612 91.5875 33.8192 90.0215 35.3464 88.1423C41.4946 80.6386 39.7455 68.0192 31.7828 62.473" fill="#F0805F"/>
<path d="M46.3244 71.4774L50.9715 76.8932L44.0401 75.2098L44.1054 82.3481L39.876 76.5931L35.3465 82.1132L35.8033 74.9879L28.7806 76.306L33.7148 71.1382L27.4883 67.6277L34.5894 66.8447L32.07 60.1631L38.0224 64.1173L40.3851 57.3835L42.3953 64.2347L48.5435 60.6068L45.6848 67.1449L52.7206 68.3063L46.3244 71.4774Z" fill="#A2C9C3"/>
</svg>
