<svg width="46" height="43" viewBox="0 0 46 43" fill="none" xmlns="http://www.w3.org/2000/svg">
<path d="M23.7919 42.1633C29.0706 40.2744 34.1377 37.815 38.9059 34.8358C39.877 34.2273 40.8356 33.5934 41.5826 32.7187C42.2674 31.92 42.7404 30.9438 43.2135 29.993C44.5332 27.2801 45.8529 24.4657 45.9898 21.4485C46.189 16.6945 43.4252 12.3969 40.7609 8.47962C39.8895 7.19921 39.0055 5.90614 37.8477 4.89195C36.8144 3.99186 35.5943 3.34529 34.3867 2.7241C32.457 1.73527 30.4899 0.7718 28.3734 0.353449C26.9666 0.0745474 25.5225 0.0491927 24.0783 0.0365154C20.2811 -0.0268713 16.4715 -0.0775744 12.7241 0.51826C11.28 0.746452 9.82334 1.08872 8.59082 1.88739C7.30849 2.7241 6.37477 3.99184 5.46594 5.22154C2.81415 8.83458 0.0502945 12.7773 0.000495598 17.2904C-0.0119541 18.6215 0.212142 19.9526 0.448687 21.271C0.672782 22.5261 0.884436 23.7938 1.10853 25.0489C1.29528 26.1265 1.48201 27.2167 1.86796 28.2563C2.77679 30.6776 4.69405 32.5412 6.22536 34.6203C6.89765 35.533 7.50769 36.4965 8.24223 37.3839C11.3173 41.0984 16.235 42.8352 21.0157 43" fill="#3A6C6E"/>
</svg>
