<svg width="63" height="139" viewBox="0 0 63 139" fill="none" xmlns="http://www.w3.org/2000/svg">
<path d="M34.768 125.998C61.1131 99.1651 61.9701 74.0032 62.27 61.8817C62.5975 48.4537 54.4813 28.4494 51.9396 23.3886C49.3844 18.3345 39.3331 1.44068 36.6507 0.815813C33.9615 0.177569 10.699 19.8957 11.3601 20.9045C11.9267 21.7596 13.7443 25.1888 15.837 28.7307C27.2904 48.9952 26.0359 67.7604 20.8088 82.0539C14.9067 98.1659 0.113685 111 1.02008 112.926C3.71178 118.549 14.67 133.053 18.8127 138.094C19.0014 138.334 28.7269 132.175 34.7814 125.992L34.768 125.998Z" fill="#DDA423"/>
</svg>
