<svg width="333" height="361" viewBox="0 0 333 361" fill="none" xmlns="http://www.w3.org/2000/svg">
<path d="M190.631 67.1796C191.428 68.8141 191.929 70.7191 192.213 72.57C192.958 77.6366 188.742 78.8818 184.512 79.0324C179.931 79.2103 176.255 76.4557 175.699 71.0919C175.13 65.5523 181.21 60.9823 186.387 63.0201C188.427 63.8163 189.82 65.3695 190.739 67.2066L190.631 67.1796Z" fill="#FFF6F0"/>
<path d="M224.205 148.193C222.503 152.247 219.341 153.411 214.895 151.67C210.084 149.781 207.664 145.445 209.366 141.85C211.121 138.039 216.296 135.942 219.864 137.751C223.865 139.667 225.866 144.531 224.246 148.261L224.205 148.193Z" fill="#FFF6F0"/>
<path d="M74.3945 146.537C73.017 149.753 70.7199 150.673 67.5169 149.472C64.1653 148.177 62.4618 144.881 63.7989 142.056C65.19 139.015 68.9463 137.311 71.5142 138.526C74.3388 139.862 75.6506 143.577 74.354 146.469L74.3945 146.537Z" fill="#FFF6F0"/>
<path d="M187.604 122.295C183.157 120.095 181.467 116.515 183.169 112.92C184.655 109.731 189.1 108.256 192.195 109.889C195.547 111.644 197.548 116.508 196.252 119.859C194.712 123.724 192.05 124.496 187.604 122.295Z" fill="#FFF6F0"/>
<path d="M137.483 68.6784C142.386 59.8529 152.914 65.293 150.308 74.5768C145.932 83.821 133.201 77.7739 137.483 68.6784Z" fill="#FFF6F0"/>
<path d="M276.896 212.213C281.208 214.494 282.979 219.587 280.075 223.629C278.994 225.197 275.548 226.347 273.846 225.807C269.251 224.431 265.479 217.232 267.235 214.339C269.666 210.122 273.234 210.553 277.004 212.24L276.896 212.213Z" fill="#FFF6F0"/>
<path d="M238.836 184.803C240.201 188.761 236.932 192.654 232.783 192.481C232.5 192.467 232.216 192.454 231.892 192.373C228.554 191.712 226.336 186.795 227.362 184.065C228.456 181.295 232.375 179.861 235.402 181.075C236.97 181.696 238.241 183.047 238.836 184.803Z" fill="#FFF6F0"/>
<path d="M193.693 210.348C190.477 207.593 193.988 200.89 197.893 199.28C200.055 198.441 206.163 198.357 205.557 205.154C205.328 207.681 203.099 209.938 200.937 211.236C199.316 212.21 195.478 211.942 193.734 210.416L193.693 210.348Z" fill="#FFF6F0"/>
<path d="M135.81 189.42C133.487 192.285 129.527 191.815 126.689 190.762C124.905 190.087 123.161 186.264 122.836 183.427C122.606 181.36 124.253 177.522 125.78 176.697C127.847 175.547 131.158 175.397 132.767 177.004C135.565 179.827 139.363 185.081 135.81 189.42Z" fill="#FFF6F0"/>
<path d="M180.666 151.917C185.666 153.509 188.046 159.155 183.263 162.671C181.588 163.861 177.831 165.105 176.169 164.174C173.249 162.527 170.33 159.042 172.491 155.447C173.531 153.812 177.652 151.337 180.625 151.849L180.666 151.917Z" fill="#FFF6F0"/>
<path d="M239.616 118.446C244.412 114.188 251.873 118.346 252.334 124.777C252.375 125.764 252.375 126.682 252.159 127.547C251.092 132.506 246.147 132.536 242.497 130.592C238.294 128.338 236.09 123.596 238.738 119.433C238.995 119.095 239.251 118.757 239.616 118.446Z" fill="#FFF6F0"/>
<path d="M70.7532 67.3058C71.6446 65.5759 73.8201 64.9127 75.5768 64.7767C78.4551 64.5186 80.2528 66.2878 81.1994 68.9357C81.7945 70.6919 80.6332 74.4216 79.0524 75.4628C75.9989 77.5721 73.4443 75.1548 71.8626 72.5208C70.8486 70.8323 69.9158 69.2789 70.8612 67.3328L70.7532 67.3058Z" fill="#FFF6F0"/>
<path d="M115.702 132.667C121.146 128.57 128.66 129.756 129.96 137.889C130.325 139.875 126.542 143.985 123.961 144.891C118.975 146.691 109.352 137.859 115.634 132.708L115.702 132.667Z" fill="#FFF6F0"/>
<path d="M230.045 212.411C233.694 210.68 236.033 216.259 235.831 218.219C235.669 220.705 234.062 226.448 229.806 226.247C226.103 226.357 221.791 220.401 229.978 212.452L230.045 212.411Z" fill="#FFF6F0"/>
<path d="M204.056 253.932C202.907 255.081 200.137 254.907 198.137 254.178C193.515 252.451 191.365 247.953 192.81 244.696C194.296 241.506 196.89 241.235 200.215 242.638C204.351 244.474 208.527 248.214 203.948 253.905L204.056 253.932Z" fill="#FFF6F0"/>
<path d="M214.334 175.073C212.726 177.6 206.848 177.454 204.564 177.172C201.105 176.768 198.05 174.284 199.481 170.851C200.197 169.135 203.927 167.538 206.197 167.645C209.602 167.806 216.927 168.829 214.401 175.032L214.334 175.073Z" fill="#FFF6F0"/>
<path d="M101.327 92.0445C109.732 92.4187 110.412 107.173 106.885 110.485C105.007 112.256 100.197 113.123 98.129 111.976C92.6147 108.763 93.3542 93.6157 101.327 92.0445Z" fill="#FFF6F0"/>
<path d="M187.837 297.948C188.391 296.421 189.58 295.339 191.688 295.176C197.242 294.781 201.716 300.089 197.393 304.983C194.691 307.984 189.651 308.162 188.204 304.068C187.446 302.042 187.23 299.691 187.878 298.015L187.837 297.948Z" fill="#FFF6F0"/>
<path d="M111.451 209.929C108.317 216.038 102.872 217.838 98.3425 209.071C97.937 208.395 96.125 203.694 96.9083 201.478C98.5423 197.005 102.529 196.449 106.353 198.838C109.394 200.688 113.206 204.28 111.451 209.929Z" fill="#FFF6F0"/>
<path d="M103.279 173.208C100.943 177.736 96.1854 175.63 93.6041 174.699C88.9145 173.013 89.0892 168.864 91.1558 164.959C93.3439 160.796 97.1278 161.28 99.75 163.657C101.805 165.548 105.305 166.478 103.239 173.141L103.279 173.208Z" fill="#FFF6F0"/>
<path d="M177.115 222.693C180.793 229.123 176.118 233.584 171.037 234.613C168.389 234.641 165.497 233.805 163.834 231.955C161.063 229.024 162.534 222.903 166.426 221.117C168.953 219.967 172.492 216.831 177.183 222.652L177.115 222.693Z" fill="#FFF6F0"/>
<path d="M42.1276 106.274C37.0329 105.75 35.2474 98.6433 35.2738 96.2382C35.3137 93.5493 36.9071 89.0086 40.2042 88.2233C44.0283 87.3972 46.7051 91.8548 47.3272 93.9623C48.4904 98.0423 48.9107 103.487 42.1682 106.342L42.1276 106.274Z" fill="#FFF6F0"/>
<path d="M148.919 139.92C146.107 135.544 146.782 129.625 148.335 126.395C150.131 122.652 153.158 122.947 156.145 124.554C158.213 125.701 160.484 129.483 160.687 130.281C163.243 139.589 153.988 145.606 148.919 139.92Z" fill="#FFF6F0"/>
<path d="M241.514 252.941C234.393 252.715 230.58 244.988 234.12 241.392C235.592 239.865 240.079 239.376 241.863 240.51C247.999 244.453 246.487 251.425 241.514 252.941Z" fill="#FFF6F0"/>
<path d="M169.135 189.35C167.433 192.945 162.704 193.947 157.919 190.112C156.229 189.288 154.998 184.789 155.714 182.614C156.943 178.843 161.807 175.923 165.753 177.596C170.984 179.877 172.579 183.146 169.202 189.309L169.135 189.35Z" fill="#FFF6F0"/>
<path d="M232.339 89.1833C229.867 95.1702 225.084 95.4698 219.042 91.3787C216.542 89.6639 215.987 87.5159 216.54 84.6106C216.891 82.7458 218.04 81.5967 219.593 80.6636C221.958 79.2437 226.026 80.2011 228.431 81.1457C231.459 82.3603 233.919 84.467 232.271 89.2239L232.339 89.1833Z" fill="#FFF6F0"/>
<path d="M71.8194 223.068C67.3183 218.787 69.4523 214.381 70.3844 213.178C72.9376 209.624 76.3426 208.406 78.9513 210.607C80.5058 212.43 80.3039 215.768 79.8043 217.538C78.8862 220.754 76.9822 225.849 71.8869 223.028L71.8194 223.068Z" fill="#FFF6F0"/>
<path d="M47.7965 185.666C41.958 182.832 41.3753 176.657 47.1719 173.911C52.1172 171.585 58.7528 173.757 57.1736 181.23C54.4048 187.028 50.6617 187.07 47.7965 185.666Z" fill="#FFF6F0"/>
<path d="M126.067 240.85C123.365 244.31 118.864 241.867 117.324 241.598C114.026 241.005 110.255 238.399 111.322 233.439C113.172 229.02 119.254 231.801 120.619 232.543C123.281 234.069 127.687 236.201 126.067 240.85Z" fill="#FFF6F0"/>
<path d="M95.8246 243.756C91.5816 244.65 89.6209 239.854 88.7152 238.652C86.5389 236.1 85.3081 231.601 89.2667 228.397C93.5093 226.125 96.3892 232.298 96.8896 233.744C97.9308 236.702 99.932 241.106 95.784 243.689L95.8246 243.756Z" fill="#FFF6F0"/>
<path d="M138.927 224.765C142.263 217.616 148.494 221.41 150.279 227.138C150.699 228.448 149.01 231.759 147.699 232.179C142.051 234.1 137.78 230.508 138.927 224.765Z" fill="#FFF6F0"/>
<path d="M161.688 292.515C160.513 296.529 153.892 297.748 151.364 292.466C150.566 290.832 151.916 286.345 153.321 285.777C158.118 283.815 162.984 286.407 161.647 292.448L161.688 292.515Z" fill="#FFF6F0"/>
<path d="M178.183 274.983C172.806 279.498 162.981 275.841 164.992 266.639C165.235 265.666 166.788 263.355 168.018 263.26C174.504 262.581 183.154 267.035 178.183 274.983Z" fill="#FFF6F0"/>
<path d="M224.724 278.554C221.63 281.514 216.657 280.733 214.684 278.518C213.251 276.897 211.547 273.601 212.398 270.426C213.614 267.858 215.667 266.533 219.938 267.368C220.978 267.571 230.331 272.89 224.724 278.554Z" fill="#FFF6F0"/>
<path d="M255.68 267.04C255.949 260.906 262.854 259.7 264.747 264.077C265.342 265.374 265.343 269.508 264.722 270.616C261.061 277.225 255.384 272.364 255.68 267.04Z" fill="#FFF6F0"/>
<path d="M233.259 308.991C227.259 306.805 227.204 303.346 228.689 300.157C229.905 297.589 233.148 296.101 236.27 297.167C239.283 298.206 240.271 301.84 239.798 304.421C239.164 307.651 237.529 309.368 233.259 308.991Z" fill="#FFF6F0"/>
<path d="M127.926 272.264C124.858 269.604 125.573 266.509 127.519 264.238C128.262 263.333 130.707 259.751 132.87 262.587C135.884 265.923 134.614 268.248 134.182 269.518C132.251 275.18 129.778 273.358 127.926 272.264Z" fill="#FFF6F0"/>
<path d="M130.298 298.868C129.122 298.287 127.811 296.41 128.391 293.856C129.012 291.369 130.336 289.747 133.012 290.529C135.377 292.325 135.472 294.014 135.608 295.311C135.757 297.243 133.271 300.298 130.298 298.868Z" fill="#FFF6F0"/>
</svg>
