<svg width="393" height="361" viewBox="0 0 393 361" fill="none" xmlns="http://www.w3.org/2000/svg">
<path d="M58.2159 206.997C35.2753 202.475 -2.43871 190.147 0.123601 162.129C2.68591 134.111 42.9622 126.467 70.9874 129.028C115.107 133.071 181.607 156.085 179.565 178.499C177.003 206.517 86.2011 212.521 58.2159 206.997Z" fill="white"/>
<path d="M334.545 153.484C357.485 158.007 395.199 170.334 392.637 198.352C390.075 226.37 349.798 234.015 321.773 231.453C277.653 227.41 211.154 204.396 213.195 181.982C215.758 153.964 306.559 147.96 334.545 153.484Z" fill="white"/>
<path d="M102.216 75.7146C94.2885 53.7407 85.4006 15.0762 110.743 2.78846C136.086 -9.45929 163.391 21.1201 175.642 46.4561C194.939 86.3213 209.472 155.165 189.214 164.971C163.871 177.219 111.904 102.532 102.256 75.7146H102.216Z" fill="white"/>
<path d="M290.545 284.807C298.472 306.781 307.36 345.445 282.017 357.693C256.674 369.941 229.37 339.361 217.119 314.025C197.822 274.16 183.288 205.317 203.547 195.51C228.889 183.263 280.856 257.95 290.505 284.767L290.545 284.807Z" fill="white"/>
<path d="M237.978 45.8556C252.791 27.7642 281.457 0.34682 304.958 15.8366C328.459 31.3264 316.168 70.4311 300.714 93.926C276.332 130.909 224.646 178.66 205.829 166.252C182.327 150.762 219.881 67.9096 237.978 45.8556Z" fill="white"/>
<path d="M154.783 314.626C139.97 332.717 111.304 360.135 87.8025 344.645C64.3014 329.155 76.5924 290.05 92.0463 266.555C116.428 229.572 168.115 181.822 186.932 194.23C210.433 209.719 172.879 292.612 154.783 314.626Z" fill="white"/>
<path d="M200.785 145.278C218.961 148.16 231.372 165.251 228.489 183.423C225.607 201.594 208.511 214.002 190.335 211.12C172.159 208.238 159.748 191.147 162.63 172.976C165.513 154.804 182.608 142.397 200.785 145.278Z" fill="#FCBE35"/>
</svg>
