<svg width="1506" height="134" viewBox="0 0 1506 134" fill="none" xmlns="http://www.w3.org/2000/svg">
<path opacity="0.3" d="M68.6975 131.053L84.6916 2.36531H105.282L89.4715 131.053H68.6975ZM0.676797 101.639V81.6003H119.437V101.639H0.676797ZM21.083 131.053L37.0771 2.36531H57.6672L41.6731 131.053H21.083ZM6.92735 51.8182V31.7797H125.504L125.688 51.8182H6.92735ZM136.3 131.053V111.75L215.903 15.7856L219.58 26.6322H137.771V2.36531H246.053V21.6685L166.634 117.633L162.957 106.786H248.81V131.053H136.3ZM295.303 54.2082H357.257V77.372H295.303V54.2082ZM297.509 107.154H367.552V131.053H267.911V2.36531H365.162V26.2645H297.509V107.154ZM391.249 131.053V2.36531H446.952C458.473 2.36531 468.4 4.26499 476.734 8.06435C485.068 11.7411 491.503 17.0725 496.038 24.0584C500.572 31.0443 502.84 39.3784 502.84 49.0606C502.84 58.6203 500.572 66.8931 496.038 73.879C491.503 80.7424 485.068 86.0125 476.734 89.6893C468.4 93.3661 458.473 95.2044 446.952 95.2044H407.794L421.031 82.1518V131.053H391.249ZM473.058 131.053L440.886 84.3579H472.69L505.23 131.053H473.058ZM421.031 85.4609L407.794 71.4891H445.298C454.49 71.4891 461.353 69.5281 465.888 65.6062C470.423 61.5618 472.69 56.0466 472.69 49.0606C472.69 41.9522 470.423 36.437 465.888 32.5151C461.353 28.5931 454.49 26.6322 445.298 26.6322H407.794L421.031 12.4765V85.4609ZM588.941 133.259C578.769 133.259 569.332 131.605 560.63 128.296C552.051 124.987 544.575 120.329 538.202 114.324C531.951 108.318 527.049 101.271 523.494 93.1822C520.063 85.0933 518.347 76.2689 518.347 66.7093C518.347 57.1496 520.063 48.3253 523.494 40.2363C527.049 32.1474 532.012 25.1002 538.385 19.0947C544.759 13.0893 552.235 8.43203 560.814 5.12291C569.393 1.8138 578.708 0.159241 588.758 0.159241C598.93 0.159241 608.245 1.8138 616.701 5.12291C625.28 8.43203 632.695 13.0893 638.946 19.0947C645.319 25.1002 650.283 32.1474 653.837 40.2363C657.391 48.2027 659.168 57.027 659.168 66.7093C659.168 76.2689 657.391 85.1545 653.837 93.366C650.283 101.455 645.319 108.502 638.946 114.508C632.695 120.391 625.28 124.987 616.701 128.296C608.245 131.605 598.991 133.259 588.941 133.259ZM588.758 107.889C594.518 107.889 599.788 106.909 604.568 104.948C609.47 102.987 613.76 100.168 617.437 96.4913C621.113 92.8145 623.932 88.4637 625.893 83.4387C627.977 78.4137 629.018 72.8373 629.018 66.7093C629.018 60.5813 627.977 55.0048 625.893 49.9798C623.932 44.9549 621.113 40.604 617.437 36.9272C613.882 33.2504 609.654 30.4315 604.752 28.4706C599.849 26.5096 594.518 25.5291 588.758 25.5291C582.997 25.5291 577.666 26.5096 572.763 28.4706C567.984 30.4315 563.755 33.2504 560.079 36.9272C556.402 40.604 553.522 44.9549 551.438 49.9798C549.477 55.0048 548.497 60.5813 548.497 66.7093C548.497 72.7147 549.477 78.2912 551.438 83.4387C553.522 88.4637 556.34 92.8145 559.895 96.4913C563.571 100.168 567.861 102.987 572.763 104.948C577.666 106.909 582.997 107.889 588.758 107.889ZM708.127 131.053L666.028 2.36531H696.913L733.497 116.346H718.054L756.293 2.36531H783.869L820.637 116.346H805.746L843.249 2.36531H871.745L829.645 131.053H797.657L765.117 31.0443H773.574L740.115 131.053H708.127ZM930.654 133.259C920.359 133.259 910.493 131.911 901.055 129.215C891.618 126.396 884.02 122.78 878.259 118.368L888.371 95.9398C893.886 99.8617 900.381 103.11 907.858 105.683C915.456 108.135 923.116 109.36 930.838 109.36C936.72 109.36 941.439 108.809 944.993 107.706C948.67 106.48 951.366 104.825 953.082 102.742C954.798 100.658 955.656 98.2684 955.656 95.5721C955.656 92.1405 954.308 89.4441 951.611 87.4832C948.915 85.3997 945.361 83.7451 940.949 82.5195C936.537 81.1713 931.634 79.9457 926.242 78.8427C920.971 77.6171 915.64 76.1464 910.247 74.4305C904.977 72.7147 900.136 70.5086 895.724 67.8123C891.312 65.116 887.696 61.5618 884.878 57.1496C882.181 52.7374 880.833 47.0997 880.833 40.2363C880.833 32.8827 882.794 26.2032 886.716 20.1978C890.76 14.0698 896.766 9.22867 904.732 5.67443C912.821 1.99764 922.932 0.159241 935.066 0.159241C943.155 0.159241 951.121 1.13972 958.965 3.10067C966.809 4.93907 973.734 7.75795 979.739 11.5573L970.547 34.1696C964.542 30.7379 958.536 28.2255 952.531 26.6322C946.525 24.9163 940.642 24.0584 934.882 24.0584C929.122 24.0584 924.403 24.7325 920.726 26.0807C917.05 27.4288 914.415 29.2059 912.821 31.412C911.228 33.4955 910.431 35.9467 910.431 38.7656C910.431 42.0747 911.779 44.771 914.476 46.8546C917.172 48.8155 920.726 50.4088 925.139 51.6344C929.551 52.86 934.392 54.0856 939.662 55.3112C945.054 56.5368 950.386 57.9462 955.656 59.5395C961.049 61.1328 965.951 63.2776 970.363 65.9739C974.775 68.6702 978.329 72.2245 981.026 76.6366C983.845 81.0488 985.254 86.6253 985.254 93.366C985.254 100.597 983.232 107.215 979.187 113.221C975.143 119.226 969.076 124.067 960.987 127.744C953.021 131.421 942.91 133.259 930.654 133.259ZM1030.47 131.053V26.6322H989.286V2.36531H1101.43V26.6322H1060.25V131.053H1030.47ZM1147.11 131.053V78.475L1153.91 96.4913L1097.29 2.36531H1128.91L1172.29 74.6144H1154.09L1197.66 2.36531H1226.89L1170.27 96.4913L1176.89 78.475V131.053H1147.11ZM1238.1 131.053V2.36531H1296.56C1310.53 2.36531 1322.85 5.06163 1333.51 10.4543C1344.17 15.7243 1352.51 23.1392 1358.51 32.6989C1364.52 42.2586 1367.52 53.5954 1367.52 66.7093C1367.52 79.7006 1364.52 91.0374 1358.51 100.72C1352.51 110.279 1344.17 117.755 1333.51 123.148C1322.85 128.418 1310.53 131.053 1296.56 131.053H1238.1ZM1267.88 106.603H1295.09C1303.67 106.603 1311.08 105.009 1317.33 101.823C1323.71 98.5136 1328.61 93.8563 1332.04 87.8509C1335.59 81.8454 1337.37 74.7982 1337.37 66.7093C1337.37 58.4978 1335.59 51.4506 1332.04 45.5677C1328.61 39.5623 1323.71 34.9663 1317.33 31.7797C1311.08 28.4706 1303.67 26.816 1295.09 26.816H1267.88V106.603ZM1447.15 133.259C1428.89 133.259 1414.61 128.173 1404.32 118.001C1394.02 107.828 1388.88 93.3048 1388.88 74.4305V2.36531H1418.66V73.3275C1418.66 85.5835 1421.17 94.4078 1426.2 99.8004C1431.22 105.193 1438.27 107.889 1447.34 107.889C1456.41 107.889 1463.46 105.193 1468.48 99.8004C1473.5 94.4078 1476.02 85.5835 1476.02 73.3275V2.36531H1505.43V74.4305C1505.43 93.3048 1500.28 107.828 1489.99 118.001C1479.69 128.173 1465.42 133.259 1447.15 133.259Z" fill="white"/>
</svg>
