<svg width="722" height="94" viewBox="0 0 722 94" fill="none" xmlns="http://www.w3.org/2000/svg">
<path opacity="0.15" d="M37.4902 93.4554C31.9646 93.4554 27.2172 92.288 23.2481 89.9532C19.279 87.6185 16.2438 84.0774 14.1425 79.33C12.0412 74.5048 10.9906 68.4344 10.9906 61.1188C10.9906 53.7253 12.0801 47.6549 14.2592 42.9075C16.5162 38.1602 19.6292 34.6191 23.5983 32.2843C27.5675 29.9496 32.1981 28.7822 37.4902 28.7822C43.405 28.7822 48.6972 30.1052 53.3667 32.7513C58.1141 35.3974 61.8497 39.133 64.5736 43.9582C67.3753 48.7834 68.7762 54.5036 68.7762 61.1188C68.7762 67.6561 67.3753 73.3374 64.5736 78.1626C61.8497 82.9878 58.1141 86.7624 53.3667 89.4863C48.6972 92.1324 43.405 93.4554 37.4902 93.4554ZM0.367344 92.5215V5.90138H18.5786V42.4406L17.4112 61.002L17.7614 79.6802V92.5215H0.367344ZM34.3383 78.5128C37.3735 78.5128 40.0585 77.8124 42.3933 76.4115C44.8059 75.0107 46.7126 73.0261 48.1135 70.4579C49.5922 67.8118 50.3315 64.6988 50.3315 61.1188C50.3315 57.461 49.5922 54.3479 48.1135 51.7797C46.7126 49.2114 44.8059 47.2269 42.3933 45.826C40.0585 44.4251 37.3735 43.7247 34.3383 43.7247C31.3031 43.7247 28.5792 44.4251 26.1666 45.826C23.754 47.2269 21.8473 49.2114 20.4464 51.7797C19.0455 54.3479 18.3451 57.461 18.3451 61.1188C18.3451 64.6988 19.0455 67.8118 20.4464 70.4579C21.8473 73.0261 23.754 75.0107 26.1666 76.4115C28.5792 77.8124 31.3031 78.5128 34.3383 78.5128ZM112.136 93.4554C104.976 93.4554 98.6726 92.0545 93.2248 89.2528C87.8548 86.4511 83.6911 82.6376 80.7337 77.8124C77.7763 72.9094 76.2976 67.3448 76.2976 61.1188C76.2976 54.8149 77.7374 49.2503 80.617 44.4251C83.5744 39.5221 87.5824 35.7087 92.6411 32.9848C97.6997 30.183 103.42 28.7822 109.802 28.7822C115.95 28.7822 121.476 30.1052 126.379 32.7513C131.359 35.3195 135.29 39.0552 138.169 43.9582C141.049 48.7834 142.488 54.5814 142.488 61.3523C142.488 62.0527 142.45 62.8699 142.372 63.8038C142.294 64.6599 142.216 65.477 142.138 66.2553H91.1235V55.6321H132.566L125.561 58.784C125.561 55.5153 124.9 52.6747 123.577 50.2621C122.254 47.8495 120.425 45.9817 118.09 44.6586C115.755 43.2578 113.031 42.5573 109.918 42.5573C106.805 42.5573 104.043 43.2578 101.63 44.6586C99.2952 45.9817 97.4663 47.8884 96.1432 50.3788C94.8202 52.7914 94.1587 55.671 94.1587 59.0175V61.8192C94.1587 65.2435 94.898 68.2788 96.3767 70.9248C97.9332 73.4931 100.073 75.4776 102.797 76.8785C105.599 78.2015 108.868 78.8631 112.603 78.8631C115.95 78.8631 118.868 78.3572 121.359 77.3455C123.927 76.3337 126.262 74.8161 128.363 72.7926L138.052 83.2991C135.173 86.5678 131.554 89.0971 127.196 90.8871C122.837 92.5993 117.818 93.4554 112.136 93.4554ZM224.797 93.4554C219.271 93.4554 214.524 92.288 210.554 89.9532C206.585 87.6185 203.55 84.0774 201.449 79.33C199.348 74.5048 198.297 68.4344 198.297 61.1188C198.297 53.7253 199.386 47.6549 201.566 42.9075C203.822 38.1602 206.936 34.6191 210.905 32.2843C214.874 29.9496 219.504 28.7822 224.797 28.7822C230.711 28.7822 236.003 30.1052 240.673 32.7513C245.42 35.3974 249.156 39.133 251.88 43.9582C254.682 48.7834 256.083 54.5036 256.083 61.1188C256.083 67.6561 254.682 73.3374 251.88 78.1626C249.156 82.9878 245.42 86.7624 240.673 89.4863C236.003 92.1324 230.711 93.4554 224.797 93.4554ZM187.674 92.5215V5.90138H205.885V42.4406L204.717 61.002L205.068 79.6802V92.5215H187.674ZM221.645 78.5128C224.68 78.5128 227.365 77.8124 229.7 76.4115C232.112 75.0107 234.019 73.0261 235.42 70.4579C236.898 67.8118 237.638 64.6988 237.638 61.1188C237.638 57.461 236.898 54.3479 235.42 51.7797C234.019 49.2114 232.112 47.2269 229.7 45.826C227.365 44.4251 224.68 43.7247 221.645 43.7247C218.609 43.7247 215.885 44.4251 213.473 45.826C211.06 47.2269 209.154 49.2114 207.753 51.7797C206.352 54.3479 205.651 57.461 205.651 61.1188C205.651 64.6988 206.352 67.8118 207.753 70.4579C209.154 73.0261 211.06 75.0107 213.473 76.4115C215.885 77.8124 218.609 78.5128 221.645 78.5128ZM299.443 93.4554C292.283 93.4554 285.979 92.0545 280.531 89.2528C275.161 86.4511 270.997 82.6376 268.04 77.8124C265.083 72.9094 263.604 67.3448 263.604 61.1188C263.604 54.8149 265.044 49.2503 267.923 44.4251C270.881 39.5221 274.889 35.7087 279.947 32.9848C285.006 30.183 290.726 28.7822 297.108 28.7822C303.256 28.7822 308.782 30.1052 313.685 32.7513C318.666 35.3195 322.596 39.0552 325.475 43.9582C328.355 48.7834 329.795 54.5814 329.795 61.3523C329.795 62.0527 329.756 62.8699 329.678 63.8038C329.6 64.6599 329.522 65.477 329.445 66.2553H278.43V55.6321H319.872L312.868 58.784C312.868 55.5153 312.206 52.6747 310.883 50.2621C309.56 47.8495 307.731 45.9817 305.396 44.6586C303.062 43.2578 300.338 42.5573 297.225 42.5573C294.112 42.5573 291.349 43.2578 288.936 44.6586C286.601 45.9817 284.773 47.8884 283.449 50.3788C282.126 52.7914 281.465 55.671 281.465 59.0175V61.8192C281.465 65.2435 282.204 68.2788 283.683 70.9248C285.239 73.4931 287.38 75.4776 290.104 76.8785C292.905 78.2015 296.174 78.8631 299.91 78.8631C303.256 78.8631 306.175 78.3572 308.665 77.3455C311.233 76.3337 313.568 74.8161 315.669 72.7926L325.359 83.2991C322.479 86.5678 318.86 89.0971 314.502 90.8871C310.144 92.5993 305.124 93.4554 299.443 93.4554ZM378.733 92.5215V80.2639L377.566 77.5789V55.6321C377.566 51.7408 376.359 48.7056 373.947 46.5264C371.612 44.3473 367.993 43.2578 363.09 43.2578C359.743 43.2578 356.436 43.8025 353.167 44.8921C349.976 45.9038 347.252 47.3047 344.995 49.0947L338.458 36.3702C341.882 33.9576 346.007 32.0898 350.832 30.7667C355.658 29.4437 360.561 28.7822 365.541 28.7822C375.114 28.7822 382.546 31.0391 387.839 35.553C393.131 40.0669 395.777 47.1101 395.777 56.6827V92.5215H378.733ZM359.588 93.4554C354.685 93.4554 350.482 92.6382 346.98 91.0039C343.478 89.2917 340.793 86.9959 338.925 84.1163C337.057 81.2367 336.123 78.007 336.123 74.427C336.123 70.6914 337.018 67.4227 338.808 64.6209C340.676 61.8192 343.595 59.6401 347.564 58.0836C351.533 56.4492 356.708 55.6321 363.09 55.6321H379.784V66.2553H365.074C360.794 66.2553 357.837 66.9557 356.202 68.3566C354.646 69.7574 353.868 71.5085 353.868 73.6098C353.868 75.9446 354.763 77.8124 356.553 79.2133C358.42 80.5363 360.95 81.1978 364.141 81.1978C367.176 81.1978 369.9 80.4974 372.312 79.0965C374.725 77.6178 376.476 75.4776 377.566 72.6759L380.367 81.0811C379.044 85.128 376.632 88.2022 373.129 90.3034C369.627 92.4047 365.113 93.4554 359.588 93.4554ZM438.758 93.4554C433.544 93.4554 428.875 92.4437 424.75 90.4202C420.703 88.3967 417.551 85.3226 415.294 81.1978C413.037 76.9952 411.909 71.6642 411.909 65.2046V29.7161H430.12V62.5196C430.12 67.734 431.209 71.5863 433.388 74.0768C435.645 76.4894 438.797 77.6957 442.844 77.6957C445.646 77.6957 448.136 77.112 450.316 75.9446C452.495 74.6994 454.207 72.8316 455.452 70.3411C456.697 67.7729 457.32 64.582 457.32 60.7686V29.7161H475.531V92.5215H458.254V75.2442L461.406 80.2639C459.304 84.6222 456.191 87.9298 452.067 90.1867C448.02 92.3658 443.584 93.4554 438.758 93.4554ZM518.085 93.4554C510.692 93.4554 504.933 91.5876 500.808 87.8519C496.683 84.0385 494.621 78.3961 494.621 70.9248V15.8242H512.832V70.6914C512.832 73.3374 513.532 75.3998 514.933 76.8785C516.334 78.2794 518.241 78.9798 520.653 78.9798C523.533 78.9798 525.984 78.2015 528.008 76.645L532.911 89.4863C531.043 90.8093 528.786 91.8211 526.14 92.5215C523.572 93.1441 520.887 93.4554 518.085 93.4554ZM484.931 45.1256V31.1169H528.475V45.1256H484.931ZM543.134 92.5215V29.7161H561.345V92.5215H543.134ZM552.239 20.9607C548.893 20.9607 546.169 19.9878 544.068 18.0422C541.966 16.0966 540.916 13.684 540.916 10.8044C540.916 7.92485 541.966 5.51225 544.068 3.56661C546.169 1.62096 548.893 0.648138 552.239 0.648138C555.586 0.648138 558.31 1.58205 560.411 3.44987C562.512 5.23986 563.563 7.57464 563.563 10.4542C563.563 13.4894 562.512 16.0187 560.411 18.0422C558.388 19.9878 555.664 20.9607 552.239 20.9607ZM580.465 92.5215V28.3152C580.465 21.2331 582.566 15.5907 586.769 11.3881C590.971 7.10768 596.964 4.96747 604.746 4.96747C607.392 4.96747 609.922 5.23986 612.334 5.78464C614.825 6.32942 616.926 7.18551 618.638 8.3529L613.852 21.5444C612.84 20.8439 611.712 20.2992 610.466 19.91C609.221 19.5209 607.898 19.3263 606.497 19.3263C603.851 19.3263 601.789 20.1046 600.31 21.6611C598.909 23.1398 598.209 25.3967 598.209 28.4319V34.2689L598.676 42.0904V92.5215H580.465ZM570.775 45.1256V31.1169H614.319V45.1256H570.775ZM649.891 93.4554C644.677 93.4554 640.007 92.4437 635.883 90.4202C631.836 88.3967 628.684 85.3226 626.427 81.1978C624.17 76.9952 623.041 71.6642 623.041 65.2046V29.7161H641.253V62.5196C641.253 67.734 642.342 71.5863 644.521 74.0768C646.778 76.4894 649.93 77.6957 653.977 77.6957C656.779 77.6957 659.269 77.112 661.448 75.9446C663.628 74.6994 665.34 72.8316 666.585 70.3411C667.83 67.7729 668.453 64.582 668.453 60.7686V29.7161H686.664V92.5215H669.387V75.2442L672.539 80.2639C670.437 84.6222 667.324 87.9298 663.2 90.1867C659.153 92.3658 654.717 93.4554 649.891 93.4554ZM703.535 92.5215V5.90138H721.747V92.5215H703.535Z" fill="white"/>
</svg>
