<svg width="190" height="40" viewBox="0 0 190 40" fill="none" xmlns="http://www.w3.org/2000/svg">
<path opacity="0.1" d="M17.0968 39.4122C14.6577 39.4122 12.5621 38.8969 10.8101 37.8663C9.05806 36.8357 7.71828 35.2727 6.79073 33.1771C5.86319 31.0472 5.39942 28.3676 5.39942 25.1384C5.39942 21.8748 5.88037 19.1952 6.84226 17.0997C7.83851 15.0041 9.21265 13.441 10.9647 12.4104C12.7167 11.3798 14.7607 10.8645 17.0968 10.8645C19.7076 10.8645 22.0437 11.4485 24.1049 12.6166C26.2004 13.7846 27.8494 15.4335 29.0518 17.5635C30.2885 19.6934 30.9069 22.2183 30.9069 25.1384C30.9069 28.0241 30.2885 30.5319 29.0518 32.6618C27.8494 34.7917 26.2004 36.4578 24.1049 37.6602C22.0437 38.8282 19.7076 39.4122 17.0968 39.4122ZM0.710172 39V0.764614H8.74888V16.8936L8.23358 25.0869L8.38817 33.3317V39H0.710172ZM15.7055 32.8164C17.0452 32.8164 18.2304 32.5072 19.261 31.8888C20.326 31.2705 21.1676 30.3945 21.786 29.2608C22.4387 28.0928 22.7651 26.7186 22.7651 25.1384C22.7651 23.5238 22.4387 22.1496 21.786 21.016C21.1676 19.8823 20.326 19.0063 19.261 18.3879C18.2304 17.7696 17.0452 17.4604 15.7055 17.4604C14.3657 17.4604 13.1633 17.7696 12.0983 18.3879C11.0334 19.0063 10.1917 19.8823 9.57336 21.016C8.955 22.1496 8.64582 23.5238 8.64582 25.1384C8.64582 26.7186 8.955 28.0928 9.57336 29.2608C10.1917 30.3945 11.0334 31.2705 12.0983 31.8888C13.1633 32.5072 14.3657 32.8164 15.7055 32.8164ZM50.0467 39.4122C46.8862 39.4122 44.1035 38.7939 41.6988 37.5572C39.3284 36.3204 37.4905 34.6371 36.1851 32.5072C34.8796 30.3429 34.2269 27.8867 34.2269 25.1384C34.2269 22.3558 34.8625 19.8995 36.1335 17.7696C37.439 15.6053 39.2082 13.922 41.4411 12.7196C43.6741 11.4829 46.1991 10.8645 49.0161 10.8645C51.73 10.8645 54.1691 11.4485 56.3334 12.6166C58.532 13.7502 60.2668 15.3992 61.5379 17.5635C62.809 19.6934 63.4445 22.2527 63.4445 25.2414C63.4445 25.5506 63.4274 25.9113 63.393 26.3236C63.3586 26.7015 63.3243 27.0622 63.2899 27.4057H40.7713V22.7165H59.0645L55.9727 24.1078C55.9727 22.6649 55.6806 21.411 55.0966 20.3461C54.5126 19.2811 53.7053 18.4566 52.6747 17.8726C51.6441 17.2543 50.4417 16.9451 49.0676 16.9451C47.6935 16.9451 46.4739 17.2543 45.409 17.8726C44.3784 18.4566 43.5711 19.2983 42.9871 20.3976C42.403 21.4626 42.111 22.7336 42.111 24.2108V25.4476C42.111 26.9591 42.4374 28.2989 43.0901 29.4669C43.7772 30.6006 44.7219 31.4766 45.9243 32.095C47.161 32.679 48.6038 32.971 50.2528 32.971C51.73 32.971 53.0183 32.7477 54.1176 32.3011C55.2512 31.8545 56.2818 31.1846 57.2094 30.2914L61.4864 34.9291C60.2153 36.372 58.6179 37.4884 56.6941 38.2786C54.7703 39.0344 52.5545 39.4122 50.0467 39.4122ZM96.7878 39.4122C93.799 39.4122 91.1366 38.8111 88.8006 37.6087C86.4646 36.372 84.6266 34.6715 83.2869 32.5072C81.9814 30.3429 81.3287 27.8867 81.3287 25.1384C81.3287 22.3558 81.9814 19.8995 83.2869 17.7696C84.6266 15.6053 86.4646 13.922 88.8006 12.7196C91.1366 11.4829 93.799 10.8645 96.7878 10.8645C99.7078 10.8645 102.25 11.4829 104.414 12.7196C106.578 13.922 108.176 15.6568 109.207 17.9242L102.971 21.2736C102.25 19.9682 101.34 19.0063 100.24 18.3879C99.1753 17.7696 98.0073 17.4604 96.7362 17.4604C95.3621 17.4604 94.1254 17.7696 93.0261 18.3879C91.9268 19.0063 91.0507 19.8823 90.398 21.016C89.7797 22.1496 89.4705 23.5238 89.4705 25.1384C89.4705 26.753 89.7797 28.1271 90.398 29.2608C91.0507 30.3945 91.9268 31.2705 93.0261 31.8888C94.1254 32.5072 95.3621 32.8164 96.7362 32.8164C98.0073 32.8164 99.1753 32.5244 100.24 31.9404C101.34 31.322 102.25 30.3429 102.971 29.0031L109.207 32.4041C108.176 34.6371 106.578 36.372 104.414 37.6087C102.25 38.8111 99.7078 39.4122 96.7878 39.4122ZM126.674 39.4122C123.72 39.4122 121.092 38.7939 118.79 37.5572C116.523 36.3204 114.719 34.6371 113.38 32.5072C112.074 30.3429 111.422 27.8867 111.422 25.1384C111.422 22.3558 112.074 19.8995 113.38 17.7696C114.719 15.6053 116.523 13.922 118.79 12.7196C121.092 11.4829 123.72 10.8645 126.674 10.8645C129.594 10.8645 132.205 11.4829 134.507 12.7196C136.809 13.922 138.612 15.5881 139.918 17.718C141.223 19.848 141.876 22.3214 141.876 25.1384C141.876 27.8867 141.223 30.3429 139.918 32.5072C138.612 34.6371 136.809 36.3204 134.507 37.5572C132.205 38.7939 129.594 39.4122 126.674 39.4122ZM126.674 32.8164C128.014 32.8164 129.217 32.5072 130.282 31.8888C131.347 31.2705 132.188 30.3945 132.807 29.2608C133.425 28.0928 133.734 26.7186 133.734 25.1384C133.734 23.5238 133.425 22.1496 132.807 21.016C132.188 19.8823 131.347 19.0063 130.282 18.3879C129.217 17.7696 128.014 17.4604 126.674 17.4604C125.335 17.4604 124.132 17.7696 123.067 18.3879C122.002 19.0063 121.144 19.8823 120.491 21.016C119.872 22.1496 119.563 23.5238 119.563 25.1384C119.563 26.7186 119.872 28.0928 120.491 29.2608C121.144 30.3945 122.002 31.2705 123.067 31.8888C124.132 32.5072 125.335 32.8164 126.674 32.8164ZM160.441 39.4122C157.486 39.4122 154.858 38.7939 152.557 37.5572C150.289 36.3204 148.486 34.6371 147.146 32.5072C145.841 30.3429 145.188 27.8867 145.188 25.1384C145.188 22.3558 145.841 19.8995 147.146 17.7696C148.486 15.6053 150.289 13.922 152.557 12.7196C154.858 11.4829 157.486 10.8645 160.441 10.8645C163.361 10.8645 165.972 11.4829 168.273 12.7196C170.575 13.922 172.379 15.5881 173.684 17.718C174.989 19.848 175.642 22.3214 175.642 25.1384C175.642 27.8867 174.989 30.3429 173.684 32.5072C172.379 34.6371 170.575 36.3204 168.273 37.5572C165.972 38.7939 163.361 39.4122 160.441 39.4122ZM160.441 32.8164C161.781 32.8164 162.983 32.5072 164.048 31.8888C165.113 31.2705 165.955 30.3945 166.573 29.2608C167.191 28.0928 167.5 26.7186 167.5 25.1384C167.5 23.5238 167.191 22.1496 166.573 21.016C165.955 19.8823 165.113 19.0063 164.048 18.3879C162.983 17.7696 161.781 17.4604 160.441 17.4604C159.101 17.4604 157.899 17.7696 156.834 18.3879C155.769 19.0063 154.91 19.8823 154.257 21.016C153.639 22.1496 153.33 23.5238 153.33 25.1384C153.33 26.7186 153.639 28.0928 154.257 29.2608C154.91 30.3945 155.769 31.2705 156.834 31.8888C157.899 32.5072 159.101 32.8164 160.441 32.8164ZM181.015 39V0.764614H189.054V39H181.015Z" fill="white"/>
</svg>
