<svg width="223" height="47" viewBox="0 0 223 47" fill="none" xmlns="http://www.w3.org/2000/svg">
<path opacity="0.05" d="M15.586 36.7793C13.2923 36.7793 11.3217 36.2947 9.67413 35.3255C8.02657 34.3564 6.76667 32.8865 5.89444 30.9159C5.0222 28.913 4.58608 26.3932 4.58608 23.3565C4.58608 20.2875 5.03835 17.7677 5.9429 15.7971C6.87974 13.8265 8.17194 12.3566 9.8195 11.3875C11.4671 10.4183 13.3892 9.93377 15.586 9.93377C18.0411 9.93377 20.2379 10.483 22.1762 11.5813C24.1468 12.6797 25.6974 14.2303 26.8281 16.2333C27.9911 18.2362 28.5726 20.6106 28.5726 23.3565C28.5726 26.0701 27.9911 28.4284 26.8281 30.4313C25.6974 32.4342 24.1468 34.001 22.1762 35.1317C20.2379 36.2301 18.0411 36.7793 15.586 36.7793ZM0.176445 36.3916V0.436083H7.73583V15.6033L7.25125 23.3081L7.39662 31.0613V36.3916H0.176445ZM14.2776 30.5767C15.5375 30.5767 16.652 30.2859 17.6212 29.7045C18.6226 29.123 19.4141 28.2992 19.9956 27.2331C20.6094 26.1347 20.9163 24.8425 20.9163 23.3565C20.9163 21.8382 20.6094 20.546 19.9956 19.4799C19.4141 18.4138 18.6226 17.5901 17.6212 17.0086C16.652 16.4271 15.5375 16.1363 14.2776 16.1363C13.0177 16.1363 11.887 16.4271 10.8856 17.0086C9.88411 17.5901 9.09264 18.4138 8.51115 19.4799C7.92966 20.546 7.63891 21.8382 7.63891 23.3565C7.63891 24.8425 7.92966 26.1347 8.51115 27.2331C9.09264 28.2992 9.88411 29.123 10.8856 29.7045C11.887 30.2859 13.0177 30.5767 14.2776 30.5767ZM46.5712 36.7793C43.5991 36.7793 40.9824 36.1978 38.721 35.0348C36.492 33.8718 34.7637 32.2889 33.5361 30.2859C32.3085 28.2507 31.6947 25.9409 31.6947 23.3565C31.6947 20.7398 32.2923 18.43 33.4876 16.4271C34.7152 14.3919 36.3789 12.8089 38.4787 11.6782C40.5786 10.5153 42.953 9.93377 45.602 9.93377C48.1541 9.93377 50.4478 10.483 52.483 11.5813C54.5505 12.6474 56.1819 14.198 57.3772 16.2333C58.5725 18.2362 59.1701 20.6429 59.1701 23.4534C59.1701 23.7442 59.154 24.0834 59.1217 24.471C59.0894 24.8264 59.0571 25.1656 59.0248 25.4886H37.8488V21.079H55.0512L52.1438 22.3874C52.1438 21.0306 51.8692 19.8514 51.32 18.85C50.7708 17.8485 50.0116 17.0732 49.0425 16.524C48.0733 15.9425 46.9427 15.6518 45.6505 15.6518C44.3583 15.6518 43.2114 15.9425 42.21 16.524C41.2408 17.0732 40.4817 17.8647 39.9325 18.8984C39.3833 19.8999 39.1087 21.0952 39.1087 22.4843V23.6473C39.1087 25.0687 39.4156 26.3286 40.0294 27.427C40.6755 28.493 41.5639 29.3168 42.6946 29.8983C43.8575 30.4475 45.2143 30.7221 46.765 30.7221C48.1541 30.7221 49.3655 30.5121 50.3993 30.0921C51.4654 29.6722 52.4345 29.0422 53.3068 28.2023L57.3287 32.5635C56.1335 33.9203 54.6313 34.9702 52.8222 35.7132C51.0131 36.4239 48.9294 36.7793 46.5712 36.7793ZM78.8469 36.3916V9.73994C78.8469 6.80018 79.7192 4.45806 81.4636 2.71359C83.2081 0.936811 85.6956 0.0484218 88.9261 0.0484218C90.0245 0.0484218 91.0744 0.16149 92.0758 0.387626C93.1096 0.613761 93.9818 0.969116 94.6926 1.45369L92.7058 6.9294C92.2858 6.63865 91.8174 6.41252 91.3005 6.25099C90.7836 6.08947 90.2345 6.0087 89.653 6.0087C88.5546 6.0087 87.6985 6.33175 87.0847 6.97785C86.5032 7.59165 86.2125 8.5285 86.2125 9.78839V12.2113L86.4063 15.4579V36.3916H78.8469ZM74.8249 16.7178V10.9029H92.8996V16.7178H74.8249ZM107.666 36.7793C105.501 36.7793 103.563 36.3593 101.851 35.5194C100.171 34.6794 98.8624 33.4034 97.9256 31.6912C96.9887 29.9467 96.5203 27.7338 96.5203 25.0525V10.3214H104.08V23.938C104.08 26.1024 104.532 27.7015 105.437 28.7353C106.373 29.7368 107.682 30.2375 109.362 30.2375C110.525 30.2375 111.558 29.9952 112.463 29.5106C113.367 28.9937 114.078 28.2184 114.595 27.1847C115.112 26.1186 115.37 24.7941 115.37 23.2111V10.3214H122.93V36.3916H115.758V29.2199L117.066 31.3036C116.194 33.1126 114.902 34.4856 113.19 35.4225C111.51 36.327 109.668 36.7793 107.666 36.7793ZM145.779 9.93377C147.846 9.93377 149.687 10.3537 151.303 11.1937C152.95 12.0013 154.242 13.2612 155.179 14.9734C156.116 16.6532 156.585 18.8177 156.585 21.4667V36.3916H149.025V22.6297C149.025 20.5298 148.557 18.9792 147.62 17.9777C146.715 16.9763 145.423 16.4755 143.743 16.4755C142.548 16.4755 141.466 16.734 140.497 17.2509C139.56 17.7354 138.817 18.4946 138.268 19.5284C137.751 20.5621 137.492 21.8866 137.492 23.5019V36.3916H129.933V10.3214H137.153V17.5416L135.796 15.361C136.733 13.6165 138.074 12.2759 139.818 11.339C141.563 10.4022 143.55 9.93377 145.779 9.93377ZM179.282 9.93377C181.35 9.93377 183.191 10.3537 184.807 11.1937C186.454 12.0013 187.746 13.2612 188.683 14.9734C189.62 16.6532 190.088 18.8177 190.088 21.4667V36.3916H182.529V22.6297C182.529 20.5298 182.061 18.9792 181.124 17.9777C180.219 16.9763 178.927 16.4755 177.247 16.4755C176.052 16.4755 174.97 16.734 174.001 17.2509C173.064 17.7354 172.321 18.4946 171.772 19.5284C171.255 20.5621 170.996 21.8866 170.996 23.5019V36.3916H163.437V10.3214H170.657V17.5416L169.3 15.361C170.237 13.6165 171.578 12.2759 173.322 11.339C175.067 10.4022 177.053 9.93377 179.282 9.93377ZM199.763 46.18C198.406 46.18 197.065 45.97 195.741 45.5501C194.416 45.1301 193.334 44.5486 192.494 43.8056L195.256 38.4268C195.838 38.9437 196.5 39.3475 197.243 39.6383C198.018 39.929 198.777 40.0744 199.52 40.0744C200.586 40.0744 201.426 39.8159 202.04 39.2991C202.686 38.8145 203.268 37.9907 203.785 36.8277L205.141 33.6295L205.723 32.8057L215.075 10.3214H222.344L210.569 37.9907C209.729 40.0905 208.76 41.7381 207.661 42.9334C206.595 44.1287 205.4 44.9686 204.075 45.4532C202.783 45.9377 201.346 46.18 199.763 46.18ZM204.221 37.4092L192.591 10.3214H200.393L209.406 32.1273L204.221 37.4092Z" fill="white"/>
</svg>
