<svg width="317" height="63" viewBox="0 0 317 63" fill="none" xmlns="http://www.w3.org/2000/svg">
<path opacity="0.08" d="M20.9777 49.7798C17.869 49.7798 15.198 49.123 12.965 47.8095C10.7319 46.4959 9.02431 44.5037 7.84211 41.8328C6.6599 39.1181 6.0688 35.7028 6.0688 31.587C6.0688 27.4274 6.6818 24.0121 7.90779 21.3412C9.17756 18.6703 10.929 16.6781 13.162 15.3645C15.3951 14.051 18.0003 13.3942 20.9777 13.3942C24.3054 13.3942 27.2828 14.1385 29.9099 15.6272C32.5808 17.1159 34.6825 19.2176 36.215 21.9323C37.7913 24.647 38.5794 27.8652 38.5794 31.587C38.5794 35.265 37.7913 38.4613 36.215 41.176C34.6825 43.8907 32.5808 46.0143 29.9099 47.5468C27.2828 49.0355 24.3054 49.7798 20.9777 49.7798ZM0.0920998 49.2544V0.521292H10.3379V21.0785L9.68109 31.5213L9.87813 42.0298V49.2544H0.0920998ZM19.2044 41.373C20.912 41.373 22.4226 40.979 23.7362 40.1908C25.0935 39.4027 26.1663 38.2862 26.9544 36.8412C27.7863 35.3525 28.2023 33.6011 28.2023 31.587C28.2023 29.5291 27.7863 27.7777 26.9544 26.3328C26.1663 24.8878 25.0935 23.7713 23.7362 22.9832C22.4226 22.195 20.912 21.801 19.2044 21.801C17.4968 21.801 15.9643 22.195 14.6069 22.9832C13.2496 23.7713 12.1769 24.8878 11.3887 26.3328C10.6006 27.7777 10.2065 29.5291 10.2065 31.587C10.2065 33.6011 10.6006 35.3525 11.3887 36.8412C12.1769 38.2862 13.2496 39.4027 14.6069 40.1908C15.9643 40.979 17.4968 41.373 19.2044 41.373ZM62.9742 49.7798C58.9459 49.7798 55.3993 48.9917 52.3344 47.4154C49.3132 45.8391 46.9706 43.6937 45.3068 40.979C43.643 38.2205 42.811 35.0898 42.811 31.587C42.811 28.0404 43.6211 24.9097 45.2411 22.195C46.905 19.4366 49.1599 17.2911 52.006 15.7586C54.852 14.1823 58.0702 13.3942 61.6606 13.3942C65.1197 13.3942 68.2284 14.1385 70.9869 15.6272C73.7892 17.0722 76.0003 19.1739 77.6204 21.9323C79.2405 24.647 80.0505 27.909 80.0505 31.7184C80.0505 32.1124 80.0286 32.5722 79.9848 33.0976C79.941 33.5792 79.8972 34.039 79.8535 34.4768H51.1522V28.5001H74.4679L70.5272 30.2734C70.5272 28.4345 70.155 26.8363 69.4106 25.4789C68.6663 24.1216 67.6373 23.0708 66.3238 22.3264C65.0102 21.5383 63.4777 21.1442 61.7263 21.1442C59.9749 21.1442 58.4205 21.5383 57.0632 22.3264C55.7496 23.0708 54.7207 24.1435 53.9763 25.5446C53.232 26.902 52.8598 28.522 52.8598 30.4048V31.9811C52.8598 33.9076 53.2757 35.6153 54.1077 37.104C54.9834 38.5489 56.1875 39.6654 57.72 40.4535C59.2962 41.1979 61.1352 41.5701 63.2369 41.5701C65.1197 41.5701 66.7616 41.2855 68.1628 40.7162C69.6077 40.147 70.9212 39.2932 72.1034 38.1548L77.5547 44.0658C75.9347 45.9048 73.8986 47.3278 71.4467 48.3349C68.9947 49.2982 66.1705 49.7798 62.9742 49.7798ZM126.949 13.3942C129.751 13.3942 132.247 13.9634 134.436 15.1018C136.669 16.1964 138.42 17.9041 139.69 20.2247C140.96 22.5015 141.595 25.4352 141.595 29.0256V49.2544H131.349V30.6018C131.349 27.7558 130.714 25.6541 129.444 24.2967C128.218 22.9394 126.467 22.2607 124.19 22.2607C122.57 22.2607 121.103 22.611 119.79 23.3116C118.52 23.9684 117.513 24.9973 116.769 26.3984C116.068 27.7996 115.718 29.5948 115.718 31.784V49.2544H105.472V0.521292H115.718V23.7056L113.419 20.7501C114.689 18.3857 116.506 16.5686 118.87 15.2989C121.235 14.0291 123.928 13.3942 126.949 13.3942ZM172.556 49.2544V42.3582L171.899 40.8476V28.5001C171.899 26.3109 171.22 24.6032 169.863 23.3772C168.55 22.1513 166.514 21.5383 163.755 21.5383C161.872 21.5383 160.011 21.8448 158.172 22.4578C156.377 23.027 154.845 23.8151 153.575 24.8222L149.897 17.6633C151.824 16.3059 154.144 15.2551 156.859 14.5107C159.574 13.7664 162.332 13.3942 165.134 13.3942C170.52 13.3942 174.701 14.664 177.679 17.2035C180.656 19.7431 182.145 23.7056 182.145 29.0912V49.2544H172.556ZM161.785 49.7798C159.026 49.7798 156.662 49.3201 154.692 48.4006C152.721 47.4373 151.211 46.1456 150.16 44.5256C149.109 42.9055 148.583 41.0884 148.583 39.0743C148.583 36.9726 149.087 35.1336 150.094 33.5573C151.145 31.9811 152.787 30.7551 155.02 29.8794C157.253 28.9599 160.165 28.5001 163.755 28.5001H173.147V34.4768H164.872C162.463 34.4768 160.8 34.8709 159.88 35.659C159.004 36.4472 158.567 37.4323 158.567 38.6146C158.567 39.9281 159.07 40.979 160.077 41.7671C161.128 42.5114 162.551 42.8836 164.346 42.8836C166.054 42.8836 167.586 42.4896 168.944 41.7014C170.301 40.8695 171.286 39.6654 171.899 38.0891L173.475 42.8179C172.731 45.0948 171.374 46.8243 169.403 48.0065C167.433 49.1887 164.893 49.7798 161.785 49.7798ZM212.303 49.7798C209.326 49.7798 206.721 49.123 204.488 47.8095C202.255 46.4959 200.503 44.5037 199.234 41.8328C198.008 39.1181 197.395 35.7028 197.395 31.587C197.395 27.4274 197.986 24.0121 199.168 21.3412C200.35 18.6703 202.058 16.6781 204.291 15.3645C206.524 14.051 209.195 13.3942 212.303 13.3942C215.631 13.3942 218.609 14.1604 221.236 15.6929C223.907 17.1816 226.008 19.2833 227.541 21.998C229.117 24.7127 229.905 27.909 229.905 31.587C229.905 35.3088 229.117 38.527 227.541 41.2417C226.008 43.9564 223.907 46.0581 221.236 47.5468C218.609 49.0355 215.631 49.7798 212.303 49.7798ZM191.418 61.9959V13.9196H201.204V21.1442L201.007 31.6527L201.664 42.0955V61.9959H191.418ZM210.53 41.373C212.238 41.373 213.748 40.979 215.062 40.1908C216.419 39.4027 217.492 38.2862 218.28 36.8412C219.112 35.3525 219.528 33.6011 219.528 31.587C219.528 29.5291 219.112 27.7777 218.28 26.3328C217.492 24.8878 216.419 23.7713 215.062 22.9832C213.748 22.195 212.238 21.801 210.53 21.801C208.823 21.801 207.29 22.195 205.933 22.9832C204.575 23.7713 203.503 24.8878 202.714 26.3328C201.926 27.7777 201.532 29.5291 201.532 31.587C201.532 33.6011 201.926 35.3525 202.714 36.8412C203.503 38.2862 204.575 39.4027 205.933 40.1908C207.29 40.979 208.823 41.373 210.53 41.373ZM257.65 49.7798C254.672 49.7798 252.067 49.123 249.834 47.8095C247.601 46.4959 245.849 44.5037 244.58 41.8328C243.354 39.1181 242.741 35.7028 242.741 31.587C242.741 27.4274 243.332 24.0121 244.514 21.3412C245.696 18.6703 247.404 16.6781 249.637 15.3645C251.87 14.051 254.541 13.3942 257.65 13.3942C260.977 13.3942 263.955 14.1604 266.582 15.6929C269.253 17.1816 271.354 19.2833 272.887 21.998C274.463 24.7127 275.251 27.909 275.251 31.587C275.251 35.3088 274.463 38.527 272.887 41.2417C271.354 43.9564 269.253 46.0581 266.582 47.5468C263.955 49.0355 260.977 49.7798 257.65 49.7798ZM236.764 61.9959V13.9196H246.55V21.1442L246.353 31.6527L247.01 42.0955V61.9959H236.764ZM255.876 41.373C257.584 41.373 259.094 40.979 260.408 40.1908C261.765 39.4027 262.838 38.2862 263.626 36.8412C264.458 35.3525 264.874 33.6011 264.874 31.587C264.874 29.5291 264.458 27.7777 263.626 26.3328C262.838 24.8878 261.765 23.7713 260.408 22.9832C259.094 22.195 257.584 21.801 255.876 21.801C254.169 21.801 252.636 22.195 251.279 22.9832C249.921 23.7713 248.849 24.8878 248.061 26.3328C247.272 27.7777 246.878 29.5291 246.878 31.587C246.878 33.6011 247.272 35.3525 248.061 36.8412C248.849 38.2862 249.921 39.4027 251.279 40.1908C252.636 40.979 254.169 41.373 255.876 41.373ZM285.614 62.5214C283.775 62.5214 281.958 62.2368 280.163 61.6675C278.368 61.0983 276.901 60.3102 275.762 59.3031L279.506 52.0129C280.294 52.7134 281.192 53.2608 282.199 53.6548C283.25 54.0489 284.279 54.2459 285.286 54.2459C286.731 54.2459 287.869 53.8956 288.701 53.1951C289.577 52.5383 290.365 51.4218 291.065 49.8455L292.904 45.5107L293.692 44.3942L306.368 13.9196H316.22L300.26 51.4218C299.122 54.2678 297.808 56.5009 296.32 58.1209C294.875 59.741 293.255 60.8794 291.459 61.5362C289.708 62.193 287.759 62.5214 285.614 62.5214ZM291.656 50.6336L275.894 13.9196H286.468L298.684 43.4747L291.656 50.6336Z" fill="white"/>
</svg>
