<svg width="356" height="75" viewBox="0 0 356 75" fill="none" xmlns="http://www.w3.org/2000/svg">
<path opacity="0.3" d="M25.8078 59.631C22.0688 59.631 18.8564 58.841 16.1706 57.2612C13.4848 55.6813 11.431 53.2851 10.0091 50.0727C8.58719 46.8076 7.87624 42.7 7.87624 37.7497C7.87624 32.7467 8.61352 28.6391 10.0881 25.4266C11.6153 22.2142 13.7218 19.8181 16.4076 18.2382C19.0934 16.6583 22.2268 15.8684 25.8078 15.8684C29.8102 15.8684 33.3913 16.7636 36.551 18.5542C39.7634 20.3447 42.2912 22.8725 44.1344 26.1376C46.0303 29.4027 46.9782 33.2734 46.9782 37.7497C46.9782 42.1733 46.0303 46.0177 44.1344 49.2828C42.2912 52.5479 39.7634 55.102 36.551 56.9452C33.3913 58.7357 29.8102 59.631 25.8078 59.631ZM0.687801 58.999V0.385588H13.0108V25.1107L12.2209 37.6707L12.4579 50.3097V58.999H0.687801ZM23.675 49.5198C25.7288 49.5198 27.5457 49.0458 29.1256 48.0979C30.7581 47.1499 32.0484 45.8071 32.9963 44.0692C33.9969 42.2787 34.4972 40.1722 34.4972 37.7497C34.4972 35.2745 33.9969 33.168 32.9963 31.4302C32.0484 29.6923 30.7581 28.3494 29.1256 27.4015C27.5457 26.4536 25.7288 25.9796 23.675 25.9796C21.6212 25.9796 19.778 26.4536 18.1454 27.4015C16.5129 28.3494 15.2227 29.6923 14.2747 31.4302C13.3268 33.168 12.8529 35.2745 12.8529 37.7497C12.8529 40.1722 13.3268 42.2787 14.2747 44.0692C15.2227 45.8071 16.5129 47.1499 18.1454 48.0979C19.778 49.0458 21.6212 49.5198 23.675 49.5198ZM76.3189 59.631C71.4739 59.631 67.2082 58.683 63.5219 56.7872C59.8881 54.8913 57.0707 52.3109 55.0695 49.0458C53.0683 45.7281 52.0677 41.9627 52.0677 37.7497C52.0677 33.484 53.042 29.7186 54.9905 26.4536C56.9917 23.1358 59.7038 20.5554 63.1269 18.7122C66.5499 16.8163 70.4206 15.8684 74.739 15.8684C78.8993 15.8684 82.6384 16.7636 85.9561 18.5542C89.3265 20.292 91.986 22.8198 93.9345 26.1376C95.883 29.4027 96.8573 33.326 96.8573 37.9077C96.8573 38.3816 96.8309 38.9346 96.7783 39.5665C96.7256 40.1458 96.6729 40.6988 96.6203 41.2254H62.1V34.037H90.1428L85.4031 36.1698C85.4031 33.958 84.9555 32.0358 84.0602 30.4033C83.165 28.7707 81.9274 27.5068 80.3475 26.6115C78.7677 25.6636 76.9245 25.1897 74.818 25.1897C72.7115 25.1897 70.8419 25.6636 69.2094 26.6115C67.6295 27.5068 66.392 28.797 65.4967 30.4822C64.6014 32.1148 64.1538 34.0633 64.1538 36.3278V38.2236C64.1538 40.5408 64.6541 42.5946 65.6547 44.3852C66.7079 46.123 68.1562 47.4659 69.9993 48.4138C71.8952 49.3091 74.107 49.7567 76.6348 49.7567C78.8993 49.7567 80.8742 49.4144 82.5594 48.7298C84.2972 48.0452 85.8771 47.0183 87.299 45.6491L93.8555 52.7585C91.907 54.9703 89.4582 56.6819 86.5091 57.8931C83.56 59.0517 80.1632 59.631 76.3189 59.631ZM127.433 58.999V16.5003H139.203V28.5074L137.544 25.0317C138.808 22.0299 140.835 19.7654 143.627 18.2382C146.418 16.6583 149.814 15.8684 153.817 15.8684V27.2435C153.29 27.1908 152.816 27.1645 152.395 27.1645C151.974 27.1118 151.526 27.0855 151.052 27.0855C147.682 27.0855 144.943 28.0598 142.837 30.0083C140.783 31.9041 139.756 34.8796 139.756 38.9346V58.999H127.433ZM181.85 59.631C177.005 59.631 172.739 58.683 169.053 56.7872C165.419 54.8913 162.602 52.3109 160.6 49.0458C158.599 45.7281 157.599 41.9627 157.599 37.7497C157.599 33.484 158.573 29.7186 160.521 26.4536C162.523 23.1358 165.235 20.5554 168.658 18.7122C172.081 16.8163 175.951 15.8684 180.27 15.8684C184.43 15.8684 188.169 16.7636 191.487 18.5542C194.857 20.292 197.517 22.8198 199.465 26.1376C201.414 29.4027 202.388 33.326 202.388 37.9077C202.388 38.3816 202.362 38.9346 202.309 39.5665C202.256 40.1458 202.204 40.6988 202.151 41.2254H167.631V34.037H195.674L190.934 36.1698C190.934 33.958 190.486 32.0358 189.591 30.4033C188.696 28.7707 187.458 27.5068 185.878 26.6115C184.298 25.6636 182.455 25.1897 180.349 25.1897C178.242 25.1897 176.373 25.6636 174.74 26.6115C173.16 27.5068 171.923 28.797 171.028 30.4822C170.132 32.1148 169.685 34.0633 169.685 36.3278V38.2236C169.685 40.5408 170.185 42.5946 171.186 44.3852C172.239 46.123 173.687 47.4659 175.53 48.4138C177.426 49.3091 179.638 49.7567 182.166 49.7567C184.43 49.7567 186.405 49.4144 188.09 48.7298C189.828 48.0452 191.408 47.0183 192.83 45.6491L199.386 52.7585C197.438 54.9703 194.989 56.6819 192.04 57.8931C189.091 59.0517 185.694 59.631 181.85 59.631ZM235.503 58.999V50.7047L234.713 48.8878V34.037C234.713 31.4038 233.897 29.35 232.264 27.8754C230.685 26.4009 228.236 25.6636 224.918 25.6636C222.654 25.6636 220.415 26.0323 218.204 26.7695C216.044 27.4541 214.201 28.4021 212.674 29.6133L208.25 21.003C210.567 19.3704 213.359 18.1065 216.624 17.2113C219.889 16.316 223.206 15.8684 226.577 15.8684C233.054 15.8684 238.084 17.3956 241.665 20.45C245.246 23.5045 247.036 28.2704 247.036 34.7479V58.999H235.503ZM222.548 59.631C219.23 59.631 216.387 59.078 214.017 57.9721C211.647 56.8135 209.83 55.26 208.566 53.3115C207.302 51.363 206.67 49.1775 206.67 46.755C206.67 44.2272 207.276 42.0153 208.487 40.1195C209.751 38.2236 211.726 36.7491 214.412 35.6958C217.098 34.5899 220.6 34.037 224.918 34.037H236.214V41.2254H226.261C223.364 41.2254 221.363 41.6994 220.257 42.6473C219.204 43.5952 218.677 44.7801 218.677 46.202C218.677 47.7819 219.283 49.0458 220.494 49.9937C221.758 50.889 223.47 51.3366 225.629 51.3366C227.683 51.3366 229.526 50.8627 231.159 49.9147C232.791 48.9141 233.976 47.4659 234.713 45.5701L236.609 51.2576C235.714 53.9961 234.081 56.0763 231.711 57.4981C229.342 58.92 226.287 59.631 222.548 59.631ZM276.745 59.631C272.743 59.631 269.136 58.7357 265.923 56.9452C262.711 55.102 260.157 52.5479 258.261 49.2828C256.418 46.0177 255.496 42.1733 255.496 37.7497C255.496 33.2734 256.418 29.4027 258.261 26.1376C260.157 22.8725 262.711 20.3447 265.923 18.5542C269.136 16.7636 272.743 15.8684 276.745 15.8684C280.326 15.8684 283.46 16.6583 286.146 18.2382C288.831 19.8181 290.912 22.2142 292.386 25.4266C293.861 28.6391 294.598 32.7467 294.598 37.7497C294.598 42.7 293.887 46.8076 292.465 50.0727C291.043 53.2851 288.989 55.6813 286.304 57.2612C283.671 58.841 280.484 59.631 276.745 59.631ZM278.878 49.5198C280.879 49.5198 282.696 49.0458 284.329 48.0979C285.961 47.1499 287.252 45.8071 288.199 44.0692C289.2 42.2787 289.7 40.1722 289.7 37.7497C289.7 35.2745 289.2 33.168 288.199 31.4302C287.252 29.6923 285.961 28.3494 284.329 27.4015C282.696 26.4536 280.879 25.9796 278.878 25.9796C276.824 25.9796 274.981 26.4536 273.349 27.4015C271.716 28.3494 270.4 29.6923 269.399 31.4302C268.451 33.168 267.977 35.2745 267.977 37.7497C267.977 40.1722 268.451 42.2787 269.399 44.0692C270.4 45.8071 271.716 47.1499 273.349 48.0979C274.981 49.0458 276.824 49.5198 278.878 49.5198ZM290.016 58.999V50.3097L290.253 37.6707L289.463 25.1107V0.385588H301.786V58.999H290.016ZM318.563 74.9558C316.352 74.9558 314.166 74.6135 312.007 73.9289C309.848 73.2442 308.083 72.2963 306.714 71.0851L311.217 62.3168C312.165 63.1594 313.244 63.8176 314.456 64.2916C315.72 64.7656 316.957 65.0026 318.168 65.0026C319.906 65.0026 321.275 64.5813 322.276 63.7387C323.329 62.9487 324.277 61.6058 325.12 59.71L327.332 54.4964L328.28 53.1535L343.525 16.5003H355.374L336.179 61.6058C334.81 65.0289 333.23 67.7147 331.439 69.6632C329.701 71.6117 327.753 72.9809 325.594 73.7709C323.487 74.5608 321.144 74.9558 318.563 74.9558ZM325.831 60.6579L306.872 16.5003H319.59L334.283 52.0476L325.831 60.6579Z" fill="white"/>
</svg>
