<svg width="250" height="53" viewBox="0 0 250 53" fill="none" xmlns="http://www.w3.org/2000/svg">
<path opacity="0.5" d="M17.7098 42.4453C15.0749 42.4453 12.8112 41.8887 10.9185 40.7753C9.02588 39.662 7.57856 37.9735 6.57657 35.7097C5.57458 33.4089 5.07358 30.5142 5.07358 27.0258C5.07358 23.5003 5.59313 20.6056 6.63223 18.3419C7.70844 16.0781 9.19287 14.3896 11.0855 13.2763C12.9782 12.163 15.1863 11.6063 17.7098 11.6063C20.5302 11.6063 23.0537 12.2372 25.2804 13.4989C27.5441 14.7607 29.3255 16.542 30.6243 18.8429C31.9603 21.1438 32.6283 23.8714 32.6283 27.0258C32.6283 30.1431 31.9603 32.8522 30.6243 35.1531C29.3255 37.4539 27.5441 39.2538 25.2804 40.5527C23.0537 41.8144 20.5302 42.4453 17.7098 42.4453ZM0.00796188 42V0.695726H8.69188V18.1192L8.13522 26.9701L8.30222 35.8767V42H0.00796188ZM16.2068 35.3201C17.6541 35.3201 18.9344 34.9861 20.0478 34.3181C21.1982 33.6501 22.1074 32.7038 22.7754 31.4791C23.4805 30.2173 23.8331 28.7329 23.8331 27.0258C23.8331 25.2816 23.4805 23.7972 22.7754 22.5725C22.1074 21.3479 21.1982 20.4015 20.0478 19.7335C18.9344 19.0656 17.6541 18.7316 16.2068 18.7316C14.7595 18.7316 13.4606 19.0656 12.3102 19.7335C11.1597 20.4015 10.2505 21.3479 9.58254 22.5725C8.91454 23.7972 8.58055 25.2816 8.58055 27.0258C8.58055 28.7329 8.91454 30.2173 9.58254 31.4791C10.2505 32.7038 11.1597 33.6501 12.3102 34.3181C13.4606 34.9861 14.7595 35.3201 16.2068 35.3201ZM53.3044 42.4453C49.8902 42.4453 46.8842 41.7773 44.2865 40.4413C41.7258 39.1054 39.7404 37.2869 38.3302 34.9861C36.92 32.6481 36.2149 29.9947 36.2149 27.0258C36.2149 24.0198 36.9014 21.3664 38.2745 19.0656C39.6847 16.7276 41.5959 14.9091 44.0081 13.6103C46.4203 12.2743 49.148 11.6063 52.191 11.6063C55.1228 11.6063 57.7577 12.2372 60.0956 13.4989C62.4707 14.7236 64.3448 16.5049 65.7179 18.8429C67.091 21.1438 67.7776 23.9085 67.7776 27.1371C67.7776 27.4711 67.759 27.8608 67.7219 28.3061C67.6848 28.7143 67.6477 29.104 67.6106 29.4751H43.2845V24.4095H63.0459L59.706 25.9125C59.706 24.3538 59.3905 22.9993 58.7597 21.8489C58.1288 20.6984 57.2567 19.8078 56.1433 19.1769C55.03 18.5089 53.7311 18.1749 52.2467 18.1749C50.7623 18.1749 49.4449 18.5089 48.2944 19.1769C47.1811 19.8078 46.309 20.717 45.6781 21.9045C45.0472 23.055 44.7318 24.4281 44.7318 26.0238V27.3598C44.7318 28.9927 45.0843 30.44 45.7894 31.7018C46.5317 32.9264 47.5522 33.8727 48.8511 34.5407C50.1871 35.1716 51.7457 35.4871 53.527 35.4871C55.1228 35.4871 56.5145 35.2458 57.702 34.7634C58.9267 34.281 60.04 33.5573 61.042 32.5924L65.6623 37.6024C64.2892 39.161 62.5635 40.3671 60.4853 41.2207C58.4071 42.0371 56.0135 42.4453 53.3044 42.4453ZM99.3994 42.4453C96.8388 42.4453 94.3709 42.1484 91.9958 41.5547C89.6578 40.9238 87.8023 40.1445 86.4292 39.2167L89.3238 32.9821C90.6969 33.8356 92.3113 34.5407 94.1668 35.0974C96.0594 35.6169 97.915 35.8767 99.7334 35.8767C101.737 35.8767 103.148 35.6355 103.964 35.1531C104.818 34.6706 105.244 34.0026 105.244 33.1491C105.244 32.444 104.91 31.9244 104.242 31.5904C103.611 31.2193 102.758 30.941 101.682 30.7554C100.606 30.5699 99.418 30.3843 98.1191 30.1988C96.8573 30.0132 95.577 29.772 94.2781 29.4751C92.9793 29.1411 91.7917 28.6587 90.7155 28.0278C89.6393 27.3969 88.7672 26.5434 88.0992 25.4672C87.4683 24.3909 87.1529 22.9993 87.1529 21.2922C87.1529 19.3995 87.691 17.7296 88.7672 16.2822C89.8805 14.8349 91.4763 13.703 93.5545 12.8866C95.6327 12.0331 98.1191 11.6063 101.014 11.6063C103.055 11.6063 105.133 11.829 107.248 12.2743C109.364 12.7196 111.126 13.3691 112.537 14.2226L109.642 20.4015C108.195 19.548 106.729 18.9728 105.244 18.6759C103.797 18.3419 102.387 18.1749 101.014 18.1749C99.084 18.1749 97.6738 18.4347 96.7831 18.9542C95.8924 19.4738 95.4471 20.1418 95.4471 20.9582C95.4471 21.7004 95.7626 22.2571 96.3934 22.6282C97.0614 22.9993 97.9335 23.2962 99.0097 23.5188C100.086 23.7415 101.255 23.9456 102.517 24.1312C103.816 24.2796 105.114 24.5208 106.413 24.8548C107.712 25.1888 108.881 25.6713 109.92 26.3021C110.997 26.8959 111.869 27.7309 112.537 28.8071C113.205 29.8462 113.539 31.2193 113.539 32.9264C113.539 34.782 112.982 36.4334 111.869 37.8807C110.755 39.2909 109.141 40.4042 107.026 41.2207C104.947 42.0371 102.405 42.4453 99.3994 42.4453ZM131.533 42.4453C129.046 42.4453 126.82 41.9629 124.853 40.998C122.923 40.0331 121.42 38.5673 120.344 36.6004C119.268 34.5964 118.729 32.0543 118.729 28.9741V12.0516H127.413V27.6938C127.413 30.1802 127.933 32.0172 128.972 33.2048C130.048 34.3552 131.551 34.9304 133.481 34.9304C134.817 34.9304 136.005 34.6521 137.044 34.0954C138.083 33.5016 138.899 32.611 139.493 31.4234C140.087 30.1988 140.384 28.6772 140.384 26.8588V12.0516H149.068V42H140.829V33.7614L142.332 36.1551C141.33 38.2333 139.845 39.8105 137.879 40.8867C135.949 41.9258 133.834 42.4453 131.533 42.4453ZM174.814 42.4453C172.291 42.4453 170.083 41.8887 168.19 40.7753C166.297 39.662 164.813 37.9735 163.737 35.7097C162.698 33.4089 162.178 30.5142 162.178 27.0258C162.178 23.5003 162.679 20.6056 163.681 18.3419C164.683 16.0781 166.13 14.3896 168.023 13.2763C169.916 12.163 172.18 11.6063 174.814 11.6063C177.635 11.6063 180.158 12.2557 182.385 13.5546C184.649 14.8164 186.43 16.5977 187.729 18.8986C189.065 21.1994 189.733 23.9085 189.733 27.0258C189.733 30.1802 189.065 32.9079 187.729 35.2087C186.43 37.5096 184.649 39.2909 182.385 40.5527C180.158 41.8144 177.635 42.4453 174.814 42.4453ZM157.113 52.7992V12.0516H165.407V18.1749L165.24 27.0815L165.796 35.9324V52.7992H157.113ZM173.311 35.3201C174.759 35.3201 176.039 34.9861 177.152 34.3181C178.303 33.6501 179.212 32.7038 179.88 31.4791C180.585 30.2173 180.938 28.7329 180.938 27.0258C180.938 25.2816 180.585 23.7972 179.88 22.5725C179.212 21.3479 178.303 20.4015 177.152 19.7335C176.039 19.0656 174.759 18.7316 173.311 18.7316C171.864 18.7316 170.565 19.0656 169.415 19.7335C168.264 20.4015 167.355 21.3479 166.687 22.5725C166.019 23.7972 165.685 25.2816 165.685 27.0258C165.685 28.7329 166.019 30.2173 166.687 31.4791C167.355 32.7038 168.264 33.6501 169.415 34.3181C170.565 34.9861 171.864 35.3201 173.311 35.3201ZM210.409 42.4453C206.995 42.4453 203.989 41.7773 201.391 40.4413C198.83 39.1054 196.845 37.2869 195.435 34.9861C194.025 32.6481 193.319 29.9947 193.319 27.0258C193.319 24.0198 194.006 21.3664 195.379 19.0656C196.789 16.7276 198.701 14.9091 201.113 13.6103C203.525 12.2743 206.253 11.6063 209.296 11.6063C212.227 11.6063 214.862 12.2372 217.2 13.4989C219.575 14.7236 221.449 16.5049 222.823 18.8429C224.196 21.1438 224.882 23.9085 224.882 27.1371C224.882 27.4711 224.864 27.8608 224.827 28.3061C224.789 28.7143 224.752 29.104 224.715 29.4751H200.389V24.4095H220.151L216.811 25.9125C216.811 24.3538 216.495 22.9993 215.864 21.8489C215.233 20.6984 214.361 19.8078 213.248 19.1769C212.135 18.5089 210.836 18.1749 209.351 18.1749C207.867 18.1749 206.549 18.5089 205.399 19.1769C204.286 19.8078 203.414 20.717 202.783 21.9045C202.152 23.055 201.836 24.4281 201.836 26.0238V27.3598C201.836 28.9927 202.189 30.44 202.894 31.7018C203.636 32.9264 204.657 33.8727 205.956 34.5407C207.292 35.1716 208.85 35.4871 210.632 35.4871C212.227 35.4871 213.619 35.2458 214.807 34.7634C216.031 34.281 217.145 33.5573 218.147 32.5924L222.767 37.6024C221.394 39.161 219.668 40.3671 217.59 41.2207C215.512 42.0371 213.118 42.4453 210.409 42.4453ZM230.664 42V12.0516H238.958V20.5129L237.789 18.0636C238.68 15.9482 240.108 14.3525 242.075 13.2763C244.042 12.163 246.436 11.6063 249.256 11.6063V19.6222C248.885 19.5851 248.551 19.5665 248.254 19.5665C247.957 19.5294 247.642 19.5109 247.308 19.5109C244.933 19.5109 243.003 20.1974 241.519 21.5705C240.071 22.9065 239.348 25.0033 239.348 27.8608V42H230.664Z" fill="white"/>
</svg>
