<svg width="557" height="102" viewBox="0 0 557 102" fill="none" xmlns="http://www.w3.org/2000/svg">
<path opacity="0.75" d="M0.857891 78.7578V0.412361H39.1352C48.9844 0.412361 56.3712 2.27773 61.2958 6.00847C66.295 9.7392 68.7946 14.6638 68.7946 20.7822C68.7946 24.886 67.7873 28.4675 65.7727 31.5267C63.7581 34.5113 60.9974 36.8243 57.4905 38.4659C53.9836 40.1074 49.9544 40.9282 45.4029 40.9282L47.5294 36.3393C52.454 36.3393 56.8189 37.1601 60.6243 38.8016C64.4296 40.3685 67.3769 42.7189 69.4661 45.8527C71.6299 48.9865 72.7119 52.8292 72.7119 57.3807C72.7119 64.096 70.063 69.3564 64.7654 73.1617C59.4677 76.8924 51.6705 78.7578 41.3737 78.7578H0.857891ZM18.8773 65.1033H40.0306C44.7313 65.1033 48.2755 64.3572 50.6632 62.8649C53.1255 61.298 54.3566 58.8357 54.3566 55.478C54.3566 52.195 53.1255 49.77 50.6632 48.2031C48.2755 46.5616 44.7313 45.7408 40.0306 45.7408H17.5343V32.534H36.8968C41.2991 32.534 44.6567 31.7878 46.9698 30.2956C49.3575 28.7286 50.5513 26.3783 50.5513 23.2445C50.5513 20.1853 49.3575 17.9095 46.9698 16.4172C44.6567 14.8503 41.2991 14.0669 36.8968 14.0669H18.8773V65.1033ZM115.091 79.6532C108.226 79.6532 102.183 78.3101 96.9596 75.624C91.8112 72.9379 87.8193 69.2817 84.9839 64.6556C82.1486 59.9549 80.7309 54.62 80.7309 48.6508C80.7309 42.607 82.1113 37.272 84.872 32.6459C87.7074 27.9452 91.55 24.2891 96.4 21.6776C101.25 18.9914 106.734 17.6484 112.853 17.6484C118.747 17.6484 124.045 18.9168 128.745 21.4537C133.521 23.916 137.289 27.4975 140.05 32.1982C142.81 36.8243 144.191 42.3831 144.191 48.8746C144.191 49.5462 144.153 50.3296 144.079 51.225C144.004 52.0457 143.93 52.8292 143.855 53.5753H94.945V43.3904H134.677L127.962 46.4123C127.962 43.2785 127.328 40.5551 126.059 38.242C124.791 35.929 123.037 34.1382 120.799 32.8698C118.561 31.5267 115.949 30.8552 112.964 30.8552C109.98 30.8552 107.331 31.5267 105.018 32.8698C102.78 34.1382 101.026 35.9663 99.7576 38.3539C98.4892 40.667 97.855 43.4277 97.855 46.6362V49.3223C97.855 52.6054 98.5638 55.5153 99.9815 58.0522C101.474 60.5145 103.526 62.4172 106.137 63.7603C108.823 65.0287 111.957 65.6629 115.539 65.6629C118.747 65.6629 121.545 65.1779 123.933 64.2079C126.395 63.238 128.634 61.783 130.648 59.843L139.938 69.916C137.177 73.0498 133.707 75.4748 129.529 77.1909C125.35 78.8324 120.538 79.6532 115.091 79.6532ZM207.769 79.6532C202.621 79.6532 197.659 79.0563 192.884 77.8624C188.183 76.594 184.452 75.0271 181.692 73.1617L187.512 60.6264C190.272 62.3426 193.518 63.7603 197.249 64.8795C201.054 65.9241 204.785 66.4464 208.441 66.4464C212.47 66.4464 215.306 65.9614 216.947 64.9914C218.663 64.0214 219.521 62.6783 219.521 60.9622C219.521 59.5445 218.85 58.4999 217.507 57.8284C216.238 57.0822 214.522 56.5226 212.358 56.1496C210.194 55.7765 207.807 55.4034 205.195 55.0303C202.658 54.6573 200.084 54.1723 197.473 53.5753C194.861 52.9038 192.473 51.9338 190.31 50.6654C188.146 49.3969 186.392 47.6808 185.049 45.517C183.781 43.3531 183.147 40.5551 183.147 37.1228C183.147 33.3175 184.228 29.9598 186.392 27.0498C188.631 24.1398 191.839 21.8641 196.018 20.2226C200.196 18.5064 205.195 17.6484 211.015 17.6484C215.119 17.6484 219.297 18.0961 223.55 18.9914C227.803 19.8868 231.348 21.1926 234.183 22.9087L228.363 35.332C225.453 33.6159 222.506 32.4594 219.521 31.8625C216.611 31.1909 213.776 30.8552 211.015 30.8552C207.135 30.8552 204.3 31.3775 202.509 32.4221C200.718 33.4667 199.823 34.8097 199.823 36.4513C199.823 37.9436 200.457 39.0628 201.726 39.8089C203.069 40.5551 204.822 41.152 206.986 41.5997C209.15 42.0474 211.5 42.4578 214.037 42.8308C216.649 43.1293 219.26 43.6143 221.872 44.2858C224.483 44.9573 226.834 45.9273 228.923 47.1958C231.087 48.3896 232.84 50.0685 234.183 52.2323C235.526 54.3215 236.198 57.0822 236.198 60.5145C236.198 64.2453 235.078 67.5656 232.84 70.4756C230.602 73.3109 227.356 75.5494 223.103 77.1909C218.924 78.8324 213.813 79.6532 207.769 79.6532ZM271.593 79.6532C264.505 79.6532 258.983 77.8624 255.029 74.2809C251.074 70.6248 249.097 65.2152 249.097 58.0522V5.22501H266.557V57.8284C266.557 60.3653 267.228 62.3426 268.571 63.7603C269.914 65.1033 271.742 65.7749 274.055 65.7749C276.816 65.7749 279.166 65.0287 281.106 63.5364L285.807 75.8478C284.016 77.1163 281.853 78.0863 279.316 78.7578C276.853 79.3547 274.279 79.6532 271.593 79.6532ZM239.807 33.3175V19.8868H281.554V33.3175H239.807ZM295.608 78.7578V18.5437H312.285V35.5559L309.934 30.6313C311.725 26.3783 314.598 23.1699 318.552 21.006C322.507 18.7676 327.319 17.6484 332.99 17.6484V33.7651C332.244 33.6905 331.572 33.6532 330.976 33.6532C330.379 33.5786 329.744 33.5413 329.073 33.5413C324.298 33.5413 320.418 34.9217 317.433 37.6824C314.523 40.3685 313.068 44.5843 313.068 50.3296V78.7578H295.608ZM371.477 79.6532C365.06 79.6532 359.352 78.3101 354.353 75.624C349.429 72.9379 345.511 69.2817 342.601 64.6556C339.766 59.9549 338.348 54.62 338.348 48.6508C338.348 42.607 339.766 37.272 342.601 32.6459C345.511 27.9452 349.429 24.2891 354.353 21.6776C359.352 18.9914 365.06 17.6484 371.477 17.6484C377.82 17.6484 383.49 18.9914 388.489 21.6776C393.489 24.2891 397.406 27.9079 400.241 32.534C403.077 37.1601 404.494 42.5324 404.494 48.6508C404.494 54.62 403.077 59.9549 400.241 64.6556C397.406 69.2817 393.489 72.9379 388.489 75.624C383.49 78.3101 377.82 79.6532 371.477 79.6532ZM371.477 65.3272C374.387 65.3272 376.999 64.6556 379.312 63.3126C381.625 61.9695 383.453 60.0668 384.796 57.6045C386.139 55.0676 386.811 52.0831 386.811 48.6508C386.811 45.1439 386.139 42.1593 384.796 39.697C383.453 37.2347 381.625 35.332 379.312 33.989C376.999 32.6459 374.387 31.9744 371.477 31.9744C368.567 31.9744 365.956 32.6459 363.643 33.989C361.33 35.332 359.464 37.2347 358.047 39.697C356.704 42.1593 356.032 45.1439 356.032 48.6508C356.032 52.0831 356.704 55.0676 358.047 57.6045C359.464 60.0668 361.33 61.9695 363.643 63.3126C365.956 64.6556 368.567 65.3272 371.477 65.3272ZM452.763 17.6484C457.539 17.6484 461.792 18.6184 465.522 20.5583C469.328 22.4237 472.312 25.3337 474.476 29.2883C476.64 33.1682 477.722 38.1674 477.722 44.2858V78.7578H460.262V46.9719C460.262 42.122 459.18 38.5405 457.016 36.2274C454.927 33.9144 451.943 32.7578 448.063 32.7578C445.302 32.7578 442.802 33.3548 440.564 34.5486C438.4 35.6678 436.684 37.4213 435.415 39.8089C434.222 42.1966 433.625 45.2558 433.625 48.9865V78.7578H416.165V18.5437H432.841V35.2201L429.707 30.1836C431.871 26.1544 434.968 23.0579 438.997 20.8941C443.026 18.7303 447.615 17.6484 452.763 17.6484ZM522.302 101.366C516.631 101.366 511.147 100.657 505.849 99.2396C500.626 97.8965 496.261 95.8446 492.754 93.0838L499.694 80.5486C502.231 82.6378 505.439 84.2793 509.319 85.4731C513.274 86.7416 517.154 87.3758 520.959 87.3758C527.152 87.3758 531.629 85.9954 534.39 83.2347C537.225 80.474 538.643 76.3701 538.643 70.9233V61.8576L539.762 46.7481L539.538 31.5267V18.5437H556.102V68.6848C556.102 79.877 553.192 88.122 547.372 93.4196C541.553 98.7172 533.196 101.366 522.302 101.366ZM519.616 75.8478C514.02 75.8478 508.946 74.654 504.394 72.2663C499.918 69.804 496.299 66.4091 493.538 62.0814C490.852 57.6792 489.509 52.568 489.509 46.7481C489.509 40.8535 490.852 35.7424 493.538 31.4148C496.299 27.0125 499.918 23.6175 504.394 21.2299C508.946 18.8422 514.02 17.6484 519.616 17.6484C524.69 17.6484 529.166 18.693 533.046 20.7822C536.926 22.7968 539.948 25.9679 542.112 30.2956C544.276 34.5486 545.358 40.0328 545.358 46.7481C545.358 53.3888 544.276 58.873 542.112 63.2006C539.948 67.4537 536.926 70.6248 533.046 72.714C529.166 74.8032 524.69 75.8478 519.616 75.8478ZM523.085 61.5218C526.145 61.5218 528.868 60.9249 531.256 59.7311C533.643 58.4626 535.509 56.7092 536.852 54.4707C538.195 52.2323 538.866 49.6581 538.866 46.7481C538.866 43.7635 538.195 41.1893 536.852 39.0255C535.509 36.787 533.643 35.0709 531.256 33.8771C528.868 32.6086 526.145 31.9744 523.085 31.9744C520.026 31.9744 517.303 32.6086 514.915 33.8771C512.527 35.0709 510.625 36.787 509.207 39.0255C507.864 41.1893 507.192 43.7635 507.192 46.7481C507.192 49.6581 507.864 52.2323 509.207 54.4707C510.625 56.7092 512.527 58.4626 514.915 59.7311C517.303 60.9249 520.026 61.5218 523.085 61.5218Z" fill="white"/>
</svg>
