<svg width="302" height="283" viewBox="0 0 302 283" fill="none"  xmlns="http://www.w3.org/2000/svg">
<g
    transform="rotate(50 50)"
              >

  </g>
<path d="M249.088 148.046C250.47 142.894 256.052 139.922 261.458 141.413C266.864 142.904 270.171 148.269 268.738 153.399C267.305 158.53 261.774 161.524 256.368 160.032C250.962 158.541 247.655 153.176 249.088 148.046Z" fill="white"/>
<path d="M271.691 114.123C273.073 108.971 278.655 105.999 284.061 107.49C289.467 108.982 292.773 114.346 291.34 119.477C289.908 124.607 284.377 127.601 278.971 126.11C273.565 124.618 270.258 119.254 271.691 114.123Z" fill="white"/>
<path d="M231.765 117.733C233.147 112.581 238.729 109.609 244.135 111.1C249.541 112.591 252.847 117.956 251.415 123.086C249.982 128.217 244.451 131.211 239.045 129.719C233.639 128.228 230.332 122.863 231.765 117.733Z" fill="white"/>
<path d="M205.898 159.624C207.28 154.472 212.862 151.499 218.268 152.991C223.674 154.482 226.981 159.847 225.548 164.977C224.115 170.107 218.584 173.101 213.178 171.61C207.772 170.119 204.466 164.754 205.898 159.624Z" fill="white"/>
<path d="M211.974 128.853C213.377 123.702 210.1 118.325 204.654 116.842C199.209 115.359 193.657 118.333 192.255 123.483C190.852 128.634 194.129 134.012 199.574 135.494C205.02 136.977 210.571 134.004 211.974 128.853Z" fill="white"/>
<path d="M167.68 156.82C169.083 151.669 165.806 146.292 160.361 144.809C154.915 143.326 149.363 146.299 147.961 151.45C146.558 156.601 149.835 161.978 155.28 163.461C160.726 164.944 166.277 161.97 167.68 156.82Z" fill="white"/>
<path d="M121.331 167.615C122.733 162.464 119.456 157.086 114.011 155.604C108.566 154.121 103.014 157.094 101.611 162.245C100.208 167.396 103.485 172.773 108.931 174.256C114.376 175.739 119.928 172.765 121.331 167.615Z" fill="white"/>
<path d="M59.245 163.064C60.6268 157.911 66.2088 154.939 71.6148 156.431C77.0207 157.922 80.3273 163.287 78.8946 168.417C77.4618 173.547 71.9307 176.541 66.5248 175.05C61.1189 173.559 57.8122 168.194 59.245 163.064Z" fill="white"/>
<path d="M30.148 171.657C31.5509 166.506 28.2737 161.129 22.8283 159.646C17.3829 158.163 11.8312 161.137 10.4283 166.288C9.02545 171.438 12.3026 176.816 17.748 178.298C23.1934 179.781 28.7451 176.808 30.148 171.657Z" fill="white"/>
<path d="M174.09 186.436C175.493 181.285 172.216 175.908 166.771 174.425C161.325 172.942 155.774 175.916 154.371 181.066C152.968 186.217 156.245 191.595 161.69 193.077C167.136 194.56 172.687 191.587 174.09 186.436Z" fill="white"/>
<path d="M101.603 191.314C102.985 186.162 108.567 183.19 113.973 184.681C119.379 186.173 122.686 191.537 121.253 196.668C119.82 201.798 114.289 204.792 108.883 203.301C103.477 201.809 100.171 196.445 101.603 191.314Z" fill="white"/>
<path d="M49.3597 199.34C50.7415 194.188 56.3236 191.216 61.7295 192.707C67.1354 194.198 70.4421 199.563 69.0093 204.693C67.5766 209.824 62.0455 212.818 56.6395 211.326C51.2336 209.835 47.927 204.47 49.3597 199.34Z" fill="white"/>
<path d="M154.559 111.146C155.941 105.994 161.523 103.021 166.929 104.513C172.335 106.004 175.642 111.369 174.209 116.499C172.776 121.629 167.245 124.623 161.839 123.132C156.433 121.641 153.127 116.276 154.559 111.146Z" fill="white"/>
<path d="M208.392 89.0985C209.774 83.9462 215.356 80.9741 220.762 82.4654C226.168 83.9567 229.474 89.3214 228.042 94.4517C226.609 99.5819 221.078 102.576 215.672 101.085C210.266 99.5935 206.959 94.2287 208.392 89.0985Z" fill="white"/>
<path d="M263.9 89.6042C265.303 84.4535 262.026 79.0761 256.58 77.5934C251.135 76.1106 245.583 79.0841 244.18 84.2348C242.777 89.3855 246.055 94.763 251.5 96.2457C256.945 97.7285 262.497 94.755 263.9 89.6042Z" fill="white"/>
<path d="M111.663 121.763C113.045 116.61 118.627 113.638 124.033 115.129C129.439 116.621 132.746 121.986 131.313 127.116C129.88 132.246 124.349 135.24 118.943 133.749C113.537 132.257 110.231 126.893 111.663 121.763Z" fill="white"/>
<path d="M53.8705 133.804C55.2523 128.652 60.8343 125.68 66.2403 127.171C71.6462 128.662 74.9528 134.027 73.5201 139.157C72.0873 144.287 66.5562 147.282 61.1503 145.79C55.7444 144.299 52.4377 138.934 53.8705 133.804Z" fill="white"/>

</svg>
