<svg width="165" height="181" viewBox="0 0 165 181" fill="none" xmlns="http://www.w3.org/2000/svg">
<path d="M84.6269 151.647C87.8876 152.165 90.0774 155.409 89.5085 158.833C88.9396 162.257 85.8509 164.639 82.6006 164.088C79.3502 163.537 77.1501 160.326 77.719 156.902C78.2879 153.478 81.3766 151.097 84.6269 151.647Z" fill="white"/>
<path d="M106.967 163.369C110.228 163.887 112.418 167.131 111.849 170.555C111.28 173.979 108.191 176.361 104.941 175.81C101.69 175.259 99.4901 172.048 100.059 168.624C100.628 165.201 103.717 162.819 106.967 163.369Z" fill="white"/>
<path d="M102.167 139.027C105.428 139.545 107.618 142.789 107.049 146.212C106.48 149.636 103.391 152.018 100.141 151.467C96.8907 150.917 94.6906 147.705 95.2595 144.282C95.8284 140.858 98.9171 138.476 102.167 139.027Z" fill="white"/>
<path d="M74.7114 125.809C77.9721 126.327 80.1619 129.571 79.593 132.995C79.0241 136.419 75.9354 138.801 72.685 138.25C69.4347 137.699 67.2345 134.488 67.8034 131.064C68.3723 127.64 71.461 125.259 74.7114 125.809Z" fill="white"/>
<path d="M94.0451 127.563C97.3062 128.093 100.405 125.729 100.966 122.281C101.527 118.834 99.338 115.609 96.077 115.078C92.816 114.547 89.7175 116.911 89.1564 120.359C88.5954 123.806 90.7841 127.032 94.0451 127.563Z" fill="white"/>
<path d="M73.9704 102.104C77.2315 102.635 80.3299 100.271 80.891 96.8231C81.4521 93.3755 79.2633 90.1501 76.0023 89.6191C72.7412 89.0881 69.6428 91.4526 69.0817 94.9003C68.5206 98.3479 70.7094 101.573 73.9704 102.104Z" fill="white"/>
<path d="M64.333 74.271C67.594 74.802 70.6925 72.4376 71.2536 68.99C71.8146 65.5424 69.6259 62.3171 66.3649 61.7861C63.1038 61.2551 60.0054 63.6195 59.4443 67.0671C58.8832 70.5148 61.072 73.74 64.333 74.271Z" fill="white"/>
<path d="M63.1255 35.7605C66.3861 36.2784 68.576 39.5225 68.007 42.9463C67.4381 46.3702 64.3494 48.7519 61.0991 48.2013C57.8487 47.6506 55.6486 44.4393 56.2175 41.0154C56.7864 37.5916 59.8751 35.2098 63.1255 35.7605Z" fill="white"/>
<path d="M55.9572 18.4053C59.2183 18.9362 62.3167 16.5718 62.8778 13.1242C63.4389 9.67662 61.2501 6.45136 57.9891 5.92039C54.7281 5.38942 51.6296 7.75381 51.0685 11.2014C50.5075 14.649 52.6962 17.8743 55.9572 18.4053Z" fill="white"/>
<path d="M56.1543 107.962C59.4153 108.493 62.5137 106.128 63.0748 102.681C63.6359 99.2333 61.4472 96.008 58.1861 95.477C54.9251 94.9461 51.8266 97.3105 51.2656 100.758C50.7045 104.206 52.8932 107.431 56.1543 107.962Z" fill="white"/>
<path d="M48.4712 63.658C51.7318 64.1759 53.9217 67.4199 53.3528 70.8438C52.7838 74.2676 49.6951 76.6494 46.4448 76.0987C43.1944 75.548 40.9943 72.3368 41.5632 68.9129C42.1321 65.4891 45.2208 63.1073 48.4712 63.658Z" fill="white"/>
<path d="M40.1575 32.0183C43.4181 32.5362 45.608 35.7803 45.0391 39.2041C44.4702 42.628 41.3814 45.0097 38.1311 44.4591C34.8807 43.9084 32.6806 40.6971 33.2495 37.2733C33.8184 33.8494 36.9071 31.4677 40.1575 32.0183Z" fill="white"/>
<path d="M101.237 91.0784C104.498 91.5963 106.688 94.8402 106.119 98.2641C105.55 101.688 102.461 104.07 99.2109 103.519C95.9605 102.968 93.7604 99.7572 94.3293 96.3333C94.8982 92.9095 97.9869 90.5277 101.237 91.0784Z" fill="white"/>
<path d="M118.284 122.791C121.545 123.309 123.734 126.553 123.166 129.977C122.597 133.4 119.508 135.782 116.258 135.232C113.007 134.681 110.807 131.47 111.376 128.046C111.945 124.622 115.034 122.24 118.284 122.791Z" fill="white"/>
<path d="M121.556 156.991C124.817 157.522 127.916 155.157 128.477 151.71C129.038 148.262 126.849 145.037 123.588 144.506C120.327 143.975 117.229 146.339 116.668 149.787C116.107 153.234 118.295 156.46 121.556 156.991Z" fill="white"/>
<path d="M91.9324 65.3596C95.193 65.8775 97.3828 69.1216 96.8139 72.5454C96.245 75.9693 93.1563 78.351 89.9059 77.8004C86.6556 77.2497 84.4555 74.0384 85.0244 70.6146C85.5933 67.1907 88.682 64.809 91.9324 65.3596Z" fill="white"/>
<path d="M80.7893 30.5633C84.05 31.0811 86.2398 34.3252 85.6709 37.7491C85.102 41.1729 82.0133 43.5547 78.7629 43.004C75.5125 42.4533 73.3124 39.242 73.8813 35.8182C74.4502 32.3943 77.5389 30.0126 80.7893 30.5633Z" fill="white"/>
</svg>
