<svg width="542" height="132" viewBox="0 0 542 132" fill="none" xmlns="http://www.w3.org/2000/svg">
<path d="M121.04 532.935C58.827 527.646 12.2777 502.125 2.9384 474.947C-6.40088 447.769 16.4693 419.922 53.4587 397.588C99.3462 369.868 167.442 348.266 195.019 316.277C223.404 283.397 202.593 246.246 168.766 214.353C134.938 182.428 88.5362 152.988 62.4303 119.757C31.1033 79.7707 42.2075 26.849 128.246 6.96751C193.768 -8.16663 279.587 3.20787 330.548 26.626C381.51 50.044 403.424 82.6701 412.911 114.595C422.397 146.52 421.294 178.987 434.457 210.657C457.18 265.267 521.599 315.672 538.145 370.728C553.956 423.395 519.834 480.809 429.162 516.558C338.49 552.306 187.738 560.081 92.1395 526.785" fill="#FCBE35"/>
</svg>
