<svg width="96" height="60" viewBox="0 0 96 60" fill="none" xmlns="http://www.w3.org/2000/svg">
<path d="M96 22.3035C96 41.9233 81.9661 53.598 73.2167 58.9722C72.1064 59.6537 70.9085 58.2376 71.7573 57.2458C74.4843 54.0579 77.6679 49.5003 79.8153 43.7549C77.8706 44.3101 75.8174 44.6059 73.6965 44.6059C61.379 44.6059 51.393 34.621 51.393 22.3024C51.393 9.98384 61.379 0 73.6965 0C86.014 0 96 9.98495 96 22.3035Z" fill="black" fill-opacity="0.95"/>
<path d="M44.6059 22.3035C44.6059 41.9233 30.572 53.598 21.8226 58.9722C20.7123 59.6537 19.5145 58.2376 20.3633 57.2458C23.0903 54.0579 26.2738 49.5003 28.4213 43.7549C26.4766 44.3101 24.4233 44.6059 22.3024 44.6059C9.98495 44.6059 0 34.621 0 22.3035C0 9.98605 9.98495 0 22.3035 0C34.6221 0 44.607 9.98495 44.607 22.3035H44.6059Z" fill="black" fill-opacity="0.95"/>
</svg>
