<svg width="341" height="361" viewBox="0 0 341 361" fill="none" xmlns="http://www.w3.org/2000/svg">
<path d="M58.2164 206.997C35.2757 202.474 -2.43822 190.146 0.124089 162.128C2.6864 134.111 42.9627 126.466 70.9879 129.027C115.108 133.07 181.607 156.085 179.566 178.499C177.003 206.517 86.2016 212.52 58.2164 206.997Z" fill="white"/>
<path d="M334.545 153.483C357.486 158.006 395.2 170.334 392.637 198.351C390.075 226.369 349.799 234.014 321.774 231.452C277.654 227.41 211.154 204.395 213.196 181.981C215.758 153.963 306.56 147.96 334.545 153.483Z" fill="white"/>
<path d="M102.216 75.7139C94.289 53.74 85.401 15.0756 110.744 2.78778C136.087 -9.45996 163.391 21.1194 175.642 46.4554C194.94 86.3206 209.473 155.164 189.214 164.97C163.872 177.218 111.905 102.531 102.256 75.7139H102.216Z" fill="white"/>
<path d="M290.545 284.806C298.473 306.78 307.361 345.444 282.018 357.692C256.675 369.94 229.37 339.361 217.119 314.025C197.822 274.159 183.289 205.316 203.547 195.51C228.89 183.262 280.857 257.949 290.505 284.766L290.545 284.806Z" fill="white"/>
<path d="M237.978 45.8549C252.792 27.7635 281.457 0.346148 304.959 15.8359C328.46 31.3257 316.169 70.4305 300.715 93.9253C276.333 130.909 224.646 178.659 205.829 166.251C182.328 150.761 219.882 67.9089 237.978 45.8549Z" fill="white"/>
<path d="M154.783 314.625C139.97 332.717 111.304 360.134 87.803 344.644C64.3019 329.154 76.5929 290.049 92.0468 266.555C116.429 229.571 168.115 181.821 186.932 194.229C210.433 209.719 172.88 292.611 154.783 314.625Z" fill="white"/>
<path d="M200.785 145.278C218.961 148.16 231.372 165.25 228.49 183.422C225.607 201.593 208.512 214.001 190.335 211.119C172.159 208.238 159.748 191.147 162.63 172.975C165.513 154.804 182.608 142.396 200.785 145.278Z" fill="#FCBE35"/>
</svg>
