<svg width="340" height="296" viewBox="0 0 340 296" fill="none" xmlns="http://www.w3.org/2000/svg">
<path d="M200.528 196.314C204.117 196.837 207.689 197.39 211.295 197.883C225.654 199.899 239.307 204.446 252.757 209.55C261.328 212.791 269.536 216.934 277.788 220.865C279.72 221.781 281.462 223.303 282.956 224.841C286.377 228.405 285.828 232.933 281.492 235.354C278.687 236.911 275.606 238.19 272.503 238.821C240.246 245.455 207.909 248.032 175.362 240.797C153.53 235.976 132.626 228.792 113.16 217.672C102.929 211.805 92.8739 205.841 83.8034 198.102C67.4511 184.134 59.0323 166.327 57.5122 145.235C55.5641 117.94 58.3354 91.0659 66.8227 64.9503C68.9769 58.3309 71.9787 51.9626 74.9759 45.671C77.4996 40.3372 81.2663 40.2085 84.5747 45.1368C91.9118 56.0843 95.9753 68.4381 98.0707 81.2439C99.909 92.4321 100.518 103.824 101.673 115.094C101.775 116.225 101.8 117.351 102.344 118.54C104.073 113.62 105.695 108.679 107.513 103.812C112.771 89.8901 116.965 75.4735 124.689 62.5779C130.254 53.2817 136.267 44.2434 142.202 35.2005C143.439 33.3333 145.187 31.6816 146.98 30.2945C150.259 27.7792 153.64 28.937 154.709 32.93C155.237 34.903 155.432 37.0409 155.461 39.1226C155.72 58.1355 152.216 76.4454 145.298 94.1347C142.515 101.225 139.808 108.32 136.77 116.057C137.88 115.03 138.689 114.385 139.396 113.641C150.618 102.25 162.32 91.3335 176.108 83.1308C185.148 77.7869 194.65 73.2255 204.042 68.4418C205.949 67.4775 208.182 66.9796 210.316 66.5836C214.85 65.7459 217.391 68.5637 215.517 72.8425C213.711 77.0022 211.529 81.2625 208.583 84.6452C196.87 98.0566 184.834 111.202 172.857 124.382C168.75 128.882 164.381 133.15 160.419 137.812C167.017 133.878 173.524 129.691 180.275 126.044C198.318 116.247 217.412 108.963 237.133 103.273C240.409 102.345 243.904 101.861 247.287 101.709C252.816 101.486 255.519 105.469 252.852 110.363C250.637 114.405 247.813 118.334 244.565 121.622C230.206 136.246 214.523 149.312 196.78 159.758C195.647 160.414 194.568 161.182 193.688 162.5C195.003 162.148 196.319 161.795 197.664 161.46C222.851 155.311 248.258 155.247 273.768 158.855C275.601 159.119 277.479 159.648 279.109 160.469C282.76 162.26 283.625 166.055 280.814 168.999C278.907 170.996 276.553 172.735 274.091 173.974C258.564 181.887 242.006 186.981 225.04 190.648C216.877 192.409 208.723 194.016 200.565 195.699C200.539 195.883 200.512 196.066 200.516 196.267L200.528 196.314ZM110.713 188.421C117.304 191.789 121.647 192.589 125.289 191.713C130.088 190.552 132.525 186.4 131.114 181.693C128.543 172.941 118.698 165.788 109.561 166.073C102.723 166.295 99.3534 171.1 101.661 177.555C103.628 183.02 107.594 186.739 110.683 188.404L110.713 188.421Z" fill="#EC651B"/>
<path d="M71.0121 83.9349C71.8794 84.547 72.5937 85.4142 73.2059 86.2302C74.8896 88.5765 73.1039 90.3107 71.0121 91.4838C68.7162 92.7589 66.2163 92.3508 64.5327 89.8005C62.798 87.1993 64.6857 83.272 67.7979 82.9149C69.0224 82.7619 70.1448 83.221 71.0631 83.884L71.0121 83.9349Z" fill="white"/>
<path d="M109.022 115.813C109.226 118.313 107.95 119.69 105.246 119.996C102.338 120.302 99.9915 118.721 99.8894 116.528C99.7874 114.13 101.828 111.784 104.073 111.733C106.573 111.682 108.869 113.569 109.022 115.865V115.813Z" fill="white"/>
<path d="M33.4112 154.119C33.5642 156.057 32.6459 157.179 30.7582 157.383C28.7174 157.638 27.0338 156.363 26.9317 154.629C26.8297 152.742 28.3093 150.905 29.8909 150.854C31.6765 150.854 33.2581 152.333 33.4112 154.119Z" fill="white"/>
<path d="M83.8697 112.396C81.0636 112.447 79.278 111.121 79.1759 108.826C79.0739 106.836 80.9106 104.949 82.9513 104.949C85.0941 104.949 87.39 106.888 87.5941 108.877C87.8492 111.223 86.6757 112.294 83.8697 112.345V112.396Z" fill="white"/>
<path d="M44.7373 98.5735C44.8904 92.8609 51.6249 92.861 52.6963 98.2166C52.9004 103.98 44.9414 104.286 44.7373 98.5735Z" fill="white"/>
<path d="M152.184 134.227C154.939 134.227 157.133 136.369 156.776 139.123C156.623 140.194 155.246 141.673 154.174 141.826C151.521 142.336 147.746 139.735 147.848 137.797C147.95 135.043 149.889 134.329 152.184 134.176V134.227Z" fill="white"/>
<path d="M125.91 130.401C127.593 132.033 126.981 134.839 124.889 135.859C124.736 135.91 124.583 136.012 124.43 136.012C122.593 136.522 120.195 134.685 119.991 133.002C119.787 131.319 121.369 129.585 123.257 129.432C124.226 129.33 125.195 129.687 125.91 130.401Z" fill="white"/>
<path d="M109.991 154.986C107.644 154.425 107.644 150.14 109.226 148.355C110.042 147.386 113.154 145.703 114.583 149.324C115.144 150.65 114.583 152.384 113.817 153.608C113.256 154.527 111.266 155.394 109.991 155.037V154.986Z" fill="white"/>
<path d="M75.4003 159.576C74.9411 161.617 72.8494 162.433 71.1657 162.637C70.0943 162.739 68.2066 161.259 67.3393 159.984C66.676 159.015 66.523 156.618 67.0332 155.853C67.7474 154.782 69.4311 153.813 70.6045 154.17C72.7473 154.833 76.0636 156.516 75.4003 159.576Z" fill="white"/>
<path d="M88.1546 129.075C91.0627 128.565 93.7157 130.758 92.2872 133.818C91.777 134.839 90.1954 136.471 89.124 136.42C87.2363 136.369 84.8384 135.4 85.0425 133.002C85.1445 131.88 86.573 129.585 88.2057 129.075H88.1546Z" fill="white"/>
<path d="M109.022 96.8905C110.348 93.4731 115.144 93.6261 117.032 96.7375C117.338 97.1965 117.542 97.7066 117.695 98.1656C118.409 100.92 116.011 102.246 113.664 102.195C110.96 102.195 108.614 100.359 108.869 97.6046C108.869 97.3496 108.971 97.1455 109.022 96.8905Z" fill="white"/>
<path d="M10.8613 115.303C10.8613 114.232 11.7797 113.314 12.596 112.753C13.9735 111.886 15.3 112.294 16.4734 113.365C17.2387 114.079 17.5958 116.273 17.0857 117.191C16.1163 119.027 14.1776 118.466 12.698 117.599C11.7287 117.038 10.8613 116.528 10.8613 115.252V115.303Z" fill="white"/>
<path d="M50.5029 136.369C52.1355 132.9 56.217 131.523 59.0741 135.246C59.7884 136.165 58.972 139.174 57.9006 140.296C55.8599 142.489 48.7172 140.602 50.5539 136.318L50.5029 136.369Z" fill="white"/>
<path d="M128.715 146.519C130.093 144.683 132.695 146.876 133.154 147.896C133.715 149.171 134.429 152.486 132.236 153.455C130.399 154.476 126.674 152.588 128.715 146.468V146.519Z" fill="white"/>
<path d="M126.522 174.164C126.267 175.082 124.787 175.694 123.614 175.847C120.859 176.204 118.563 174.521 118.512 172.481C118.41 170.491 119.634 169.675 121.675 169.522C124.226 169.369 127.287 170.134 126.522 174.215V174.164Z" fill="white"/>
<path d="M111.114 131.88C110.96 133.563 108.001 135.043 106.777 135.502C104.94 136.165 102.746 135.757 102.542 133.665C102.44 132.594 103.869 130.86 105.042 130.299C106.828 129.483 110.705 128.106 111.062 131.88H111.114Z" fill="white"/>
<path d="M32.6458 119.69C36.9825 117.701 41.166 124.943 40.2477 127.494C39.7375 128.871 37.5947 130.554 36.2172 130.503C32.5948 130.299 29.0235 122.546 32.6458 119.69Z" fill="white"/>
<path d="M129.939 200.483C129.837 199.565 130.144 198.698 131.164 198.085C133.868 196.402 137.49 197.933 136.572 201.503C136.011 203.696 133.511 205.124 131.725 203.441C130.807 202.625 130.093 201.503 129.939 200.483Z" fill="white"/>
<path d="M68.5635 176.255C68.5635 180.132 66.3187 182.478 61.7269 179.214C61.3698 178.959 59.176 177.071 59.0229 175.796C58.6658 173.144 60.5535 171.818 63.1045 172.022C65.0942 172.175 67.9513 172.991 68.5635 176.255Z" fill="white"/>
<path d="M54.8908 159.933C54.8908 162.841 51.9827 162.994 50.4522 163.198C47.6971 163.555 46.6768 161.464 46.6768 158.964C46.6768 156.261 48.7175 155.547 50.6562 156.057C52.1868 156.465 54.1766 156.057 54.8908 159.882V159.933Z" fill="white"/>
<path d="M104.889 165.493C108.41 167.788 107.236 171.206 104.94 173.093C103.614 173.807 101.93 174.113 100.655 173.654C98.5119 172.889 97.6445 169.42 99.1241 167.533C100.093 166.258 101.063 163.81 104.889 165.493Z" fill="white"/>
<path d="M6.67727 142.336C3.97325 143.408 1.2182 140.296 0.60597 139.072C-0.0572795 137.695 -0.465435 134.992 0.963103 133.768C2.64674 132.39 5.14668 133.869 6.01401 134.788C7.69764 136.522 9.33025 139.174 6.62624 142.336H6.67727Z" fill="white"/>
<path d="M69.0737 131.319C66.5228 129.84 65.3493 126.729 65.2473 124.689C65.1963 122.342 66.7779 121.73 68.6656 121.73C69.9921 121.73 72.1349 123.107 72.441 123.413C76.1654 127.392 73.1042 132.849 69.0737 131.319Z" fill="white"/>
<path d="M145.092 163.861C141.47 165.595 137.542 162.739 138.358 159.984C138.715 158.811 140.807 157.383 142.031 157.485C146.164 157.842 147.235 161.769 145.092 163.81V163.861Z" fill="white"/>
<path d="M92.1344 150.905C92.2365 153.149 90.0937 154.884 86.6754 154.221C85.604 154.221 83.8183 152.282 83.6142 151.058C83.2571 148.865 84.9407 146.06 87.3386 145.907C90.5528 145.703 92.1854 146.876 92.1344 150.905Z" fill="white"/>
<path d="M97.6449 84.088C97.9511 87.7094 95.6552 89.1376 91.5737 88.6276C89.89 88.4236 89.0737 87.5054 88.5635 85.8732C88.2574 84.8531 88.5635 83.9351 89.0737 83.068C89.89 81.7419 92.1859 81.1808 93.6655 81.0278C95.5022 80.8748 97.2878 81.2828 97.696 84.0371L97.6449 84.088Z" fill="white"/>
<path d="M52.0846 193.189C48.7173 192.22 48.6663 189.465 48.7684 188.598C49.1255 186.15 50.503 184.671 52.3907 185.079C53.6662 185.589 54.4315 187.323 54.6355 188.343C55.0437 190.23 55.4008 193.24 52.0846 193.189Z" fill="white"/>
<path d="M30.2992 180.692C26.6258 180.794 24.6871 177.836 26.932 174.929C28.8197 172.48 32.6971 171.818 33.8706 176C34.0236 179.621 32.1359 180.641 30.3503 180.692H30.2992Z" fill="white"/>
<path d="M83.9714 187.935C83.5123 190.333 80.6042 190.332 79.7879 190.587C78.0022 191.149 75.4002 190.843 74.6349 188.037C74.4308 185.334 78.2063 185.13 79.0736 185.181C80.8082 185.283 83.5633 185.181 83.9714 187.935Z" fill="white"/>
<path d="M69.5843 197.32C67.6966 198.85 65.4518 196.963 64.6865 196.657C62.9518 195.943 61.1662 194.005 62.2886 191.353C63.8192 189.108 66.8803 191.455 67.5436 192.067C68.8191 193.291 71.0129 194.974 69.5843 197.32Z" fill="white"/>
<path d="M86.2679 176.51C86.1148 172.022 90.1963 172.328 92.5942 174.725C93.1555 175.286 93.1555 177.377 92.5942 177.938C90.2474 180.387 87.1862 179.672 86.2679 176.51Z" fill="white"/>
<path d="M115.399 204.563C115.858 206.858 112.848 209.256 110.195 207.215C109.379 206.603 108.92 204.002 109.43 203.339C111.318 201.095 114.43 201.146 115.348 204.512L115.399 204.563Z" fill="white"/>
<path d="M119.073 191.506C117.542 195.178 111.675 195.892 110.297 190.74C110.144 190.23 110.348 188.649 110.909 188.241C113.971 186.201 119.481 186.15 119.073 191.455V191.506Z" fill="white"/>
<path d="M143.358 181.152C142.592 183.447 139.888 184.365 138.307 183.753C137.133 183.294 135.399 182.121 135.042 180.285C134.991 178.703 135.705 177.479 138.052 176.816C138.613 176.663 144.735 176.816 143.358 181.152Z" fill="white"/>
<path d="M155.908 167.278C154.429 164.116 157.592 161.718 159.684 163.402C160.347 163.912 161.418 166.003 161.367 166.717C161.214 171.001 157.133 170.032 155.908 167.278Z" fill="white"/>
<path d="M155.603 194.158C151.981 194.617 151.113 192.883 151.011 190.894C150.96 189.261 152.185 187.68 154.021 187.425C155.807 187.17 157.236 188.751 157.644 190.129C158.154 191.914 157.797 193.24 155.552 194.158H155.603Z" fill="white"/>
<path d="M93.1036 203.237C90.8587 202.727 90.3996 200.993 90.8077 199.309C90.9608 198.646 91.2159 196.249 93.0526 197.065C95.4505 197.932 95.3995 199.412 95.5015 200.177C96.0117 203.543 94.277 203.237 93.0526 203.186L93.1036 203.237Z" fill="white"/>
<path d="M101.267 215.988C100.552 215.988 99.3788 215.427 99.0217 213.948C98.6646 212.52 98.9196 211.398 100.45 211.092C102.134 211.347 102.593 212.163 103.001 212.826C103.613 213.744 103.154 215.937 101.267 215.988Z" fill="white"/>
<path d="M99.7627 193.131C86.3907 188.408 71.4572 187.087 58.0051 191.61C44.553 196.093 32.8625 206.899 29.2592 220.628C26.6169 230.674 28.3784 241.521 32.2619 251.167C41.4702 274.102 67.6938 292.354 90.7946 283.548C97.7209 280.906 103.726 276.103 108.41 270.34C127.267 247.325 121.903 208.621 97.4807 191.61" fill="#F0805F"/>
<path d="M142.081 219.227L156.333 235.838L135.074 230.675L135.274 252.568L122.303 234.917L108.41 251.848L109.812 229.994L88.2722 234.037L103.406 218.187L84.3086 207.42L106.088 205.018L98.3612 184.525L116.618 196.653L123.864 176L130.03 197.013L148.887 185.886L140.119 205.939L161.698 209.501L142.081 219.227Z" fill="#A2C9C3"/>
</svg>
