<svg width="274" height="640" viewBox="0 0 274 640" fill="none" xmlns="http://www.w3.org/2000/svg">
<path d="M60.9567 621.689C29.5374 615.526 6.0286 585.786 1.31199 554.115C-3.40463 522.444 8.14551 489.994 26.8263 463.966C50.0008 431.664 84.3913 406.491 98.3183 369.214C112.654 330.897 102.144 287.605 85.0597 250.439C67.9759 213.236 44.5414 178.929 31.3572 140.204C15.5361 93.6072 21.1441 31.9363 64.5963 8.76798C97.6869 -8.86818 141.028 4.38678 166.765 31.6764C192.502 58.966 203.569 96.9859 208.36 134.189C213.151 171.392 212.594 209.226 219.242 246.132C230.718 309.771 263.251 368.508 271.607 432.667C279.592 494.041 262.36 560.947 216.568 602.605C170.776 644.264 94.6415 653.323 46.3612 614.523" fill="#A2C9C3"/>
</svg>
