<svg width="16" height="33" viewBox="0 0 16 33" fill="none" xmlns="http://www.w3.org/2000/svg">
<path fill-rule="evenodd" clip-rule="evenodd" d="M3.86459 16.4417V31.9204C3.86459 32.14 4.04125 32.3258 4.26838 32.3258H9.99721C10.2159 32.3258 10.401 32.1485 10.401 31.9204V16.1883H14.5567C14.767 16.1883 14.9353 16.0279 14.9605 15.8168L15.3559 11.0794C15.3727 10.8429 15.1876 10.6403 14.9521 10.6403H10.401V7.27937C10.401 6.49403 11.0403 5.85224 11.8227 5.85224H15.0194C15.2381 5.85224 15.4232 5.67491 15.4232 5.44691V0.709535C15.4232 0.489978 15.2465 0.304199 15.0194 0.304199H9.61024C6.43878 0.304199 3.86459 2.88822 3.86459 6.0718V10.6403H1.00438C0.785659 10.6403 0.600586 10.8176 0.600586 11.0456V15.783C0.600586 16.0025 0.777247 16.1883 1.00438 16.1883H3.86459V16.4417V16.4417Z" fill="#FFFFFF"/>
</svg>
