<svg width="32" height="32" viewBox="0 0 32 32" fill="none" xmlns="http://www.w3.org/2000/svg">
<path d="M0.651115 10.7125H7.24145V31.9523H0.651115V10.7125V10.7125ZM3.94168 0.157227C6.04655 0.157227 7.75617 1.87341 7.75617 3.98631C7.75617 6.09921 6.04655 7.81536 3.94168 7.81536C1.83682 7.81536 0.127197 6.09921 0.127197 3.98631C0.127197 1.87341 1.83682 0.157227 3.94168 0.157227ZM11.3593 31.9615H17.9312V21.4523C17.9312 18.6843 18.4551 15.9994 21.8744 15.9994C25.2936 15.9994 25.2936 19.1641 25.2936 21.6369V31.9615H31.8656V20.3082C31.8656 14.5877 30.6339 10.1866 23.9792 10.1866C20.7714 10.1866 18.6298 11.9489 17.7474 13.6189H17.6646V10.7125H11.3501V31.9523L11.3593 31.9615Z" fill="white"/>
</svg>
