<svg width="494" height="388" viewBox="0 0 494 388" fill="none" xmlns="http://www.w3.org/2000/svg">
<g clip-path="url(#clip0_6_313)">
<path d="M73.1868 364.645L30.9944 387.975L20.9073 369.711C18.8188 365.934 17.6413 362.335 17.3524 358.935C17.0636 355.536 17.6635 352.448 19.1299 349.693C20.5963 346.938 22.9292 344.694 26.1064 342.938C29.2392 341.205 32.3719 340.45 35.4825 340.672C38.593 340.894 41.5258 342.027 44.2587 344.094C46.9915 346.138 49.4133 349.071 51.5018 352.848L58.5895 365.69L51.7907 363.779L67.8322 354.914L73.2313 364.69L73.1868 364.645ZM52.8349 363.135L50.5909 370.045L43.7921 357.736C42.1257 354.714 40.2372 352.825 38.1265 352.048C36.0157 351.27 33.8161 351.515 31.5276 352.781C29.1947 354.07 27.795 355.825 27.3284 358.002C26.8618 360.202 27.4617 362.801 29.1281 365.823L35.9269 378.132L28.8837 376.354L52.8127 363.135H52.8349Z" fill="white"/>
<path d="M47.0582 306.434C48.1913 310.211 48.4135 313.81 47.7025 317.21C46.9915 320.609 45.5251 323.564 43.2811 326.075C41.037 328.585 38.1487 330.385 34.6382 331.429C31.0833 332.496 27.6617 332.585 24.4178 331.718C21.1739 330.852 18.3078 329.185 15.886 326.719C13.442 324.253 11.6645 321.142 10.5314 317.365C9.4205 313.632 9.19832 310.055 9.86486 306.634C10.5536 303.212 11.9978 300.257 14.2196 297.791C16.4415 295.302 19.3743 293.525 22.9736 292.436C26.4841 291.392 29.8835 291.281 33.1273 292.125C36.3712 292.97 39.2374 294.636 41.7036 297.102C44.1698 299.568 45.9695 302.679 47.0804 306.412L47.0582 306.434ZM38.6152 308.967C38.1042 307.256 37.2377 305.834 36.0379 304.701C34.8381 303.568 33.394 302.834 31.6832 302.479C29.9724 302.123 28.106 302.257 26.0842 302.857C24.0179 303.479 22.3737 304.39 21.1739 305.634C19.9519 306.856 19.1521 308.278 18.7744 309.878C18.3967 311.477 18.4633 313.144 18.9743 314.855C19.4854 316.565 20.3519 317.987 21.5516 319.12C22.7514 320.254 24.1956 321.009 25.8842 321.387C27.5728 321.764 29.4613 321.653 31.5276 321.031C33.5495 320.431 35.1714 319.498 36.4156 318.232C37.6599 316.965 38.4597 315.543 38.8374 313.944C39.2151 312.344 39.1485 310.677 38.6375 308.967H38.6152Z" fill="white"/>
<path d="M52.4573 263.864C52.7239 267.352 52.5683 270.729 51.9907 274.017C51.3908 277.306 50.3465 280.105 48.8135 282.394L40.7927 278.75C41.948 277.084 42.8145 275.04 43.37 272.573C43.9255 270.107 44.1254 267.708 43.9477 265.375C43.6588 261.575 42.5924 258.887 40.7483 257.309C38.9264 255.732 36.3268 255.065 32.9941 255.332L27.4395 255.776L18.1079 255.821L8.77623 256.687L0.822103 257.309L0.0222473 247.156L30.7945 244.734C37.6599 244.201 42.859 245.578 46.3917 248.889C49.9244 252.199 51.9462 257.198 52.4795 263.886L52.4573 263.864ZM36.9267 266.752C37.1933 270.174 36.7045 273.351 35.4381 276.239C34.1717 279.128 32.2609 281.505 29.7058 283.394C27.1507 285.282 24.1068 286.349 20.5297 286.637C16.9081 286.926 13.7087 286.326 10.887 284.882C8.08746 283.416 5.84342 281.372 4.15484 278.706C2.46625 276.039 1.48865 272.995 1.22203 269.574C0.977631 266.463 1.39978 263.664 2.46625 261.175C3.53273 258.687 5.3324 256.687 7.86528 255.154C10.3982 253.621 13.7087 252.688 17.8413 252.355C21.9072 252.044 25.3288 252.444 28.0616 253.555C30.7945 254.665 32.9052 256.376 34.3716 258.642C35.838 260.931 36.7045 263.619 36.9489 266.73L36.9267 266.752ZM27.9728 265.308C27.8172 263.442 27.3062 261.797 26.4397 260.375C25.5732 258.976 24.4179 257.909 22.9737 257.198C21.5295 256.487 19.9298 256.198 18.1301 256.332C16.3082 256.465 14.7307 257.021 13.4643 257.931C12.1756 258.865 11.2202 260.087 10.5759 261.62C9.93158 263.153 9.68717 264.841 9.8427 266.73C9.99823 268.618 10.5092 270.24 11.3758 271.662C12.2423 273.062 13.3976 274.151 14.7974 274.884C16.2193 275.617 17.8413 275.928 19.6632 275.773C21.4406 275.639 22.9959 275.084 24.3068 274.129C25.6176 273.173 26.5952 271.929 27.2396 270.418C27.8839 268.885 28.1283 267.196 27.9728 265.308Z" fill="white"/>
<path d="M40.3261 214.006L33.1496 213.073L31.4832 213.561L18.6411 211.895C16.3749 211.606 14.5085 212.073 13.0421 213.295C11.5757 214.517 10.6648 216.561 10.3093 219.427C10.0649 221.382 10.1093 223.36 10.487 225.315C10.8647 227.292 11.4868 229.003 12.3534 230.447L4.42145 233.313C3.2661 231.136 2.48847 228.581 2.08854 225.648C1.68861 222.715 1.66639 219.805 2.0441 216.894C2.7773 211.295 4.64363 207.118 7.68753 204.363C10.7314 201.608 15.0418 200.586 20.6408 201.319L41.6148 204.03L40.3261 214.006ZM39.4152 225.27C39.0374 228.137 38.2376 230.536 36.9934 232.447C35.7491 234.38 34.2161 235.78 32.3942 236.646C30.5723 237.513 28.6171 237.824 26.5064 237.557C24.329 237.268 22.4849 236.491 20.974 235.202C19.4632 233.913 18.3967 232.047 17.7746 229.625C17.1525 227.181 17.0636 224.093 17.5524 220.36L18.8189 210.584L25.04 211.384L23.9291 219.982C23.5958 222.493 23.7957 224.248 24.4845 225.293C25.1733 226.337 26.1509 226.937 27.3729 227.092C28.7282 227.27 29.8835 226.87 30.8167 225.915C31.7499 224.937 32.3498 223.537 32.5719 221.671C32.7941 219.894 32.5719 218.249 31.9276 216.739C31.2611 215.228 30.1502 214.028 28.5949 213.184L33.7273 212.184C35.9935 213.273 37.6155 214.917 38.5709 217.116C39.5262 219.316 39.8151 222.049 39.3929 225.27H39.4152Z" fill="white"/>
<path d="M52.2572 170.547L45.103 168.036L34.7715 164.193L24.2178 161.215L3.86594 154.083L7.42085 143.952L55.6566 160.86L52.2572 170.547ZM48.9467 181.656C47.7914 184.945 45.9917 187.655 43.5699 189.766C41.1481 191.899 38.3264 193.254 35.1048 193.832C31.8831 194.409 28.4393 194.076 24.7955 192.81C21.1073 191.521 18.1967 189.633 16.0415 187.144C13.8864 184.656 12.5533 181.834 11.9978 178.679C11.4424 175.524 11.7534 172.302 12.9088 168.992C13.9308 166.037 15.4861 163.704 17.5746 161.949C19.6409 160.193 22.2182 159.171 25.2843 158.883C28.3504 158.594 31.9498 159.171 36.0601 160.616C40.1261 162.038 43.3033 163.815 45.5473 165.904C47.7914 168.014 49.1911 170.392 49.7243 173.036C50.2576 175.68 49.991 178.546 48.9023 181.612L48.9467 181.656ZM41.237 176.99C41.8147 175.346 41.948 173.702 41.6369 172.102C41.3259 170.48 40.5927 169.014 39.4151 167.703C38.2375 166.392 36.66 165.392 34.6604 164.682C32.6163 163.971 30.75 163.771 29.0392 164.059C27.3284 164.348 25.8398 165.037 24.5955 166.126C23.3513 167.192 22.4404 168.547 21.8627 170.192C21.2628 171.88 21.1295 173.524 21.4406 175.146C21.7516 176.768 22.4848 178.212 23.6179 179.523C24.7733 180.834 26.3508 181.834 28.3949 182.545C30.3945 183.234 32.2608 183.456 33.9939 183.145C35.7269 182.856 37.2155 182.167 38.4597 181.101C39.7039 180.034 40.6371 178.657 41.2148 176.968L41.237 176.99Z" fill="white"/>
<path d="M70.8761 134.553L64.655 130.843L62.9442 130.621L51.8129 124C49.8355 122.822 47.9469 122.511 46.125 123.044C44.3032 123.6 42.659 125.111 41.1704 127.599C40.1706 129.288 39.4374 131.132 38.993 133.065C38.5486 135.02 38.4375 136.842 38.6597 138.53L30.239 137.997C30.0391 135.531 30.3501 132.887 31.1277 130.043C31.9054 127.199 33.0607 124.511 34.5494 121.978C37.4377 117.134 40.8149 114.046 44.7031 112.713C48.5913 111.402 52.946 112.18 57.8118 115.068L75.9863 125.888L70.8539 134.531L70.8761 134.553ZM65.566 144.552C64.0774 147.04 62.3888 148.906 60.478 150.195C58.5673 151.461 56.612 152.15 54.5902 152.217C52.5683 152.306 50.6576 151.795 48.8357 150.706C46.9471 149.573 45.5696 148.129 44.7031 146.351C43.8366 144.574 43.5922 142.441 43.9921 139.952C44.392 137.464 45.5474 134.598 47.4581 131.354L52.5017 122.889L57.8785 126.088L53.4348 133.554C52.1462 135.731 51.6129 137.42 51.8351 138.664C52.0573 139.886 52.7016 140.819 53.7681 141.463C54.9457 142.174 56.1677 142.263 57.4119 141.752C58.6561 141.241 59.767 140.175 60.7224 138.553C61.6334 137.02 62.1 135.42 62.1 133.753C62.1 132.087 61.5445 130.576 60.4558 129.177L65.566 130.287C67.2101 132.176 68.0544 134.331 68.0544 136.731C68.0544 139.153 67.2324 141.752 65.566 144.552Z" fill="white"/>
<path d="M52.4128 88.5617C51.1686 90.0948 49.7022 90.9613 48.0136 91.2057C46.3473 91.4279 44.8586 91.0057 43.5255 89.9393C42.1924 88.8728 41.5037 87.473 41.3926 85.7844C41.2815 84.0959 41.8592 82.4961 43.1256 80.9631C44.3921 79.43 45.814 78.5413 47.4359 78.2525C49.0579 77.9859 50.5243 78.3858 51.8352 79.4522C53.2127 80.5854 53.9681 81.9851 54.1236 83.6737C54.2792 85.3623 53.6793 86.9842 52.4128 88.5395V88.5617ZM90.3838 130.799C89.3395 132.087 88.2064 133.198 86.9622 134.154C85.7402 135.109 84.5182 135.775 83.3184 136.153L79.1191 128.977C80.5855 128.577 81.8742 127.688 83.0073 126.288C83.8516 125.266 84.1849 124.155 84.0071 122.956C83.8294 121.756 83.0295 120.6 81.652 119.467L52.9905 95.9826L59.7893 87.673L88.4064 111.113C91.7169 113.824 93.561 116.912 93.9831 120.4C94.3831 123.889 93.1833 127.355 90.3616 130.799H90.3838Z" fill="white"/>
<path d="M105.848 44.9031C108.158 43.0812 110.558 41.9258 113.069 41.437C115.579 40.9482 118.09 41.2371 120.623 42.3258C123.156 43.3922 125.577 45.4141 127.91 48.3691L141.086 65.0106L132.665 71.676L120.512 56.3455C118.668 54.0125 116.801 52.6572 114.957 52.324C113.113 51.9685 111.291 52.5017 109.536 53.9015C108.314 54.8791 107.425 56.0122 106.914 57.3453C106.381 58.6784 106.292 60.1003 106.625 61.6556C106.959 63.2109 107.825 64.8328 109.203 66.5658L120.756 81.141L112.335 87.8065L100.204 72.4759C98.3601 70.143 96.4938 68.7877 94.6719 68.4322C92.8278 68.0767 91.0281 68.5877 89.2729 69.9874C88.0509 70.965 87.1621 72.0982 86.6511 73.4313C86.1179 74.7644 86.029 76.1863 86.3623 77.7416C86.6956 79.2969 87.5621 80.9188 88.9396 82.6518L100.471 97.227L92.0502 103.892L69.0543 74.831L77.0973 68.4544L83.385 76.3863L80.0301 75.2532C79.4746 72.4759 79.719 69.8319 80.7633 67.3435C81.8075 64.855 83.5184 62.6554 85.8957 60.7891C88.5619 58.6784 91.428 57.5008 94.4942 57.2786C97.5603 57.0564 100.515 58.0563 103.359 60.3225L99.7599 61.8556C98.9378 58.8117 99.0711 55.79 100.16 52.7683C101.249 49.7466 103.181 47.1249 105.959 44.9253L105.848 44.9031Z" fill="white"/>
<path d="M158.149 60.4114L127.555 31.7721L137.708 27.3284L161.882 50.5687L158.149 60.4114ZM157.349 74.3644C155.594 75.1421 153.728 75.6309 151.75 75.8308C149.795 76.0308 148.04 75.8975 146.529 75.4087L147.062 66.8324C148.107 67.1657 149.218 67.3212 150.373 67.2546C151.528 67.1879 152.595 66.9658 153.55 66.5436C154.928 65.9437 155.905 65.1216 156.438 64.1218C156.972 63.122 157.238 61.7 157.261 59.9004L157.194 54.9679L157.483 53.5682L156.838 18.9522L166.303 14.7974L166.748 57.5452C166.859 60.7669 166.548 63.4553 165.815 65.6327C165.081 67.8101 164.015 69.5875 162.593 70.965C161.171 72.3426 159.416 73.4757 157.372 74.3866L157.349 74.3644Z" fill="white"/>
<path d="M218.894 41.9702C214.984 42.4813 211.406 42.1035 208.163 40.8593C204.919 39.6151 202.252 37.6821 200.12 35.0604C197.987 32.4386 196.698 29.3059 196.231 25.6621C195.765 21.9738 196.231 18.5967 197.609 15.5306C198.986 12.4644 201.097 9.90934 203.919 7.9097C206.741 5.91006 210.096 4.64362 214.028 4.13261C217.894 3.6438 221.471 3.9993 224.715 5.2213C227.981 6.4433 230.647 8.35407 232.736 10.9536C234.824 13.5531 236.113 16.7303 236.602 20.463C237.068 24.1068 236.602 27.4617 235.269 30.5279C233.913 33.594 231.803 36.1491 228.959 38.1709C226.115 40.1928 222.76 41.4814 218.894 41.9702ZM217.761 33.2163C219.538 32.9941 221.071 32.372 222.382 31.3721C223.693 30.3723 224.648 29.0615 225.271 27.4173C225.893 25.7732 226.07 23.929 225.804 21.8183C225.537 19.6854 224.893 17.9079 223.871 16.5082C222.849 15.1084 221.582 14.0864 220.072 13.4643C218.561 12.8199 216.917 12.62 215.139 12.8421C213.362 13.0643 211.829 13.6864 210.518 14.6863C209.207 15.6861 208.229 16.997 207.585 18.5967C206.941 20.1964 206.741 22.0849 207.029 24.2179C207.296 26.3064 207.963 28.0616 208.985 29.4836C210.029 30.9056 211.295 31.9276 212.828 32.5719C214.339 33.2163 215.983 33.4162 217.761 33.194V33.2163Z" fill="white"/>
<path d="M279.639 43.1476C275.75 42.4811 272.418 41.1036 269.685 38.9484C266.952 36.8155 264.952 34.1715 263.686 31.0609C262.419 27.9282 262.086 24.5732 262.708 20.9516C263.33 17.2856 264.752 14.1751 266.974 11.6422C269.196 9.10932 271.951 7.28743 275.217 6.17652C278.505 5.08783 282.083 4.86564 285.971 5.50997C289.815 6.1543 293.125 7.55405 295.88 9.66478C298.635 11.7755 300.657 14.3973 301.901 17.4856C303.145 20.5739 303.457 23.9955 302.834 27.706C302.212 31.3276 300.813 34.4159 298.613 36.9488C296.413 39.4816 293.658 41.3257 290.348 42.4367C287.037 43.5476 283.46 43.792 279.616 43.1476H279.639ZM281.105 34.4603C282.86 34.7492 284.527 34.6158 286.06 34.0382C287.593 33.4605 288.904 32.4829 289.97 31.1054C291.037 29.7278 291.748 27.9948 292.103 25.9063C292.458 23.7734 292.37 21.907 291.792 20.2629C291.236 18.6409 290.303 17.2856 289.037 16.2414C287.77 15.1971 286.26 14.5084 284.482 14.2195C282.727 13.9307 281.061 14.064 279.527 14.6417C277.994 15.2193 276.661 16.1969 275.573 17.53C274.484 18.8853 273.751 20.6184 273.395 22.7513C273.04 24.8398 273.151 26.7062 273.751 28.3725C274.328 30.0389 275.262 31.3942 276.528 32.4385C277.794 33.4827 279.305 34.1715 281.083 34.4603H281.105Z" fill="white"/>
<path d="M304.434 47.5469L323.164 -0.00012207L333.162 3.9325L314.432 51.4795L304.434 47.5469ZM315.477 43.7476L320.52 31.6831L342.605 22.7736L354.536 27.4616L332.896 37.0821L326.03 39.2595L315.454 43.7476H315.477ZM330.118 57.6562L324.164 38.5707L333.496 33.2828L342.227 62.4109L330.118 57.634V57.6562Z" fill="white"/>
<path d="M343.983 64.6106L362.935 32.7719L371.755 38.0154L366.401 47.0137L366.712 43.6588C369 41.9702 371.533 41.1703 374.31 41.2592C377.088 41.3481 379.976 42.2813 382.976 44.0587L377.91 52.5683C377.532 52.3017 377.199 52.0573 376.888 51.8351C376.577 51.6351 376.266 51.4129 375.91 51.213C373.377 49.7021 370.911 49.2133 368.489 49.7244C366.067 50.2354 363.957 52.0128 362.157 55.0567L353.203 70.0985L343.96 64.6106H343.983Z" fill="white"/>
<path d="M381.043 91.1393C377.821 88.3842 375.555 85.3625 374.199 82.0298C372.844 78.6971 372.444 75.3865 372.977 72.0538C373.511 68.7433 374.977 65.6772 377.377 62.8999C379.798 60.0782 382.598 58.123 385.753 57.0787C388.93 56.0122 392.174 55.8345 395.507 56.5455C398.839 57.2565 401.928 58.8117 404.794 61.278C407.549 63.6331 409.526 66.3437 410.748 69.4098C411.97 72.476 412.281 75.6532 411.704 78.9415C411.126 82.2298 409.549 85.3847 406.949 88.4286C406.682 88.7397 406.349 89.0952 405.971 89.4507C405.594 89.8062 405.238 90.1617 404.905 90.4949L382.042 70.9429L386.108 66.1882L404.683 82.0742L400.328 80.8078C401.594 79.3414 402.372 77.8083 402.705 76.2308C403.039 74.6533 402.95 73.0981 402.416 71.5872C401.883 70.0764 400.928 68.7211 399.528 67.5435C398.128 66.3437 396.64 65.6105 395.062 65.2995C393.485 64.9884 391.907 65.1439 390.374 65.7438C388.841 66.3437 387.441 67.388 386.153 68.8766L385.086 70.143C383.775 71.6761 382.953 73.3202 382.642 75.0755C382.331 76.8307 382.531 78.5415 383.242 80.2079C383.953 81.8743 385.153 83.4295 386.841 84.8737C388.33 86.1624 389.841 87.0511 391.374 87.5621C392.885 88.0731 394.507 88.2953 396.24 88.1842L396.551 96.6049C394.018 96.9604 391.418 96.6938 388.797 95.8273C386.175 94.9386 383.575 93.4055 381.043 91.2281V91.1393Z" fill="white"/>
<path d="M405.571 116.468C403.572 114.001 401.972 111.402 400.728 108.647C399.484 105.892 398.773 103.514 398.595 101.47L406.838 99.4041C407.082 101.382 407.682 103.492 408.615 105.714C409.549 107.936 410.726 109.913 412.148 111.669C413.703 113.602 415.036 114.779 416.147 115.201C417.258 115.623 418.236 115.512 419.058 114.846C419.725 114.29 419.991 113.579 419.836 112.668C419.658 111.78 419.258 110.735 418.591 109.558C417.925 108.38 417.192 107.092 416.37 105.714C415.547 104.337 414.792 102.892 414.081 101.404C413.37 99.9151 412.904 98.4043 412.681 96.8712C412.459 95.3382 412.592 93.8496 413.126 92.3832C413.659 90.9168 414.748 89.517 416.392 88.2061C418.214 86.7397 420.258 85.9621 422.502 85.8954C424.746 85.8288 427.079 86.4731 429.501 87.8284C431.922 89.1837 434.255 91.25 436.499 94.0273C438.077 95.9825 439.477 98.1599 440.699 100.537C441.921 102.915 442.654 105.114 442.943 107.136L434.744 109.158C434.433 107.114 433.878 105.248 433.033 103.581C432.189 101.915 431.234 100.426 430.167 99.1153C428.678 97.2489 427.323 96.0936 426.123 95.6492C424.924 95.1827 423.946 95.2937 423.146 95.9158C422.435 96.4935 422.146 97.2489 422.302 98.1599C422.457 99.0708 422.835 100.137 423.457 101.337C424.079 102.537 424.813 103.826 425.635 105.203C426.457 106.581 427.234 108.003 427.923 109.513C428.612 111.024 429.078 112.535 429.301 114.024C429.523 115.512 429.389 117.001 428.901 118.467C428.412 119.934 427.323 121.334 425.679 122.644C423.902 124.089 421.88 124.822 419.636 124.866C417.392 124.911 415.059 124.222 412.659 122.844C410.237 121.467 407.86 119.312 405.527 116.423L405.571 116.468Z" fill="white"/>
<path d="M419.347 134.354L450.985 115.068L456.584 124.244L424.946 143.53L419.347 134.354ZM458.184 116.957C457.162 115.268 456.807 113.602 457.14 111.935C457.473 110.269 458.362 109.003 459.828 108.136C461.295 107.27 462.828 107.047 464.45 107.492C466.072 107.958 467.405 109.025 468.427 110.713C469.449 112.402 469.827 114.046 469.56 115.668C469.293 117.29 468.427 118.534 466.96 119.423C465.427 120.356 463.85 120.601 462.228 120.178C460.606 119.756 459.251 118.668 458.206 116.935L458.184 116.957Z" fill="white"/>
<path d="M436.166 167.725C434.522 163.837 433.833 160.104 434.1 156.527C434.366 152.95 435.499 149.795 437.455 147.062C439.41 144.329 442.076 142.263 445.475 140.819C448.897 139.375 452.274 138.864 455.585 139.33C458.895 139.797 461.895 141.086 464.561 143.196C467.227 145.307 469.293 148.107 470.76 151.573C472.182 154.905 472.737 158.216 472.47 161.504C472.204 164.792 471.071 167.77 469.093 170.458C467.116 173.146 464.294 175.257 460.606 176.835C460.228 176.99 459.784 177.168 459.273 177.324C458.762 177.479 458.295 177.635 457.851 177.768L446.097 150.062L451.874 147.618L461.406 170.125L458.073 167.059C459.851 166.303 461.25 165.303 462.25 164.015C463.25 162.748 463.85 161.304 464.05 159.727C464.25 158.149 464.005 156.505 463.272 154.816C462.561 153.128 461.561 151.795 460.273 150.817C458.984 149.84 457.518 149.284 455.896 149.129C454.252 148.973 452.541 149.284 450.719 150.062L449.208 150.706C447.342 151.506 445.875 152.595 444.809 154.017C443.742 155.439 443.165 157.06 443.054 158.882C442.942 160.704 443.32 162.615 444.187 164.637C444.964 166.459 445.92 167.925 447.031 169.081C448.142 170.236 449.519 171.125 451.097 171.813L447.631 179.501C445.187 178.679 442.987 177.301 441.032 175.346C439.076 173.391 437.455 170.858 436.144 167.77L436.166 167.725Z" fill="white"/>
<path d="M445.209 194.587C444.72 192.721 444.92 191.032 445.809 189.521C446.698 188.011 447.964 187.033 449.608 186.611C451.297 186.166 452.852 186.389 454.318 187.3C455.785 188.211 456.74 189.588 457.229 191.454C457.74 193.365 457.562 195.054 456.74 196.542C455.918 198.009 454.652 198.986 452.985 199.408C451.341 199.853 449.764 199.631 448.253 198.764C446.742 197.898 445.742 196.52 445.231 194.609L445.209 194.587ZM460.851 186.078L490.756 176.013L494 188.41L463.006 194.343L460.828 186.078H460.851Z" fill="white"/>
</g>
<defs>
<clipPath id="clip0_6_313">
<rect width="494" height="387.952" fill="white"/>
</clipPath>
</defs>
</svg>
