<svg width="252" height="141" viewBox="0 0 252 141" fill="none" xmlns="http://www.w3.org/2000/svg">
<path d="M23.0878 0.927246C24.8137 2.71054 25.769 5.09845 25.7481 7.57724C25.7273 10.056 24.7319 12.4276 22.9763 14.1817L22.6751 14.4488L9.84666 27.3027L9.57893 27.5475C9.07763 28.0548 8.63257 28.6144 8.25147 29.2168C7.11096 30.9978 6.60114 33.1086 6.80332 35.2124C7.0055 37.3162 7.90805 39.2919 9.36699 40.8242L16.272 47.6685C18.0316 49.4518 19.0122 51.8573 18.9996 54.3596C18.9871 56.8619 17.9824 59.2575 16.2051 61.0231L15.9039 61.2902L3.07548 74.0662C2.99739 74.1552 2.897 74.222 2.80776 74.311C2.31343 74.8175 1.87237 75.3731 1.49145 75.9692C0.350937 77.7502 -0.158888 79.861 0.0432949 81.9648C0.245478 84.0686 1.14802 86.0442 2.60696 87.5766L9.50085 94.4097L16.0935 100.987C14.3647 99.2065 13.4055 96.8202 13.4221 94.3415C13.4388 91.8627 14.4301 89.4895 16.1828 87.7324L16.4617 87.4876L29.2789 74.7005C29.3845 74.6174 29.4851 74.5283 29.5801 74.4334C31.3489 72.6854 32.3615 70.3161 32.4011 67.8326C32.4407 65.3491 31.5042 62.9488 29.7921 61.1455L29.6248 61.0231L22.9317 54.3458H22.8759C21.1178 52.5611 20.1392 50.1547 20.1539 47.6524C20.1685 45.1502 21.1752 42.7553 22.954 40.9912L23.2328 40.7463L36.0724 27.9148L36.2844 27.7256L36.4629 27.5475C38.1703 25.7953 39.1384 23.4561 39.1675 21.0126C39.1965 18.569 38.2843 16.2076 36.619 14.4154L36.4071 14.204L29.714 7.52666L23.099 0.927246H23.0878Z" fill="white"/>
<path d="M49.9052 27.6367C51.6247 29.4174 52.5779 31.7984 52.5612 34.271C52.5446 36.7435 51.5593 39.1115 49.816 40.8689L49.5371 41.1138L36.6529 54.0455L36.3852 54.2792C35.8838 54.7905 35.4388 55.3539 35.0577 55.9597C33.9874 57.6561 33.4841 59.6475 33.6205 61.6474C33.7568 63.6472 34.5256 65.5524 35.8163 67.0886L36.374 67.645L43.0671 74.3223C43.951 75.2028 44.6518 76.2488 45.1293 77.4003C45.6068 78.5517 45.8515 79.786 45.8495 81.0321C45.8474 82.2782 45.5985 83.5116 45.1172 84.6615C44.6359 85.8114 43.9316 86.8551 43.0448 87.7326L42.7771 87.9774L29.8817 100.82L29.614 101.065C29.1159 101.564 28.6744 102.116 28.2977 102.712C27.1563 104.495 26.646 106.607 26.8482 108.713C27.0504 110.819 27.9533 112.796 29.4132 114.331L36.3071 121.119L42.8998 127.797C41.1758 126.015 40.2206 123.63 40.2394 121.154C40.2582 118.678 41.2494 116.308 43.0002 114.553L43.279 114.297L56.1521 101.388L56.4533 101.121C58.2097 99.3646 59.2053 96.9912 59.2261 94.5106C59.247 92.03 58.2914 89.6402 56.5648 87.855L56.4533 87.7437L49.7602 81.0664H49.7044C48.8288 80.1846 48.1359 79.1393 47.6654 77.9903C47.1948 76.8412 46.9559 75.6109 46.9621 74.3697C46.9683 73.1285 47.2196 71.9006 47.7016 70.7563C48.1836 69.612 48.8869 68.5737 49.7714 67.7006L50.0614 67.4447L62.9233 54.6131L63.2245 54.3349C64.9854 52.5836 65.9844 50.211 66.0053 47.7305C66.0262 45.2499 65.0673 42.8609 63.336 41.0804L63.2245 40.9691L56.5314 34.2918L49.9052 27.6367Z" fill="white"/>
<path d="M88.9924 69.8151H102.646V84.2826H110.076V50.896H102.646V63.594H88.9924V50.9183H81.5742V84.3049H88.9924V69.8151ZM113.857 77.7166C113.857 82.7134 117.494 85.0282 122.168 85.0282C123.671 85.105 125.175 84.8773 126.588 84.359C128.001 83.8407 129.294 83.0424 130.389 82.0123C130.457 82.8109 130.618 83.5989 130.869 84.3605H137.673C137.06 83.37 136.815 81.1554 136.815 78.9407V66.2316C136.815 60.3778 130.958 59.2983 126.094 59.2983C120.606 59.2983 114.939 61.2347 114.605 67.4557H121.298C121.532 64.8182 123.138 63.7721 125.76 63.7721C128.125 63.7721 130.11 64.2506 130.11 67.1108C130.389 72.575 113.946 66.6433 113.857 77.7166ZM130.11 74.9344C130.11 76.4479 129.921 80.4988 124.678 80.4988C122.447 80.4988 120.561 79.8422 120.561 77.3938C120.561 74.9455 122.458 74.1887 124.533 73.8103C126.608 73.432 128.995 73.3874 130.11 72.397V74.9344ZM148.382 64.4843H148.282V59.9104H141.901V84.2826H148.594V73.3429C148.594 69.0138 150.245 65.5527 155.209 65.5527C156.018 65.5549 156.825 65.6332 157.619 65.7864V59.532C157.147 59.3797 156.654 59.3008 156.158 59.2983C154.492 59.3144 152.867 59.8132 151.481 60.734C150.095 61.6547 149.006 62.9577 148.349 64.4843H148.382ZM173.861 59.2983C172.42 59.2227 170.985 59.5326 169.704 60.1959C168.423 60.8591 167.344 61.8517 166.576 63.071H166.487V59.9104H160.095V92.9075H166.788V81.3112H166.889C167.71 82.4791 168.808 83.4265 170.084 84.0692C171.361 84.7118 172.777 85.0298 174.207 84.9949C181.391 84.9949 184.938 78.9074 184.938 72.4081C184.938 65.4748 181.491 59.2983 173.838 59.2983H173.861ZM172.433 79.9423C168.082 79.9423 166.565 76.1808 166.565 72.2189C166.565 68.257 167.982 64.3619 172.377 64.3619C176.772 64.3619 178.245 68.3238 178.245 72.2412C178.245 76.1585 176.817 79.9423 172.433 79.9423ZM200.321 79.9423C196.539 79.9423 194.509 78.0616 194.319 73.7769H211.967C212.48 66.2761 208.419 59.3094 200.109 59.3094C192.68 59.3094 187.626 64.8738 187.626 72.1744C187.626 79.7198 192.401 85.006 200.109 85.006C205.631 85.006 209.647 82.6021 211.543 76.804H205.631C205.207 78.2953 203.043 79.9423 200.343 79.9423H200.321ZM199.919 64.3619C203.177 64.3619 204.638 66.1537 205.251 69.548H194.342C194.348 68.8363 194.499 68.1333 194.787 67.482C195.074 66.8306 195.491 66.2444 196.013 65.7591C196.535 65.2739 197.151 64.8998 197.822 64.6596C198.494 64.4193 199.207 64.3181 199.919 64.3619ZM222.006 73.3429C222.006 69.0138 223.657 65.5527 228.621 65.5527C229.43 65.5549 230.237 65.6332 231.031 65.7864V59.532C230.559 59.3805 230.066 59.3017 229.57 59.2983C227.904 59.3144 226.279 59.8132 224.893 60.734C223.507 61.6547 222.419 62.9577 221.761 64.4843H221.661V59.9104H215.313V84.2826H222.006V73.3429ZM101.999 114.575H84.218V101.599H81.3622V131.48H84.218V117.013H101.999V131.48H104.877V101.599H101.999V114.575ZM117.918 128.297L110.778 109.89H107.967L116.613 131.402L115.687 133.873C114.805 135.876 114.259 137.212 111.916 137.212C111.308 137.207 110.702 137.136 110.109 137V139.226C110.768 139.392 111.449 139.459 112.128 139.426C115.475 139.426 116.278 138.38 117.828 134.741L127.188 109.89H124.544L117.918 128.297ZM145.482 113.607H145.393C144.781 112.305 143.81 111.203 142.593 110.432C141.375 109.662 139.963 109.253 138.521 109.256C132.263 109.256 128.738 114.197 128.738 120.14C128.738 126.339 131.594 131.269 138.521 131.269C139.98 131.288 141.411 130.875 142.634 130.083C143.857 129.29 144.817 128.154 145.393 126.817H145.482V129.744C145.482 135.064 143.418 137.901 138.521 137.901C135.621 137.901 132.732 136.789 132.185 133.595H129.541C129.876 138.157 134.193 140.127 138.465 140.127C145.471 140.127 148.07 136.232 148.07 129.744V109.89H145.482V113.607ZM138.521 129.01C133.613 129.01 131.382 124.781 131.382 120.429C131.382 116.078 133.479 111.526 138.521 111.526C143.563 111.526 145.482 116.256 145.482 120.429C145.482 124.602 143.084 129.01 138.521 129.01ZM153.213 105.828H155.845V101.599H153.213V105.828ZM153.213 131.424H155.845V109.89H153.213V131.424ZM169.611 109.167C162.728 109.167 159.839 114.909 159.839 120.596C159.839 126.75 162.728 132.025 169.611 132.025C175.11 132.025 177.921 129.176 179.048 124.235H176.404C175.568 127.574 173.47 129.8 169.611 129.8C164.58 129.8 162.483 125.159 162.483 121.308H179.137C179.338 115.243 176.538 109.167 169.611 109.167ZM162.483 119.094C162.94 115.154 165.249 111.393 169.611 111.393C173.972 111.393 176.36 115.11 176.493 119.094H162.483ZM192.311 109.167C190.857 109.13 189.424 109.524 188.193 110.298C186.963 111.073 185.989 112.193 185.395 113.518H185.306V109.89H182.662V131.48H185.306V118.893C185.429 114.664 187.872 111.493 192.099 111.493C196.327 111.493 197.599 114.331 197.599 118.014V131.491H200.243V117.591C200.243 112.439 198.391 109.256 192.311 109.256V109.167ZM205.285 131.514H207.929V109.89H205.274L205.285 131.514ZM205.285 105.917H207.929V101.688H205.274L205.285 105.917ZM222.151 129.978C217.12 129.978 214.555 125.337 214.555 120.774C214.555 116.211 217.12 111.571 222.151 111.571C225.632 111.571 227.562 113.529 228.276 116.757H230.931C230.295 111.782 226.814 109.345 222.163 109.345C215.57 109.345 211.922 114.575 211.922 120.774C211.922 126.973 215.57 132.204 222.163 132.204C227.026 132.204 230.384 129.065 231.087 123.835H228.443C228.355 125.458 227.659 126.99 226.495 128.127C225.33 129.264 223.78 129.924 222.151 129.978ZM244.975 119.728L241.45 118.938C239.609 118.47 236.988 117.591 236.988 115.288C236.988 112.483 239.754 111.571 242.108 111.571C245.12 111.571 247.686 113.028 247.764 116.3H250.407C250.196 111.604 246.849 109.345 242.487 109.345C238.661 109.345 234.344 111.025 234.344 115.421C234.344 119.06 236.943 120.318 240.39 121.197L243.737 121.943C246.124 122.533 248.478 123.367 248.478 125.882C248.478 128.898 245.075 129.978 242.565 129.978C239.04 129.978 236.397 128.141 236.185 124.58H233.541C234.009 129.9 237.367 132.204 242.465 132.204C246.492 132.204 251.144 130.401 251.144 125.715C251.144 121.943 247.998 120.151 244.975 119.728Z" fill="white"/>
</svg>
