<svg width="264" height="264" viewBox="0 0 264 264" fill="none" xmlns="http://www.w3.org/2000/svg">
<path d="M131.919 263.767C204.775 263.767 263.837 204.721 263.837 131.883C263.837 59.0461 204.775 0 131.919 0C59.062 0 0 59.0461 0 131.883C0 204.721 59.062 263.767 131.919 263.767Z" fill="#D0579B"/>
<path d="M51.4466 167.826C48.7241 167.106 46.5622 166.185 44.9207 165.104C43.2792 164.024 42.4385 162.903 42.4385 161.822C42.4385 160.862 42.959 159.581 44.0399 157.94C45.1209 156.299 46.0417 155.458 46.8424 155.458C47.0026 155.458 47.7232 155.858 49.0444 156.619C50.3656 157.379 51.8469 158.06 53.5285 158.66C55.21 159.261 57.0917 159.541 59.2136 159.541C65.5793 159.541 68.7422 156.979 68.7422 151.856C68.7422 149.574 67.9414 147.813 66.34 146.533C64.7386 145.252 62.0161 144.011 58.2127 142.77C53.0881 141.249 49.4048 139.208 47.1227 136.686C44.8406 134.165 43.7196 130.723 43.7196 126.32C43.7196 121.437 45.4412 117.474 48.8843 114.432C52.3274 111.39 56.8114 109.869 62.3764 109.869C66.1798 109.869 69.663 110.35 72.7858 111.35C75.9086 112.351 77.5101 113.552 77.5101 115.033C77.5101 116.113 77.0697 117.514 76.1488 119.195C75.228 120.876 74.3872 121.717 73.5865 121.717C73.3063 121.637 72.3054 121.197 70.6239 120.356C68.9423 119.515 66.7003 119.115 63.8177 119.115C61.2554 119.115 59.1735 119.636 57.5721 120.716C55.9707 121.797 55.1699 123.238 55.1699 125.159C55.1699 127.441 55.9707 129.242 57.5321 130.563C59.0935 131.883 61.5357 133.164 64.8186 134.325C68.7021 135.646 71.7048 137.007 73.8668 138.367C76.0287 139.768 77.5901 141.489 78.591 143.531C79.5919 145.572 80.0724 148.174 80.0724 151.296C80.0724 154.658 79.2316 157.7 77.5101 160.381C75.7885 163.103 73.4264 165.184 70.3836 166.705C67.3409 168.186 63.9378 168.947 60.1344 168.947C57.0516 168.947 54.169 168.586 51.4866 167.866L51.4466 167.826Z" fill="white"/>
<path d="M96.1665 161.182C91.8026 156.179 89.6006 148.934 89.6006 139.408C89.6006 129.882 91.8426 122.597 96.2866 117.474C100.731 112.351 107.096 109.789 115.344 109.789C123.591 109.789 129.917 112.311 134.241 117.394C138.565 122.477 140.767 129.802 140.767 139.368C140.767 148.934 138.605 156.139 134.321 161.142C129.997 166.145 123.671 168.667 115.344 168.667C107.016 168.667 100.53 166.145 96.1665 161.142V161.182ZM125.833 154.458C128.155 151.176 129.276 146.132 129.276 139.328C129.276 132.524 128.115 127.481 125.833 124.159C123.551 120.836 119.988 119.155 115.144 119.155C110.299 119.155 106.896 120.836 104.614 124.159C102.332 127.481 101.211 132.524 101.211 139.328C101.211 146.132 102.332 151.176 104.534 154.458C106.776 157.74 110.299 159.381 115.104 159.381C119.908 159.381 123.471 157.74 125.793 154.458H125.833Z" fill="white"/>
<path d="M157.341 165.425V119.956H153.618C152.737 119.956 152.097 119.636 151.696 119.035C151.296 118.435 151.096 117.394 151.096 116.033V114.592C151.096 113.191 151.296 112.191 151.696 111.59C152.097 110.99 152.737 110.67 153.618 110.67H157.341V100.904C157.341 95.06 158.743 90.9374 161.545 88.5759C164.348 86.2144 167.831 85.0137 171.995 85.0137C177.84 85.0137 180.762 86.2944 180.762 88.8561C180.762 89.6566 180.522 90.8573 180.002 92.4583C179.481 94.0593 178.881 94.8599 178.12 94.8599C177.76 94.8599 177.199 94.7798 176.479 94.5797C175.758 94.3795 174.877 94.2996 173.836 94.2996C172.075 94.2996 170.753 94.7798 169.833 95.7404C168.912 96.701 168.471 98.5823 168.471 101.424V110.63H176.799C177.68 110.63 178.32 110.95 178.721 111.55C179.121 112.151 179.321 113.192 179.321 114.552V115.993C179.321 117.394 179.121 118.395 178.721 118.995C178.32 119.596 177.68 119.916 176.799 119.916H168.471V165.384C168.471 167.226 166.79 168.106 163.427 168.106H162.226C158.943 168.106 157.301 167.186 157.301 165.384L157.341 165.425Z" fill="white"/>
<path d="M197.057 165.024C194.175 162.583 192.733 158.5 192.733 152.817V119.956H188.329C187.449 119.956 186.808 119.636 186.408 119.035C186.007 118.395 185.807 117.394 185.807 116.033V114.592C185.807 113.192 186.007 112.191 186.408 111.591C186.808 110.95 187.449 110.67 188.329 110.67H192.733L194.175 99.5029C194.415 97.6618 195.776 96.7812 198.338 96.7812H200.1C202.742 96.7812 204.024 97.7018 204.024 99.5029V110.67H212.151C213.032 110.67 213.672 110.99 214.073 111.591C214.473 112.231 214.673 113.232 214.673 114.592V116.033C214.673 117.434 214.473 118.435 214.073 119.035C213.672 119.676 213.032 119.956 212.151 119.956H204.024V152.296C204.024 154.938 204.464 156.779 205.385 157.82C206.306 158.861 207.627 159.421 209.388 159.421C210.429 159.421 211.27 159.341 211.951 159.141C212.631 158.941 213.152 158.86 213.552 158.86C214.273 158.86 214.913 159.661 215.394 161.222C215.914 162.783 216.154 163.984 216.154 164.784C216.154 167.426 213.232 168.707 207.387 168.707C203.383 168.707 199.9 167.506 197.017 165.024H197.057Z" fill="white"/>
</svg>
